SplineFontDB: 3.0
FontName: SwanHand
FullName: SwanHand
FamilyName: SwanHand
Weight: Regular
Copyright: Copyright (c) 2016, William Seymour
UComments: "2016-5-23: Created with FontForge (http://fontforge.org)"
Version: 001.000
ItalicAngle: 0
UnderlinePosition: -100
UnderlineWidth: 50
Ascent: 800
Descent: 200
InvalidEm: 0
LayerCount: 2
Layer: 0 0 "Back" 1
Layer: 1 0 "Fore" 0
XUID: [1021 547 -597214956 2349]
FSType: 0
OS2Version: 0
OS2_WeightWidthSlopeOnly: 0
OS2_UseTypoMetrics: 1
CreationTime: 1464011425
ModificationTime: 1465835244
PfmFamily: 17
TTFWeight: 400
TTFWidth: 5
LineGap: 90
VLineGap: 0
OS2TypoAscent: 0
OS2TypoAOffset: 1
OS2TypoDescent: 0
OS2TypoDOffset: 1
OS2TypoLinegap: 90
OS2WinAscent: 0
OS2WinAOffset: 1
OS2WinDescent: 0
OS2WinDOffset: 1
HheadAscent: 0
HheadAOffset: 1
HheadDescent: 0
HheadDOffset: 1
OS2Vendor: 'PfEd'
MarkAttachClasses: 1
DEI: 91125
LangName: 1033
Encoding: ISO8859-1
UnicodeInterp: none
NameList: AGL For New Fonts
DisplaySize: -48
AntiAlias: 1
FitToEm: 0
WinInfo: 80 16 4
BeginPrivate: 1
BlueValues 22 [-7 4 581 596 992 998]
EndPrivate
Grid
424 390 m 0
 444.225018282 382.3711348 465.195067924 384.237789656 486 384 c 0
 520.744887904 386.228154882 556.218382906 385.26195373 590 394 c 0
 611.407453074 399.537310868 637.759697183 398 660 398 c 0
 686.568231507 398 711.76010114 391.40777686 738 388 c 0
 792 386 l 1025
128 18 m 0
 157.018823984 32.550187343 160.748154791 40.9544265455 176 54 c 0
 204.226577253 71.7967817425 229.891615708 87.9988130715 250 118 c 0
 265.467134966 132.841469574 278.88157418 149.740454636 296 162 c 0
 309.533953734 179.454899453 325.309358617 191.415788816 338 212 c 0
 358.32136484 233.565415347 368.382887704 264.072292836 390 286 c 0
 401.01372283 300.489078702 408.4435068 309.299704856 422 322 c 0
 455.239203025 353.519538971 487.322509168 381.904241536 504 426 c 0
 520.663851301 460.42054926 545.503019937 490.793860055 558 528 c 0
 573.286150264 565.837083004 604.219130564 589.953269937 626 620 c 0

StartChar: n
Encoding: 110 110 0
Width: 525
VWidth: 0
Flags: W
HStem: 0 21G<48 84.5 354.5 361> 551 41<332.232 471.74> 551 35<340.246 413.11>
VStem: 487 38<408.115 531.101>
LayerCount: 2
Fore
SplineSet
149 495 m 1xd0
 132 515 l 1
 158 534 206 586 224 586 c 0xb0
 225 586 226 586 227 585 c 0
 235 581 242 567 242 558 c 0
 242 557 242 556 242 555 c 0
 239 543 239 527 237 517 c 1
 267 557 307 570 356 582 c 0
 377 587 395 592 414 592 c 0
 439 592 464 583 490 555 c 1
 517 526 525 500 525 477 c 0
 525 452 516 430 512 409 c 0
 495 321 468 272 440 184 c 0
 425 138 406 100 397 66 c 1
 407 78 440 100 448 105 c 0
 450 106 447 91 447 90 c 1
 446 74 l 1
 428 56 424 52 411 40 c 0
 382 12 365 0 357 0 c 0
 352 0 344 5 344 14 c 4
 344 52 385.586914062 162.129882812 404 220 c 0
 432 308 458.458984375 354.293945312 476 442 c 0
 479 457 487 471 487 482 c 0
 487 501 484 516 478 529 c 1
 467 540 448 551 419 551 c 0
 408 551 395.875 549.532226562 382 546 c 0
 327 532 288.35546875 518.803710938 260 468 c 0
 188 339 99 0 70 0 c 0
 68 0 49 -2 48 0 c 0
 43 10 40 10 40 12 c 0
 40 14 43 17 48 35 c 0
 106 224 167 352 206 542 c 1
 189 527 166 505 149 495 c 1xd0
EndSplineSet
Validated: 524289
EndChar

StartChar: o
Encoding: 111 111 1
Width: 570
VWidth: 0
Flags: W
HStem: 4 37<146.733 277.253> 557 39<393 444.263>
VStem: 40 37<116.486 284.738> 503 27<359.638 491.272>
LayerCount: 2
Fore
SplineSet
246 544 m 5
 242 550 l 4
 228 568 l 5
 250 577 270 577 288 583 c 4
 295 585 303 587 312 589 c 4
 336 592 356 596 375 596 c 4
 391 596 407 594 427 585 c 4
 446 577 476 564 506 519 c 4
 518 501 526 489 528 474 c 4
 529 464 530 454 530 445 c 4
 530 414 523 388 515 352 c 4
 505 302 495 274 477 226 c 4
 458 176 450 154 419 113 c 4
 388 73 367 53 325 36 c 4
 288 20 260 4 225 4 c 4
 217 4 207 5 198 7 c 4
 162 15 125 20 80 82 c 4
 72 92 66 101 61 111 c 5
 45 141 40 165 40 190 c 4
 40 214 45 238 50 267 c 4
 59 324 76 354 105 400 c 4
 138 454 159 485 207 520 c 4
 220 529 229 535 243 542 c 5
 264 550 246 544 246 544 c 5
393 557 m 5
 393 557 395 556 395 555 c 4
 411 539 418 524 419 522 c 4
 420 518 420 515 420 512 c 4
 420 505 419 499 419 493 c 4
 419 491 419 490 419 488 c 5
 386 523 l 5
 386 527 386 535 386 536 c 5
 379 536 374 535 367 533 c 4
 355 530 344 528 333 525 c 4
 299 516 273 507 238 482 c 4
 191 447 170 416 137 362 c 4
 107 316 91 287 82 230 c 4
 79 211 77 194 77 179 c 4
 77 148 84 122 98 95 c 5
 101 90 105 85 106 84 c 4
 109 79 124 56 169 45 c 4
 181 42 193 41 203 41 c 4
 233 41 258 51 292 65 c 4
 334 82 378 112 405 154 c 4
 438 206 443 224 462 274 c 4
 479 322 487 335 496 386 c 4
 500 413 503 427 503 442 c 4
 503 453 501 465 498 484 c 4
 496 495 481 509 480 512 c 5
 471 525 466 535 451 542 c 4
 431 550 416 557 399 557 c 4
 397 557 395 557 393 557 c 5
EndSplineSet
Validated: 1
EndChar

StartChar: a
Encoding: 97 97 2
Width: 624
VWidth: 0
Flags: W
HStem: 13.6553 36.5576<117.48 207.587> 548 41<377.306 463.676>
VStem: 40.3076 35.6455<92.8965 230.66> 353.25 40.8027<57.8695 117>
LayerCount: 2
Back
SplineSet
489.509765625 540 m 0
 461.715820312 582.280273438 421.369140625 571.637695312 387.509765625 561 c 0
 363.1484375 549.05078125 336.9609375 540.998046875 312.509765625 525 c 0
 273.071289062 493.569335938 229.739257812 464.583984375 195.509765625 429 c 0
 154.780273438 381.245117188 107.20703125 329.662109375 87.509765625 270 c 0
 72.865234375 231.15625 56.2841796875 191.588867188 60.509765625 147 c 0
 48.697265625 69.1875 126.979492188 15.7431640625 198.509765625 45 c 0
 244.35546875 60.9638671875 280.573242188 85.4921875 315.509765625 120 c 0
 357.951171875 158.01171875 395.454101562 201.983398438 420.509765625 255 c 0
 437.548828125 299.493164062 458.463867188 346.405273438 468.509765625 396 c 0
 495.411132812 500.90234375 478.463867188 546.48046875 444.509765625 423 c 0
 411.642578125 350.31640625 390.448242188 269.731445312 384.509765625 189 c 0
 381.754882812 151.556640625 372.509765625 116.860351562 372.509765625 78 c 0
 372.509765625 50.708984375 381.029296875 39 405.509765625 39 c 0
 460.271484375 39 518.745117188 102.931640625 564.509765625 129 c 0
 594.509765625 156 l 1025
EndSplineSet
Fore
SplineSet
366 214 m 1
 369 246 393 272 408 306 c 0
 426 346 429 363 442 403 c 0
 451 430 455 452 461 478 c 0
 464.696289062 490.938476562 462.4140625 522.66796875 471.51953125 522.66796875 c 0
 472.266601562 522.66796875 473.08984375 522.455078125 474 522 c 0
 480 519 485 524 489 506 c 0
 492.5 492 493.5 482.5 493.5 475.875 c 0
 493.5 469.25 492.5 465.5 492 463 c 0
 490 431 486 413 479 382 c 0
 470 338 464 312 444 272 c 0
 426 235 420 206 402 178 c 0
 401 170 400 162 399 152 c 0
 398 143 397 135 395 128 c 0
 394.322265625 122.131835938 394.052734375 117.1796875 394.052734375 112.697265625 c 0
 394.052734375 97.318359375 397.225585938 87.4541015625 398 65 c 1
 405 66 400 55 407 58 c 0
 442 72 459 85 490 106 c 0
 524 129 541 145 574 170 c 1
 584 164 l 1
 551 139 559 93 525 70 c 0
 494 49 477 36 442 22 c 0
 434.116210938 18.9677734375 426.967773438 16.6708984375 419.663085938 16.6708984375 c 0
 414.922851562 16.6708984375 410.116210938 17.638671875 405 20 c 1
 405 20 405.131835938 19.7685546875 405.131835938 19.6123046875 c 0
 405.131835938 19.5322265625 405.09765625 19.47265625 404.994140625 19.47265625 c 0
 404.181640625 19.47265625 399.1171875 23.1572265625 373 50 c 0
 355.956054688 67.0439453125 352.622070312 72.6015625 352.622070312 76.37109375 c 0
 352.622070312 78.7939453125 354 80.478515625 354 84 c 0
 353.5 90 353.25 95.75 353.25 101.25 c 0
 353.25 106.75 353.5 112 354 117 c 1
 329 89 308 73 273 50 c 0
 242 30 222 20 186 15 c 0
 180.374023438 14.099609375 175.204101562 13.6552734375 170.318359375 13.6552734375 c 0
 153.495117188 13.6552734375 140.048828125 18.92578125 123 29 c 0
 118 32 119 27 80 67 c 0
 54 94 56 96 52 109 c 0
 44.0810546875 132.756835938 40.3076171875 151.330078125 40.3076171875 172.9296875 c 0
 40.3076171875 181.333984375 40.87890625 190.196289062 42 200 c 0
 47 243 57 267 77 306 c 0
 100 351 117 374 149 413 c 0
 179 450 198 470 235 500 c 0
 268 526 288 537 327 556 c 0
 356 570 380 589 412 589 c 0
 441 589 454 571 481 560 c 1
 509 519 l 1
 482 530 469 548 440 548 c 0
 408 548 391 534 362 520 c 0
 324 501 303 490 270 464 c 0
 233 434 214 414 184 377 c 0
 152 338 135 315 112 270 c 0
 92 231 82 207 77 164 c 0
 76.28515625 157.748046875 75.953125 152.133789062 75.953125 146.94140625 c 0
 75.953125 123.06640625 82.96484375 108.10546875 92 81 c 0
 94 77 99 73 100 70 c 0
 118.172851562 60.48046875 125.112304688 50.212890625 142.205078125 50.212890625 c 0
 144.86328125 50.212890625 147.768554688 50.4619140625 151 51 c 0
 187 56 207 66 238 86 c 0
 278 112 300 130 331 167 c 0
 336 173 340 178 345 184 c 0
 353 194 360 204 366 214 c 1
EndSplineSet
Validated: 524289
EndChar

StartChar: d
Encoding: 100 100 3
Width: 724
VWidth: 0
Flags: W
HStem: -7 38<101.184 209.032> 501 42<372.282 471.887> 521 34<286.369 448.236> 972.16 20G<655.152 664.632>
VStem: 40 35<55.3158 207.431> 307 39<58.1399 66>
LayerCount: 2
Back
SplineSet
722.626953125 547 m 1
 602.626953125 571 l 0
 591.068359375 567.193359375 577.827148438 563.614257812 566.626953125 559 c 0
 532.447265625 543.733398438 494.375 528.80859375 473.626953125 502 c 0
 455.977539062 479.194335938 433.85546875 450.380859375 413.626953125 424 c 0
 413.626953125 423.999023438 413.625976562 423.997070312 410.626953125 415 c 0
 377.626953125 346 l 0
 353.626953125 277 l 0
 332.626953125 211 l 0
 320.626953125 145 l 0
 320.626953125 49 l 0
 336.280273438 16.2021484375 372.9453125 -7.353515625 413.626953125 -2 c 0
 450.854492188 2.8994140625 467.734375 8.7587890625 500.626953125 22 c 0
 551.626953125 76 l 0
 593.626953125 136 l 0
 656.626953125 253 l 0
 665.626953125 268 l 0
 713.626953125 394 l 0
 760.626953125 565 l 0
 794.626953125 711 l 0
 802.626953125 741 l 0
 832.626953125 852 l 0
 850.626953125 922 l 0
 881.626953125 1078 l 0
 900.59765625 1202.14941406 873.4453125 1072.67089844 851.626953125 1015 c 0
 824.626953125 910 l 0
 815.626953125 880 l 0
 779.626953125 769 l 0
 719.626953125 544 l 0
 692.626953125 451 l 0
 653.626953125 337 l 0
 623.626953125 244 l 0
 605.626953125 172 l 0
 590.626953125 67 l 0
 589.591796875 55.9609375 587.626953125 45.5244140625 587.626953125 34 c 0
 587.626953125 16.55078125 597.625976562 7 614.626953125 7 c 0
 645.780273438 7 660.33984375 25.892578125 686.626953125 37 c 0
 755.626953125 103 l 1025
EndSplineSet
Fore
SplineSet
472 501 m 1xdc
 471 501 470 501 470 501 c 0xdc
 442 501 424 517 393 520 c 0
 385 521 378 521 372 521 c 0xbc
 355 521 341 519 323 514 c 0
 289 505 266 502 239 480 c 0
 202 450 189 424 165 384 c 0
 144 349 138 326 123 288 c 0
 106 243 92 218 83 170 c 0
 78 145 75 126 75 106 c 0
 75 93 76 80 79 65 c 0
 82 51 90 47 94 37 c 1
 108 32 119 31 132 31 c 0
 139 31 147 31 156 32 c 0
 173 34 184 34 198 43 c 0
 232 63 253 75 278 105 c 0
 315 149 328 180 354 230 c 0
 399 318 424 366 458 458 c 0
 463 474 468 487 472 501 c 1xdc
444 544 m 0
 446 543 449 543 452 543 c 0xdc
 468 543 495 551 498 561 c 0
 514 604 532 645 545 690 c 0
 560 741 566 752 582 802 c 0
 598 852 594 843 609 894 c 0
 619 928 615 922 624 954 c 0
 628 968 632 992 644 992 c 0
 644.799804688 992 651.360351562 992.16015625 658.944335938 992.16015625 c 0
 670.3203125 992.16015625 684 991.799804688 684 990 c 0
 684 989 669 967 669 966 c 0
 663 937 656 935 650 906 c 0
 638 850 640 865 626 810 c 0
 607 734 585 694 564 618 c 0
 548 560 524 520 508 471 c 0
 504 457 499 442 493 426 c 0
 459 334 434 285 389 198 c 0
 373 166 362 142 346 118 c 1
 347 118 l 1
 346 110 345 102 345 94 c 0
 345 85 346 76 346 66 c 0
 346 61 345 56 345 51 c 0
 345 47 365 56 364 53 c 1
 375 54 361 45 372 50 c 0
 390 58 400 63 415 74 c 0
 441 93 452 106 476 127 c 1
 471 97 l 1
 460 71 469 69 450 41 c 0
 439 26 425 26 407 17 c 0
 396 12 388 9 375 7 c 0
 367 6 362 7 355 11 c 0
 346 16 310 51 308 58 c 0
 307 61 307 63 307 66 c 1
 284 40 264 29 233 10 c 0
 219 2 208 2 191 0 c 0
 173 -2 158 -7 143 -7 c 0
 134 -7 126 -5 117 0 c 0
 114 2 117 -4 81 30 c 0
 41 67 48 75 44 98 c 0
 41 113 40 126 40 138 c 0
 40 158 43 178 48 203 c 0
 57 251 71 275 88 320 c 0
 103 358 109 381 130 416 c 0
 154 457 167 482 204 513 c 0
 231 535 253 538 288 547 c 0
 309 552 320 555 338 555 c 0xbc
 342 555 347 554 353 554 c 0
 388 551 422 549 444 544 c 0
EndSplineSet
Validated: 524289
EndChar

StartChar: h
Encoding: 104 104 4
Width: 543
VWidth: 0
Flags: W
HStem: 0 21G<65.4795 74.9795 355.468 358.708> 567.889 31.7988<300.925 423.895> 978 20G<348.21 353.979>
VStem: 39.9795 32<10.1939 33.9531> 462.575 40.4248<431.769 552.028>
LayerCount: 2
Back
SplineSet
433.763671875 990 m 4
 404.033203125 971.690429688 394.130859375 950.854492188 373.763671875 930 c 4
 328.763671875 837 l 4
 298.763671875 756 l 4
 250.763671875 600 l 4
 248.106445312 579.388671875 239.192382812 560.245117188 232.763671875 540 c 4
 227.34375 522.93359375 220.34375 505.385742188 214.763671875 492 c 4
 187.763671875 414 l 4
 151.763671875 303 l 4
 124.763671875 228 l 4
 97.763671875 171 l 4
 91.763671875 153 l 4
 70.763671875 84 l 4
 52.763671875 27 l 4
 79.763671875 96 l 4
 82.763671875 111 l 4
 115.763671875 210 l 4
 157.763671875 318 l 4
 181.763671875 390 l 4
 189.68359375 406.744140625 191.9921875 425.6875 202.763671875 441 c 4
 210.163085938 466.9375 230.888671875 485.533203125 241.763671875 510 c 4
 270.671875 541.763671875 301.754882812 576.520507812 343.763671875 582 c 4
 408.8671875 590.715820312 476.985351562 556.80078125 469.763671875 492 c 4
 468.958984375 484.784179688 463.216796875 426.948242188 457.763671875 429 c 4
 433.763671875 369 l 4
 406.763671875 297 l 4
 379.763671875 222 l 4
 352.763671875 150 l 4
 328.763671875 81 l 4
 323.543945312 62.5576171875 313.763671875 44.533203125 313.763671875 27 c 4
 313.763671875 21.9873046875 318.529296875 24 322.763671875 24 c 4
 334.149414062 24 347.702148438 41.9541015625 355.763671875 48 c 4
 436.763671875 129 l 1029
EndSplineSet
Fore
SplineSet
144.979492188 231 m 1
 144.979492188 230 l 2
 138.979492188 208 132.979492188 186 125.979492188 160 c 0
 110.979492188 104 77.9794921875 1 71.9794921875 0 c 0
 70.9794921875 0 l 0
 59.9794921875 7 40.9794921875 19 39.9794921875 31 c 0
 39.9794921875 32 40.9794921875 33 40.9794921875 34 c 0
 67.9794921875 129 83.9794921875 174 104.979492188 261 c 0
 117.979492188 313 132.979492188 359 148.979492188 422 c 0
 179.979492188 542 203.334960938 613.916992188 230.979492188 733 c 0
 243.979492188 789 250.979492188 822 264.979492188 877 c 0
 275.057617188 916.590820312 275.979492188 935 284.979492188 972 c 0
 292.213867188 1001.74316406 338.979492188 993 368.979492188 998 c 1
 341.979492188 972 l 2
 327.297851562 957.862304688 328.255859375 965.104492188 320.979492188 936 c 0
 311.979492188 900 309.057617188 884.590820312 298.979492188 845 c 0
 284.979492188 790 280.286132812 755.184570312 265.979492188 700 c 0
 251.979492188 646 239.979492188 602 228.979492188 560 c 1
 237.979492188 571 249.979492188 580 264.979492188 589 c 0
 275.979492188 595 285.979492188 598 295.979492188 599 c 0
 299.729492188 599.5 303.541992188 599.6875 307.463867188 599.6875 c 0
 319.229492188 599.6875 331.979492188 598 346.979492188 598 c 0
 376.979492188 597 392.979492188 597 421.979492188 585 c 0
 462.979492188 571 494.979492188 556 499.979492188 532 c 0
 500.979492188 528 500.979492188 523 501.979492188 518 c 0
 502.680664062 511.219726562 503 503.947265625 503 496.4765625 c 0
 503 471.99609375 499.576171875 445.388671875 494.979492188 427 c 0
 476.979492188 361 461.979492188 324 440.979492188 258 c 0
 415.979492188 181 397.979492188 135 378.979492188 63 c 1
 382.979492188 69 388.979492188 74 394.979492188 80 c 2
 423.979492188 112 l 1
 431.979492188 81 l 1
 419.979492188 44 424.979492188 40 396.979492188 20 c 0
 376.979492188 6 389.979492188 15 358.979492188 4 c 0
 358.874023438 3.982421875 358.764648438 3.9736328125 358.651367188 3.9736328125 c 0
 352.284179688 3.9736328125 332.979492188 31 332.979492188 31 c 2
 325.979492188 38 322.979492188 44 321.979492188 50 c 0
 320.979492188 61 327.979492188 70 329.979492188 79 c 0
 351.979492188 162 369.979492188 208 395.979492188 290 c 0
 416.979492188 356 431.979492188 392 449.979492188 458 c 0
 455.159179688 479.583007812 462.575195312 495.203125 462.575195312 513.870117188 c 0
 462.575195312 516.825195312 462.389648438 519.856445312 461.979492188 523 c 0
 461.979492188 526 460.979492188 529 459.979492188 532 c 0
 457.979492188 544 451.979492188 545 439.979492188 554 c 1
 423.979492188 559 412.979492188 566 390.979492188 567 c 0
 377.646484375 567 366.090820312 567.888671875 355.423828125 567.888671875 c 0
 350.090820312 567.888671875 344.979492188 567.666992188 339.979492188 567 c 0
 329.979492188 566 320.979492188 564 309.979492188 558 c 0
 275.979492188 539 261.979492188 518 244.979492188 486 c 0
 225.979492188 449 210.979492188 418 198.979492188 388 c 0
 183.979492188 349 172.979492188 312 155.979492188 262 c 0
 151.979492188 252 148.979492188 241 144.979492188 232 c 2
 144.979492188 231 l 1
EndSplineSet
Validated: 524289
EndChar

StartChar: e
Encoding: 101 101 5
Width: 584
VWidth: 0
Flags: W
HStem: 2.21094 21G<191.739 199.161> 547.857 33.3389<303.032 457.954>
VStem: 40.2412 37.0029<109.485 274.345> 510.405 33.5947<430.316 489.105>
LayerCount: 2
Back
SplineSet
202.4375 272 m 0
 239.033203125 275.756835938 293.592773438 278.6015625 320.4375 288 c 0
 344.787109375 296.525390625 371.752929688 301.2421875 392.4375 312 c 0
 441.19140625 334.944335938 481.471679688 364.626953125 503.4375 411 c 0
 512.913085938 431.00390625 521.4375 448.78515625 521.4375 480 c 0
 523.208007812 538.719726562 472.135742188 556.13671875 419.4375 561 c 0
 379.409179688 564.694335938 345.200195312 576.5546875 319.4375 562.83203125 c 0
 294.70703125 549.659179688 280.30859375 539.342773438 256.4375 524.512695312 c 0
 232.491210938 509.635742188 199.140625 495.278320312 182.4375 470.758789062 c 0
 176.172851562 461.5625 153.92578125 437.88671875 147.580078125 427 c 0
 139.765625 413.59375 127.516601562 394.4921875 115.672851562 382 c 0
 83.859375 322 l 0
 61.7177734375 234 l 0
 55.4365234375 139 l 0
 102.982421875 59 l 0
 175.4375 20.234375 l 0
 296.4375 45 l 0
 353.4375 72 l 0
 359.4375 78 l 0
 429.4375 123 l 0
 445.4375 150 l 1025
EndSplineSet
Fore
SplineSet
239.875 255 m 1
 144.875 288 l 1
 188.875 293 255.875 292 298.875 303 c 0
 339.875 313 362.875 322 399.875 342 c 0
 431.875 360 450.875 372 474.875 400 c 0
 493.875 423 497.875 440 505.875 469 c 0
 508.579101562 479.81640625 510.405273438 484.198242188 510.405273438 489.10546875 c 0
 510.405273438 493.271484375 509.088867188 497.81640625 505.875 507 c 0
 505.875 508 494.875 520 494.875 521 c 1
 483.875 527 479.875 533 464.875 536 c 0
 442.875 541 429.875 542 406.875 544 c 0
 389.357421875 545.297851562 376.470703125 547.857421875 362.479492188 547.857421875 c 0
 354.905273438 547.857421875 347.006835938 547.107421875 337.875 545 c 0
 317.875 540 308.875 535 290.875 525 c 0
 269.875 512 258.875 500 239.875 485 c 0
 217.875 468 207.875 455 189.875 435 c 0
 169.875 412 156.875 400 140.875 374 c 0
 122.875 345 114.875 327 102.875 295 c 0
 90.875 262 83.875 243 78.875 208 c 0
 77.8125 198.705078125 77.244140625 190.186523438 77.244140625 182.086914062 c 0
 77.244140625 159.688476562 81.5927734375 140.501953125 91.875 117 c 0
 103.875 91 110.875 91 125.875 72 c 1
 133.875 66 156.875 49 166.875 46 c 0
 185.875 41 168.875 42 187.875 44 c 0
 214.875 47 223.875 46 248.875 55 c 0
 289.875 70 311.875 80 350.875 100 c 0
 374.875 112 387.875 120 408.875 137 c 0
 418.875 145 421.875 153 429.875 164 c 1
 445.875 149 l 1
 445.875 145.571289062 446.038085938 141.163085938 446.038085938 136.428710938 c 0
 446.038085938 124.591796875 445.017578125 110.713867188 437.875 105 c 0
 416.875 88 408.875 78 384.875 66 c 0
 345.875 46 324.875 34 283.875 19 c 0
 258.875 10 244.875 7 217.875 4 c 0
 209.377929688 3.10546875 202.48046875 2.2109375 195.841796875 2.2109375 c 0
 187.635742188 2.2109375 179.82421875 3.578125 169.875 8 c 0
 145.875 18 96.875 52 73.875 80 c 1
 55.875 103 50.875 126 44.875 154 c 0
 41.53125 170.23828125 40.2412109375 183.510742188 40.2412109375 196.759765625 c 0
 40.2412109375 211.251953125 41.78515625 225.715820312 43.875 244 c 0
 48.875 279 55.875 298 67.875 331 c 0
 79.875 363 87.875 381 104.875 410 c 0
 121.875 436 134.875 448 154.875 471 c 0
 172.875 491 182.875 504 204.875 521 c 0
 223.875 536 235.875 541 257.875 553 c 0
 275.875 564 284.875 571 304.875 576 c 0
 321.357421875 579.803710938 333.018554688 581.196289062 346.225585938 581.196289062 c 0
 353.850585938 581.196289062 361.9921875 580.732421875 371.875 580 c 0
 394.875 578 407.875 577 429.875 572 c 0
 447.875 568 457.875 567 472.875 557 c 0
 488.875 546 531.875 503 537.875 486 c 0
 541.958007812 474.333007812 544 465.048828125 544 455.3671875 c 0
 544 448.451171875 542.958007812 441.333007812 540.875 433 c 0
 533.875 404 528.875 387 509.875 364 c 0
 485.875 336 466.875 324 434.875 306 c 0
 397.875 286 374.875 277 333.875 267 c 0
 290.875 257 283.875 260 239.875 255 c 1
EndSplineSet
Validated: 524289
EndChar

StartChar: s
Encoding: 115 115 6
Width: 567
VWidth: 0
Flags: W
HStem: -18.2412 36<170.079 313.503> 545.09 36.4404<331.913 468.577>
VStem: 459.154 36<133.774 242.594>
LayerCount: 2
Back
SplineSet
507.291015625 503 m 0
 514.123046875 556.028320312 437.940429688 563.64453125 397.291015625 563 c 0
 317.2578125 561.731445312 198.340820312 500.529296875 215.291015625 409 c 4
 220.291015625 382 256.010742188 380.520507812 275.291015625 369 c 4
 357.291015625 320 479.291015625 311.6640625 479.291015625 181 c 0
 479.291015625 73.9853515625 337.177734375 3 245.291015625 3 c 0
 160.174804688 -0.009765625 70.662109375 60.0234375 57.291015625 147 c 1024
EndSplineSet
Fore
SplineSet
510.905273438 493 m 0
 500.905273438 502 491.905273438 513 490.905273438 518 c 0
 489.905273438 524 488.905273438 532 488.905273438 533 c 1
 475.905273438 540 468.905273438 541 451.905273438 543 c 0
 440.780273438 544.236328125 431.947265625 545.08984375 422.57421875 545.08984375 c 0
 416.780273438 545.08984375 410.780273438 544.763671875 403.905273438 544 c 0
 374.905273438 540 357.905273438 539 331.905273438 527 c 0
 289.905273438 508 270.905273438 493 244.905273438 455 c 0
 233.905273438 440 232.905273438 429 229.905273438 410 c 1
 228.905273438 404 228.905273438 399 229.905273438 397 c 1
 259.905273438 380 273.905273438 376 305.905273438 361 c 0
 333.905273438 349 351.905273438 345 382.905273438 329 c 0
 405.905273438 316 430.905273438 300 459.905273438 266 c 1
 484.905273438 238 485.905273438 224 490.905273438 207 c 1
 493.967773438 195.973632812 495.154296875 187.57421875 495.154296875 178.583007812 c 0
 495.154296875 172.896484375 494.6796875 166.973632812 493.905273438 160 c 1
 491.905273438 138 489.905273438 125 480.905273438 106 c 0
 470.905273438 84 460.905273438 74 444.905273438 57 c 0
 426.905273438 38 415.905273438 27 392.905273438 15 c 0
 370.905273438 3 355.905273438 2 331.905273438 -4 c 0
 305.905273438 -11 290.905273438 -17 263.905273438 -18 c 0
 259.947265625 -18.158203125 256.21484375 -18.2412109375 252.63671875 -18.2412109375 c 0
 233.61328125 -18.2412109375 218.947265625 -15.8916015625 197.905273438 -10 c 1
 174.905273438 -4 159.905273438 3 136.905273438 18 c 0
 110.905273438 36 88.9052734375 60 72.9052734375 81 c 1
 54.9052734375 104 52.9052734375 115 45.9052734375 130 c 1
 41.9052734375 142 41.9052734375 149 39.9052734375 160 c 0
 38.9052734375 165 46.9052734375 161 55.9052734375 152 c 0
 65.9052734375 144 74.9052734375 133 75.9052734375 128 c 0
 77.9052734375 117 77.9052734375 110 80.9052734375 102 c 1
 88.9052734375 83 94.9052734375 76 98.9052734375 71 c 1
 110.905273438 56 109.905273438 58 121.905273438 50 c 0
 136.905273438 39 143.905273438 32 166.905273438 26 c 1
 187.10546875 20.1083984375 200.221679688 17.7587890625 218.775390625 17.7587890625 c 0
 222.265625 17.7587890625 225.947265625 17.841796875 229.905273438 18 c 0
 256.905273438 19 271.905273438 25 297.905273438 32 c 0
 321.905273438 38 336.905273438 39 358.905273438 51 c 0
 379.905273438 63 390.905273438 74 408.905273438 93 c 0
 424.905273438 110 434.905273438 120 444.905273438 140 c 0
 453.905273438 159 455.905273438 172 457.905273438 194 c 0
 458.6796875 200.973632812 459.154296875 206.596679688 459.154296875 211.798828125 c 0
 459.154296875 220.024414062 457.967773438 227.19921875 454.905273438 237 c 1
 451.905273438 258 440.905273438 267 438.905273438 269 c 1
 431.905273438 277 432.905273438 280 407.905273438 293 c 0
 381.905273438 307 363.905273438 313 333.905273438 327 c 0
 303.905273438 340 284.905273438 347 252.905273438 365 c 0
 247.905273438 368 217.905273438 385 199.905273438 413 c 0
 199.905273438 413 199.905273438 414 198.905273438 414 c 0
 191.905273438 427 191.905273438 434 193.905273438 444 c 1
 196.905273438 463 197.905273438 475 208.905273438 491 c 0
 234.905273438 529 255.905273438 544 297.905273438 563 c 0
 323.905273438 575 340.905273438 576 369.905273438 580 c 0
 376.520507812 581.102539062 382.596679688 581.530273438 388.528320312 581.530273438 c 0
 398.736328125 581.530273438 408.520507812 580.264648438 419.905273438 579 c 0
 436.905273438 577 446.905273438 575 463.905273438 566 c 1
 479.905273438 558 502.905273438 537 516.905273438 518 c 0
 516.905273438 517 517.905273438 516 518.905273438 515 c 0
 528.905273438 499 524.905273438 494 526.905273438 486 c 0
 527.905273438 481 520.905273438 485 510.905273438 493 c 0
EndSplineSet
Validated: 524289
EndChar

StartChar: i
Encoding: 105 105 7
Width: 350
VWidth: 0
Flags: W
HStem: 6 30<77.4182 116.113> 567 80<248.101 293.386>
VStem: 40 36.7402<36.0045 135.562> 233 76<582.222 632.963>
LayerCount: 2
Fore
SplineSet
309 621 m 0
 306 600 287 576 266 569 c 0
 262 568 258 567 255 567 c 0
 243 566 234 575 233 588 c 0
 233 589 234 592 234 595 c 0
 237 616 256 640 277 647 c 0
 281 648 285 649 288 649 c 0
 300 650 309 642 310 628 c 0
 310 625 309 624 309 621 c 0
121 470 m 0
 109 476 91 481 94 482 c 0
 124 493 155 503 185 515 c 0
 190 517 191 524 209 513 c 0
 238 498 239 484 239 484 c 1
 239.064453125 482.52734375 239.095703125 481.124023438 239.095703125 479.782226562 c 0
 239.095703125 460.169921875 232.423828125 453.655273438 224 434 c 0
 198 373 176 341 149 280 c 0
 129 235 121 207 105 161 c 0
 94 132 85 117 81 88 c 0
 78.53125 74.0107421875 76.740234375 64.76171875 76.740234375 54.1240234375 c 0
 76.740234375 51.833984375 76.8232421875 49.4794921875 77 47 c 0
 77 44 77 42 77 39 c 2
 77 39 77 36 77 36 c 1
 82 36 88 37 94 39 c 0
 109 43 117 52 129 61 c 0
 157 80 167 93 194 113 c 0
 197 113 195 109 200 98 c 0
 204 88 201 83 201 80 c 0
 193 52 192 51 165 31 c 0
 153 22 144 14 129 10 c 0
 122 8 116 6 110 6 c 0
 102 6 93 8 79 16 c 0
 62 26 49 41 47 44 c 0
 40 53 42 59 41 65 c 0
 41 68 41 71 40 73 c 0
 40 89 42 99 45 116 c 0
 49 145 58 160 69 189 c 0
 85 235 93 262 113 308 c 0
 140 368 161 401 188 462 c 0
 191 468 192 472 195 477 c 1
 180 471 169 467 149 459 c 0
 145 459 131 465 121 470 c 0
EndSplineSet
Validated: 524289
EndChar

StartChar: j
Encoding: 106 106 8
Width: 498
VWidth: 0
Flags: W
HStem: 4.87598 33.124<94.1821 134.661> 575.878 20G<335.513 340.771> 645 92<395.553 437.801>
VStem: 39.7197 36.2803<56.6663 141.738> 378 80<665.264 720.041>
LayerCount: 2
Back
SplineSet
34.9580078125 534 m 0
 63.787109375 540.89453125 77.57421875 548.342773438 98.9580078125 556 c 0
 107.41796875 559.029296875 122.112304688 564 130.958007812 564 c 0
 141.209960938 566.676757812 134.81640625 552.282226562 136.958007812 546 c 0
 134.3046875 519.389648438 126.298828125 499.64453125 114.958007812 476 c 0
 101.026367188 444.665039062 84.9384765625 407.80859375 78.9580078125 372 c 0
 69.4365234375 349.354492188 60.2783203125 327.02734375 48.9580078125 306 c 0
 39.5869140625 289.713867188 31.3095703125 274.6015625 24.9580078125 258 c 0
 11.7919921875 236.711914062 6.7177734375 212.595703125 -1.0419921875 190 c 0
 -9.2900390625 173.725585938 -14.634765625 156.198242188 -21.0419921875 140 c 0
 -25.046875 129.876953125 -29.0673828125 119.80859375 -33.0419921875 110 c 0
 -49.0419921875 66 l 0
 -67.0419921875 6 l 4
 -90.0419921875 -32 l 0
 -102.4140625 -37.2490234375 -105.80859375 -46 -123.041992188 -46 c 0
 -162.241210938 -46 -180.041992188 10 -180.041992188 36 c 0
 -180.041992188 49.998046875 -182.041992188 67 -181.041992188 81 c 1024
EndSplineSet
Fore
SplineSet
457 705 m 0
 453 681 432 654 410 647 c 0
 406 646 402 645 399 645 c 0
 386 645 378 655 378 670 c 0
 378 672 378 675 378 678 c 0
 382 703 403 730 425 737 c 0
 429 738 433 739 436 739 c 0
 449 739 458 729 458 713 c 0
 458 710 457 708 457 705 c 0
274 551 m 0
 267 555 249 564 251 565 c 0
 282 576 298 584 329 592 c 0
 330.96484375 592.491210938 332.9296875 595.877929688 338.095703125 595.877929688 c 0
 343.4453125 595.877929688 352.228515625 592.245117188 368 578 c 0
 370 576 372 574 373 572 c 0
 386.588867188 557.79296875 389.495117188 550.072265625 389.495117188 544.359375 c 0
 389.495117188 540.82421875 388.381835938 538.05859375 388 535 c 1
 378 498 367 480 353 445 c 0
 330 391 316 361 293 307 c 0
 274 264 265 239 247 195 c 0
 228 151 217 126 197 82 c 0
 186 58 184 41 167 20 c 1
 160 10 151 6 138 5 c 0
 136.766601562 4.91796875 135.553710938 4.8759765625 134.356445312 4.8759765625 c 0
 120.986328125 4.8759765625 109.51953125 10.068359375 93 22 c 0
 63 43 51 66 47 76 c 1
 40 91 41 102 40 116 c 0
 39.7998046875 118.599609375 39.7197265625 121 39.7197265625 123.280273438 c 0
 39.7197265625 132.400390625 41 139.599609375 41 150 c 0
 41 153 49 149 59 141 c 0
 68 133 76 123 76 119 c 0
 76 108.599609375 74.7197265625 101.400390625 74.7197265625 92.7919921875 c 0
 74.7197265625 90.6396484375 74.7998046875 88.400390625 75 86 c 0
 76 71 76 61 81 49 c 1
 82 46 83 45 84 42 c 1
 87 41 95 38 106 38 c 0
 118 39 126 42 133 52 c 1
 149 73 151 89 162 113 c 0
 182 158 193 182 212 227 c 0
 231 270 239 295 258 339 c 0
 281 392 296 422 318 476 c 0
 331 508 341 525 350 556 c 1
 327 549 328 549 302 539 c 0
 300 538 286 544 274 551 c 0
EndSplineSet
Validated: 524289
EndChar

StartChar: f
Encoding: 102 102 9
Width: 742
VWidth: 0
Flags: W
HStem: -59 32<48.4363 161.188> 494 50<256.677 359.727> 942 55<597.824 670.114>
LayerCount: 2
Back
SplineSet
581.111328125 553 m 1
 259.111328125 492 l 1053
570.111328125 606 m 1
 247.111328125 543 l 1049
EndSplineSet
Fore
SplineSet
694 951 m 0
 702 937 704 924 700 926 c 0
 678 932 668 941 648 942 c 0
 647 942 645 942 644 942 c 0
 626 942 618 932 601 922 c 0
 578 908 564 904 547 880 c 0
 523 846 517 822 504 781 c 0
 483 718 474.482421875 681.170898438 460 616 c 0
 458 607 454 590 452 583 c 1
 481 586 533 600 570 606 c 0
 572.961914062 606.48046875 572 592 575 576 c 0
 577.971679688 560.151367188 582.944335938 554.578125 580 554 c 0
 524 543 477 532 432 524 c 1
 422 495 415.966796875 479.009765625 405 442 c 0
 381 361 349 212 328 131 c 0
 306 47 321 98 295 21 c 0
 291 7 291 13 286 8 c 0
 277 -2 286 5 271 -6 c 0
 251 -20 205 -43 183 -51 c 0
 168 -58 166 -59 160 -59 c 0
 158 -59 156 -59 152 -59 c 0
 150 -59 147 -59 144 -59 c 0
 113 -62 121 -64 89 -64 c 0
 86 -64 57 -62 48 -48 c 0
 40 -34 39 -27 42 -27 c 0
 73 -27 66 -26 97 -24 c 0
 121 -22 135 -23 157 -13 c 0
 180 -3 192 1 213 14 c 0
 236 29 218 16 239 35 c 0
 257 51 246 32 261 71 c 0
 292 151 295 202 316 286 c 0
 338 367 345.373046875 413.119140625 372 493 c 0
 377 508 375 502 379 514 c 1
 344 513 309.01171875 494 265 494 c 0
 262 494 261 500 256 518 c 0
 251.450195312 534.379882812 248.046875 543.47265625 251 544 c 4
 317.14453125 555.815429688 344.67578125 564.622070312 393 571 c 5
 400 595 418.2890625 637.198242188 427 667 c 0
 446 732 450 771 471 834 c 0
 484 875 492 901 515 935 c 0
 532 959 547 962 569 976 c 0
 585 987 595 996 614 997 c 0
 616 997 619 997 621 997 c 0
 640 996 652 985 671 980 c 0
 676 978 686 965 694 951 c 0
EndSplineSet
Validated: 524289
EndChar

StartChar: c
Encoding: 99 99 10
Width: 482
VWidth: 0
Flags: W
HStem: 8.39941 34.5986<137.195 244.285> 593.812 27.9521<314.088 389.936>
VStem: 40.1064 46.0498<104.946 343.213> 398.75 43<548.327 585.375>
LayerCount: 2
Back
SplineSet
298.778320312 496 m 0
 319.361328125 501.216796875 310.583007812 511.899414062 312.778320312 522 c 0
 309.860351562 541.53125 292.67578125 545.131835938 278.778320312 550 c 0
 255.861328125 557.884765625 236.653320312 570.3671875 208.778320312 570 c 0
 181.76953125 571.26953125 164.54296875 562.157226562 146.778320312 550 c 0
 131.249023438 538.916992188 116.403320312 531.846679688 102.778320312 520 c 0
 90.8095703125 512.180664062 77.3427734375 501.596679688 64.7783203125 490 c 0
 47.84375 484.094726562 42.0048828125 471.752929688 26.7783203125 462 c 0
 19.908203125 457.599609375 6.978515625 439.926757812 4.7783203125 434 c 0
 -23.2216796875 402 l 0
 -51.2216796875 368 l 0
 -73.2216796875 330 l 0
 -77.98828125 320.788085938 -78.5478515625 308.845703125 -83.2216796875 300 c 0
 -86.19140625 282.440429688 -93.638671875 267.051757812 -95.2216796875 250 c 0
 -105.866210938 229.435546875 -110.987304688 204.07421875 -111.221679688 178 c 0
 -111.38671875 159.754882812 -117.221679688 142.140625 -117.221679688 122 c 0
 -109.958984375 72.7626953125 -76.80859375 36.2197265625 -23.2216796875 34 c 0
 13.4482421875 32.84375 52.1103515625 32.703125 74.7783203125 50 c 0
 88.763671875 60.890625 104.610351562 68.80078125 120.778320312 82 c 1024
EndSplineSet
Fore
SplineSet
407.75 530 m 0
 395.75 538 387.75 546 388.75 548 c 0
 392.75 555 397.75 560 398.75 567 c 1
 399.75 576 398.75 581 394.75 588 c 1
 393.75 590 392.75 591 392.75 591 c 1
 384.032226562 592.743164062 376.666015625 593.811523438 369.473632812 593.811523438 c 0
 364.2890625 593.811523438 359.1953125 593.256835938 353.75 592 c 0
 332.75 588 316.75 583 297.75 571 c 0
 265.75 550 249.75 542 222.75 514 c 0
 183.75 474 166.75 449 135.75 404 c 0
 112.75 370 106.75 341 96.75 301 c 0
 89.49609375 270.006835938 86.15625 247.7109375 86.15625 222.354492188 c 0
 86.15625 209.258789062 87.046875 195.34765625 88.75 179 c 0
 92.75 138 93.75 109 112.75 76 c 0
 126.75 52 139.75 54 140.75 53 c 1
 150.649414062 49.7001953125 159.868164062 42.998046875 176.265625 42.998046875 c 0
 179.745117188 42.998046875 183.547851562 43.2998046875 187.75 44 c 0
 215.75 48 232.75 52 255.75 67 c 0
 277.75 81 273.75 83 291.75 104 c 0
 293.75 106 307.75 108 321.75 107 c 0
 322.174804688 106.969726562 322.607421875 106.955078125 323.045898438 106.955078125 c 0
 336.211914062 106.955078125 355.233398438 120.172851562 356.693359375 120.172851562 c 0
 356.751953125 120.172851562 356.782226562 120.151367188 356.782226562 120.106445312 c 0
 356.782226562 120.079101562 356.771484375 120.043945312 356.75 120 c 0
 338.75 100 314.75 59 291.75 44 c 0
 268.75 29 255.75 20 227.75 16 c 0
 214.158203125 13.8251953125 203.2265625 8.3994140625 188.20703125 8.3994140625 c 0
 175.598632812 8.3994140625 160.110351562 12.22265625 137.75 25 c 0
 91.75 51 75.75 74 64.75 98 c 0
 48.75 136 45.75 158 41.75 198 c 0
 40.623046875 208.811523438 40.1064453125 218.913085938 40.1064453125 228.61328125 c 0
 40.1064453125 261.9765625 46.2275390625 290.586914062 54.75 327 c 0
 63.75 367 68.75 395 91.75 429 c 0
 122.75 474 140.75 501 179.75 541 c 0
 206.75 568 223.75 577 256.75 598 c 0
 275.75 611 291.75 616 313.75 620 c 0
 319.419921875 621.193359375 325.357421875 621.763671875 331.508789062 621.763671875 c 0
 345.969726562 621.763671875 361.614257812 618.612304688 377.75 613 c 0
 417.75 599 433.75 569 435.75 566 c 0
 440.75 557 442.75 550 441.75 540 c 1
 439.75 532 434.75 528 430.75 522 c 0
 429.75 519 418.75 523 407.75 530 c 0
EndSplineSet
Validated: 524289
EndChar

StartChar: l
Encoding: 108 108 11
Width: 427
VWidth: 0
Flags: W
HStem: -20 24G<81.4492 81.4492 86.9492 87.4492> -7.22168 21G<85.4492 85.4492 104.49 111.575>
VStem: 39.8643 36<31.5089 100.116>
LayerCount: 2
Back
SplineSet
420.333007812 954 m 4
 404.655273438 943.6328125 398.177734375 927.37890625 390.333007812 912 c 0
 357.333007812 831 l 0
 306.333007812 690 l 0
 270.333007812 603 l 0
 195.333007812 435 l 0
 186.333007812 414 l 0
 144.333007812 300 l 0
 84.3330078125 150 l 0
 60.3330078125 72 l 0
 60.3330078125 48 l 0
 60.3330078125 20.994140625 74.0029296875 18 102.333007812 18 c 0
 147.862304688 18 191.397460938 42.201171875 234.333007812 54 c 0
 294.333007812 90 l 1025
EndSplineSet
Fore
SplineSet
80.94921875 4 m 1xa0
 79.94921875 4 79.94921875 4 80.94921875 4 c 1xa0
378.94921875 884 m 0
 393.94921875 886 393.94921875 886 395.94921875 886 c 0
 402.94921875 886 432.94921875 893 425.94921875 881 c 0
 411.94921875 857 386.94921875 835 374.94921875 809 c 0
 356.94921875 768 365.94921875 791 349.94921875 749 c 0
 330.94921875 700 320.94921875 669 300.94921875 620 c 0
 278.94921875 566 266.94921875 537 243.94921875 485 c 0
 220.94921875 433 207.94921875 404 187.94921875 351 c 0
 167.94921875 299 159.94921875 269 139.94921875 217 c 0
 120.94921875 168 106.94921875 141 89.94921875 91 c 0
 83.3505859375 71.205078125 75.8642578125 59.4072265625 75.8642578125 39.6923828125 c 0
 75.8642578125 38.4921875 75.8916015625 37.2626953125 75.94921875 36 c 0
 75.94921875 34 76.94921875 31 76.94921875 31 c 1
 83.94921875 34 88.94921875 37 96.94921875 39 c 0
 121.94921875 45 135.94921875 49 160.94921875 56 c 0
 186.94921875 64 200.94921875 68 226.94921875 78 c 0
 248.94921875 86 285.94921875 103 306.94921875 112 c 0
 309.94921875 113 304.94921875 97 302.94921875 84 c 0
 300.94921875 70 297.94921875 58 294.94921875 57 c 0
 273.94921875 48 282.94921875 51 261.94921875 42 c 0
 235.94921875 32 220.94921875 28 194.94921875 20 c 0
 169.94921875 13 155.94921875 9 130.94921875 3 c 0
 121.768554688 0.8818359375 116.578125 -7.2216796875 106.571289062 -7.2216796875 c 0x60
 102.409179688 -7.2216796875 97.4130859375 -5.8193359375 90.94921875 -2 c 1
 90.94921875 -2 89.94921875 -2 89.94921875 -2 c 2
 88.94921875 -1 87.94921875 -1 86.94921875 0 c 1
 86.94921875 0 87.94921875 -1 88.94921875 -1 c 1
 80.94921875 4 63.94921875 17 51.94921875 33 c 0
 39.94921875 50 40.94921875 58 39.94921875 68 c 0
 39.8916015625 69.376953125 39.8642578125 70.71484375 39.8642578125 72.017578125 c 0
 39.8642578125 93.4072265625 47.3505859375 105.205078125 53.94921875 125 c 0
 70.94921875 175 84.94921875 202 103.94921875 251 c 0
 123.94921875 303 131.94921875 333 151.94921875 385 c 0
 171.94921875 438 185.94921875 467 207.94921875 519 c 0
 230.94921875 572 244.94921875 604 266.94921875 658 c 0
 286.94921875 707 270.94921875 669 289.94921875 718 c 0
 305.94921875 760 300.94921875 746 317.94921875 787 c 0
 328.94921875 813 330.94921875 824 344.94921875 848 c 0
 351.94921875 860 355.94921875 872 361.94921875 884 c 0
 362.94921875 886 360.94921875 882 378.94921875 884 c 0
86.94921875 0 m 1
 83.94921875 1 81.94921875 3 80.94921875 4 c 1xa0
 81.94921875 3 83.94921875 2 86.94921875 0 c 1
EndSplineSet
Validated: 524289
EndChar

StartChar: m
Encoding: 109 109 12
Width: 636
VWidth: 0
Flags: W
HStem: -4 21G<484.979 494.479> 524 44.1318<511.864 584.787> 538 38.6328<315.99 419.288>
VStem: 267.673 39.3057<13.5915 49.4782> 593.979 42.0215<421.371 517.766>
LayerCount: 2
Back
SplineSet
82.2841796875 495 m 0
 125.010742188 518.22265625 130.109375 538.926757812 166.284179688 546 c 0
 179.919921875 546 178.284179688 544.106445312 178.284179688 531 c 0
 178.625976562 515.702148438 179.219726562 500.811523438 169.284179688 489 c 0
 165.977539062 485.069335938 157.634765625 454.620117188 157.284179688 450 c 0
 133.284179688 372 l 0
 103.284179688 276 l 0
 79.2841796875 204 l 0
 68.8466796875 195.045898438 67.0869140625 178.654296875 61.2841796875 165 c 0
 50.4150390625 140.516601562 35.2060546875 118.805664062 28.2841796875 93 c 0
 25.220703125 81.578125 22.1181640625 68.712890625 16.2841796875 57 c 0
 43.2841796875 126 l 0
 91.2841796875 228 l 0
 115.284179688 294 l 0
 133.284179688 357 l 0
 163.284179688 435 l 0
 199.284179688 492 l 0
 212.489257812 518.068359375 240.498046875 542.466796875 269.284179688 551 c 0
 295.063476562 558.642578125 317.35546875 561 346.284179688 561 c 0
 380.013671875 561 403.284179688 546.717773438 403.284179688 513 c 0
 403.284179688 492 l 0
 373.284179688 426 l 0
 343.284179688 333 l 0
 328.284179688 273 l 0
 325.284179688 264 l 0
 301.284179688 198 l 0
 274.284179688 138 l 0
 250.284179688 72 l 0
 241.284179688 51 l 0
 265.284179688 126 l 0
 298.284179688 210 l 0
 355.284179688 366 l 0
 376.284179688 423 l 0
 382.810546875 436.489257812 387.9140625 441.959960938 391.284179688 456 c 0
 401.862304688 500.069335938 460.616210938 555 511.284179688 555 c 0
 531.91015625 555 560.56640625 537.036132812 563.284179688 514 c 0
 564.82421875 500.948242188 559.346679688 482.541015625 556.284179688 471 c 0
 549.296875 444.66796875 540.326171875 423.35546875 534.284179688 399 c 0
 526.16796875 366.283203125 516.094726562 338.439453125 507.284179688 304 c 0
 496.284179688 261 483.697265625 212.842773438 465.284179688 175 c 0
 440.198242188 123.443359375 422.735351562 68.7802734375 402.284179688 18 c 0
 445.284179688 43 l 1029
EndSplineSet
Fore
SplineSet
167.978515625 376 m 2xb8
 175.978515625 403 179.978515625 422 187.978515625 452 c 0
 193.978515625 475 199.978515625 488 204.978515625 508 c 1
 201.978515625 506 196.978515625 502 191.978515625 498 c 0
 176.978515625 487 168.978515625 479 153.978515625 468 c 0
 153.864257812 467.923828125 153.752929688 467.88671875 153.643554688 467.88671875 c 0
 150.900390625 467.88671875 149.90234375 491.419921875 147.978515625 502 c 0
 144.978515625 516 145.978515625 526 147.978515625 528 c 0
 162.978515625 539 140.978515625 523 155.978515625 534 c 0
 168.978515625 544 174.978515625 550 187.978515625 556 c 0
 189.629882812 557.100585938 191.28125 563.65625 198.103515625 563.65625 c 0
 203.674804688 563.65625 212.694335938 559.284179688 227.978515625 544 c 0
 237.978515625 533 242.978515625 526 244.978515625 522 c 1
 248.978515625 528 253.978515625 534 258.978515625 540 c 0
 275.978515625 557 290.978515625 560 311.978515625 569 c 1
 327.978515625 574 336.978515625 575 352.978515625 575 c 0
 364.45703125 575 373.7578125 576.6328125 383.579101562 576.6328125 c 0xb8
 392.581054688 576.6328125 402.022460938 575.260742188 413.978515625 570 c 0
 423.978515625 565 447.978515625 548 462.978515625 527 c 1
 470.978515625 535 479.978515625 542 490.978515625 549 c 0
 508.978515625 561 521.978515625 568 543.978515625 568 c 0
 546.887695312 568 549.73046875 568.131835938 552.645507812 568.131835938 c 0
 565.763671875 568.131835938 580.341796875 565.454101562 608.978515625 536 c 0
 631.454101562 513.524414062 636 500.403320312 636 490.553710938 c 0
 636 484.625976562 634.354492188 479.883789062 633.978515625 475 c 0
 632.978515625 453 626.978515625 442 620.978515625 420 c 0
 609.978515625 385 601.978515625 366 591.978515625 331 c 0
 581.978515625 297 577.978515625 278 568.978515625 244 c 0
 561.978515625 215 559.978515625 199 549.978515625 171 c 0
 536.978515625 134 525.978515625 115 510.978515625 78 c 0
 504.978515625 60 501.978515625 56 499.978515625 50 c 1
 502.978515625 47 504.978515625 45 506.978515625 43 c 0
 509.99609375 39.982421875 514.380859375 38.9677734375 518.9765625 38.9677734375 c 0
 528.397460938 38.9677734375 538.708007812 43.2294921875 539.963867188 43.2294921875 c 0
 540.047851562 43.2294921875 540.091796875 43.2109375 540.091796875 43.169921875 c 0
 540.091796875 43.1318359375 540.0546875 43.076171875 539.978515625 43 c 0
 509.978515625 1 l 1
 494.978515625 -9 503.978515625 -2 484.978515625 -4 c 0
 484.978515625 -4 463.978515625 2 448.978515625 28 c 0
 446.518554688 32.181640625 445.571289062 36.0009765625 445.571289062 39.486328125 c 0
 445.571289062 50.169921875 454.470703125 57.7216796875 455.978515625 63 c 0
 465.978515625 93 463.978515625 85 474.978515625 114 c 0
 488.978515625 151 500.978515625 169 513.978515625 206 c 0
 523.978515625 234 525.978515625 250 532.978515625 279 c 0
 541.978515625 313 545.978515625 332 555.978515625 366 c 0
 565.978515625 401 573.978515625 421 583.978515625 456 c 0
 589.978515625 477 592.978515625 481 593.978515625 502 c 0
 594.978515625 509 585.978515625 513 584.978515625 518 c 1
 580.978515625 519 571.978515625 524 563.978515625 524 c 0xd8
 542.978515625 524 544.978515625 524 525.978515625 512 c 0
 503.978515625 498 490.978515625 487 476.978515625 464 c 0
 451.978515625 423 442.978515625 396 426.978515625 350 c 0
 411.978515625 306 410.978515625 279 395.978515625 235 c 0
 384.978515625 197 375.978515625 176 361.978515625 140 c 0
 341.978515625 89 332.978515625 59 306.978515625 10 c 0
 306.978515625 10 305.220703125 6.7041015625 300.674804688 6.7041015625 c 0
 295.5234375 6.7041015625 286.791015625 10.9375 272.978515625 29 c 0
 269.205078125 34.03125 267.672851562 39.8544921875 267.672851562 46.1181640625 c 0
 267.672851562 69.7314453125 289.446289062 99.6123046875 294.978515625 117 c 0
 308.978515625 152 316.978515625 170 328.978515625 205 c 0
 343.978515625 247 350.978515625 269 364.978515625 310 c 0
 377.978515625 348 382.978515625 370 395.978515625 407 c 0
 406.978515625 435 414.978515625 451 425.978515625 479 c 0
 430.282226562 491.296875 432.318359375 497.166992188 432.318359375 504.513671875 c 0
 432.318359375 509.115234375 431.51953125 514.296875 429.978515625 522 c 1
 429.978515625 524 420.978515625 530 419.978515625 532 c 1
 404.978515625 537 407.978515625 538 386.978515625 538 c 0
 370.978515625 538 361.978515625 537 346.978515625 532 c 1
 325.978515625 523 310.978515625 520 294.978515625 503 c 0
 268.978515625 474 259.978515625 453 241.978515625 419 c 0
 224.978515625 388 241.978515625 423 219.978515625 370 c 0
 217.978515625 366 205.978515625 333 204.978515625 329 c 0
 189.978515625 278 176.978515625 248 158.978515625 199 c 0
 146.978515625 165 137.978515625 146 123.978515625 113 c 0
 110.978515625 84 104.978515625 68 90.978515625 40 c 0
 87.431640625 32.9052734375 84.669921875 14.013671875 75.0234375 14.013671875 c 0
 73.79296875 14.013671875 72.44921875 14.3212890625 70.978515625 15 c 0
 53.978515625 23 39.978515625 53 39.978515625 53 c 1
 48.978515625 80 58.978515625 93 69.978515625 119 c 0
 85.978515625 157 96.978515625 179 110.978515625 218 c 0
 127.978515625 263 132.978515625 290 150.978515625 334 c 0
 156.978515625 349 161.978515625 362 166.978515625 374 c 0
 167.978515625 376 l 2xb8
EndSplineSet
Validated: 524289
EndChar

StartChar: b
Encoding: 98 98 13
Width: 578
VWidth: 0
Flags: W
HStem: -0.666016 35.8262<177.277 247.406> 558.522 36<355.687 479.978> 973 20G<401.49 409.542>
VStem: 501.99 36.0098<378.121 534.991>
LayerCount: 2
Back
SplineSet
417.030273438 1039 m 1
 390.030273438 943 l 0
 377.8203125 917.265625 367.846679688 890.684570312 357.030273438 862 c 0
 350.244140625 844.004882812 344.65234375 822.749023438 342.030273438 805 c 0
 312.030273438 748 l 0
 288.030273438 691 l 0
 261.030273438 625 l 0
 234.030273438 565 l 0
 204.030273438 487 l 0
 186.030273438 421 l 0
 165.030273438 358 l 0
 147.030273438 292 l 0
 139.959960938 268.029296875 134.572265625 243.361328125 126.030273438 220 c 0
 118.078125 175.852539062 92.0517578125 142.3046875 90.0302734375 94 c 0
 77.484375 30.326171875 36.2177734375 -56.7421875 78.0302734375 49 c 0
 89.0205078125 83.1845703125 111.598632812 120.061523438 120.030273438 157 c 0
 120.678710938 159.841796875 134.44140625 195.815429688 135.030273438 196 c 0
 156.030273438 265 l 0
 174.030273438 328 l 0
 195.030273438 391 l 0
 211.783203125 422.720703125 226.458007812 447.932617188 249.030273438 472 c 0
 277.858398438 491.366210938 298.883789062 513.1171875 330.030273438 529 c 0
 362.4609375 551.05078125 397.521484375 561.469726562 441.030273438 559 c 0
 527.334960938 554.100585938 500.030273438 528 529.030273438 472 c 0
 510.030273438 392 l 0
 496.030273438 321 l 0
 459.030273438 233 l 0
 443.030273438 199 447.030273438 211 432.030273438 189 c 4
 423.708984375 176.794921875 407.071289062 155.604492188 399.030273438 143 c 0
 357.030273438 97 l 0
 315.030273438 59 l 0
 262.030273438 27 l 0
 240.803710938 23.7236328125 217.926757812 0.5146484375 195.030273438 4 c 0
 145.845703125 11.4853515625 149.161132812 23.1435546875 120.030273438 43 c 0
 108.030273438 64 l 1025
EndSplineSet
Fore
SplineSet
94.990234375 27 m 0
 94.990234375 26 94.990234375 25 93.990234375 25 c 0
 88.990234375 13 75.990234375 0 75.990234375 0 c 0
 74.990234375 0 40.990234375 40 39.990234375 40 c 1
 40.990234375 40 53.990234375 50 58.990234375 59 c 0
 59.990234375 63 61.990234375 67 62.990234375 71 c 0
 63.990234375 76 63.990234375 75 63.990234375 78 c 0
 63.990234375 80 64.990234375 82 65.990234375 83 c 0
 67.990234375 89 68.990234375 95 69.990234375 101 c 0
 83.990234375 152 89.990234375 181 103.990234375 231 c 0
 121.990234375 294 130.990234375 330 151.990234375 393 c 0
 161.990234375 423 169.990234375 449 177.990234375 474 c 0
 187.990234375 510 198.990234375 544 214.990234375 587 c 0
 247.990234375 671 253.990234375 717 282.990234375 802 c 0
 308.990234375 876 306.990234375 881 337.990234375 954 c 0
 346.990234375 975 345.990234375 973 351.990234375 988 c 0
 352.990234375 991 394.990234375 993 407.990234375 993 c 0
 411.092773438 993 412.383789062 991.721679688 412.383789062 989.591796875 c 0
 412.383789062 979.36328125 382.645507812 949.482421875 380.990234375 947 c 0
 372.990234375 928 378.990234375 940 370.990234375 920 c 0
 344.990234375 849 344.990234375 842 318.990234375 766 c 0
 290.990234375 682 283.990234375 637 250.990234375 553 c 0
 242.990234375 531 235.990234375 512 229.990234375 494 c 1
 243.990234375 514 251.990234375 530 272.990234375 548 c 0
 295.990234375 568 312.990234375 574 340.990234375 584 c 0
 361.990234375 592 375.990234375 593 397.990234375 594 c 0
 403.552734375 594.30859375 408.446289062 594.522460938 413.084960938 594.522460938 c 0
 423.45703125 594.522460938 432.552734375 593.455078125 444.990234375 590 c 0
 447.990234375 589 497.990234375 580 520.990234375 535 c 0
 537.190429688 505.299804688 538 484.509765625 538 456.591796875 c 0
 538 453.490234375 537.990234375 450.299804688 537.990234375 447 c 0
 536.990234375 406 529.990234375 383 519.990234375 343 c 0
 507.990234375 297 503.990234375 269 481.990234375 227 c 0
 457.990234375 181 437.990234375 159 403.990234375 120 c 0
 376.990234375 88 359.990234375 70 325.990234375 46 c 0
 293.990234375 23 274.990234375 7 234.990234375 0 c 0
 232.25 -0.45703125 229.561523438 -0.666015625 226.922851562 -0.666015625 c 0
 206.44921875 -0.666015625 188.934570312 11.9130859375 172.990234375 19 c 0
 158.990234375 25 149.990234375 22 125.990234375 45 c 0
 122.990234375 48 123.990234375 47 119.990234375 50 c 2
 119.990234375 50 115.990234375 51 111.990234375 50 c 0
 106.990234375 48 95.990234375 29 94.990234375 27 c 0
109.990234375 80 m 1
 121.990234375 67 124.990234375 64 124.990234375 64 c 2
 125.990234375 63 131.990234375 59 143.990234375 54 c 0
 166.254882812 44.580078125 175.3203125 35.16015625 191.909179688 35.16015625 c 0
 194.69140625 35.16015625 197.686523438 35.42578125 200.990234375 36 c 0
 239.990234375 43 258.990234375 59 290.990234375 82 c 0
 324.990234375 106 341.990234375 124 368.990234375 156 c 0
 402.990234375 195 422.990234375 217 446.990234375 261 c 0
 467.990234375 303 471.990234375 331 483.990234375 377 c 0
 493.990234375 417 500.990234375 440 501.990234375 481 c 0
 501.990234375 509 498.990234375 524 490.990234375 544 c 1
 483.990234375 550 481.990234375 552 475.990234375 554 c 0
 464.934570312 557.455078125 456.265625 558.522460938 446.026367188 558.522460938 c 0
 441.446289062 558.522460938 436.552734375 558.30859375 430.990234375 558 c 0
 408.990234375 557 396.990234375 556 375.990234375 548 c 0
 347.990234375 538 330.990234375 532 307.990234375 512 c 0
 284.990234375 492 269.990234375 478 247.990234375 456 c 0
 220.990234375 429 234.990234375 452 212.990234375 423 c 0
 211.990234375 421 197.990234375 388 195.990234375 382 c 0
 193.990234375 375 190.990234375 366 187.990234375 359 c 0
 166.990234375 296 157.990234375 260 139.990234375 197 c 0
 127.990234375 151 121.990234375 123 109.990234375 80 c 1
EndSplineSet
Validated: 524289
EndChar

StartChar: g
Encoding: 103 103 14
Width: 651
VWidth: 0
Flags: W
HStem: -200.545 31.4648<179.581 303.155> 157.405 39.6992<299.518 412.722> 557.286 42.0469<419.684 548.715>
VStem: 208.837 36.3525<248.962 359.399> 565.672 45.3281<356.438 516.922>
LayerCount: 2
Back
SplineSet
572.877929688 559 m 5
 450.877929688 565 l 4
 392.877929688 543 l 4
 340.877929688 509 l 4
 318.877929688 471 l 4
 284.877929688 413 l 4
 258.877929688 369 l 4
 249.9140625 361.173828125 248.1171875 347.176757812 242.877929688 335 c 4
 238.169921875 324.057617188 236.877929688 304.801757812 236.877929688 291 c 4
 236.877929688 229.447265625 280.336914062 229.28515625 304.877929688 195 c 4
 350.877929688 191 l 4
 412.877929688 195 l 4
 464.877929688 215 l 4
 499.501953125 225.114257812 519.004882812 256.734375 540.877929688 281 c 4
 559.11328125 303.333984375 571.28125 326.8984375 578.877929688 353 c 4
 584.712890625 373.047851562 588.008789062 389.520507812 590.877929688 409 c 4
 588.877929688 505 l 4
 588.877929688 471 l 4
 584.01171875 441.672851562 577.293945312 412.471679688 564.877929688 385 c 4
 547.565429688 346.693359375 539.728515625 297.04296875 530.877929688 255 c 4
 514.877929688 169 l 4
 486.877929688 105 l 4
 458.877929688 31 l 4
 453.546875 6.01171875 445.342773438 -20.333984375 428.877929688 -43 c 4
 410.791015625 -65.6044921875 394.966796875 -91.2421875 376.877929688 -111 c 4
 366.360351562 -128.01171875 356.6484375 -146.499023438 340.877929688 -157 c 4
 310.72265625 -188.875 257.780273438 -186.80859375 212.877929688 -179 c 4
 183.936523438 -169.729492188 152.491210938 -169.454101562 124.877929688 -155 c 4
 123.231445312 -154.138671875 98.8779296875 -139 98.8779296875 -139 c 4
 58.8779296875 -113 l 1029
EndSplineSet
Fore
SplineSet
608.34375 512 m 2
 609.34375 509 609.34375 509 609.34375 506 c 1
 610.514648438 494.870117188 611 484.168945312 611 473.645507812 c 0
 611 448.240234375 608.171875 423.870117188 605.34375 397 c 0
 601.34375 363 595.34375 345 585.34375 311 c 0
 574.34375 272 574.34375 250 563.34375 212 c 0
 551.34375 170 540.34375 146 527.34375 105 c 0
 516.34375 70 508.34375 50 491.34375 17 c 0
 470.34375 -23 460.34375 -45 435.34375 -82 c 0
 415.34375 -111 392.34375 -142 366.34375 -167 c 0
 342.34375 -190 335.34375 -196 301.34375 -198 c 0
 284.595703125 -199.116210938 270.029296875 -200.544921875 254.861328125 -200.544921875 c 0
 242.858398438 -200.544921875 230.479492188 -199.650390625 216.34375 -197 c 0
 184.34375 -191 170.34375 -181 141.34375 -169 c 1
 115.34375 -158 102.34375 -151 77.34375 -139 c 0
 72.1025390625 -136.379882812 40.1552734375 -113.157226562 40.1552734375 -107.991210938 c 0
 40.1552734375 -107.33984375 40.6630859375 -106.975585938 41.7958984375 -106.975585938 c 0
 41.96484375 -106.975585938 42.146484375 -106.983398438 42.34375 -107 c 0
 45.09375 -107.25 49.28125 -107.3125 54.109375 -107.3125 c 0
 58.9375 -107.3125 64.40625 -107.25 69.71875 -107.25 c 0
 80.34375 -107.25 90.34375 -107.5 93.34375 -109 c 0
 118.34375 -121 106.34375 -120 130.34375 -131 c 1
 161.34375 -143 160.34375 -150 190.34375 -156 c 0
 214.545898438 -160.538085938 229.595703125 -169.080078125 249.336914062 -169.080078125 c 0
 255.698242188 -169.080078125 262.545898438 -168.193359375 270.34375 -166 c 0
 302.34375 -157 319.34375 -147 343.34375 -124 c 0
 369.34375 -99 386.34375 -80 406.34375 -51 c 0
 431.34375 -14 438.34375 10 459.34375 50 c 0
 476.34375 83 477.34375 104 488.34375 139 c 0
 499.34375 175 504.34375 197 513.34375 232 c 1
 506.34375 227 497.34375 224 488.34375 217 c 0
 461.34375 196 446.34375 185 414.34375 174 c 0
 392.704101562 166.538085938 376.631835938 157.405273438 356.572265625 157.405273438 c 0
 349.749023438 157.405273438 342.46484375 158.461914062 334.34375 161 c 0
 302.34375 171 269.34375 193 235.34375 237 c 1
 214.286132812 263.953125 208.836914062 280.973632812 208.836914062 302.404296875 c 0
 208.836914062 306.416992188 209.028320312 310.583984375 209.34375 315 c 0
 211.34375 344 217.34375 361 230.34375 387 c 0
 247.34375 421 257.34375 438 278.34375 469 c 0
 299.34375 499 316.34375 517 345.34375 540 c 0
 375.34375 564 406.34375 581 443.34375 590 c 0
 464.009765625 595.333007812 472.232421875 599.333007812 484.602539062 599.333007812 c 0
 490.788085938 599.333007812 498.009765625 598.333007812 508.34375 596 c 0
 537.34375 589 553.34375 580 595.34375 536 c 0
 604.34375 526 609.34375 518 606.34375 517 c 0
 608.34375 512 l 2
564.34375 524 m 1
 558.34375 537 551.34375 541 550.34375 542 c 1
 550.372070312 542.084960938 550.385742188 542.169921875 550.385742188 542.256835938 c 0
 550.385742188 545.225585938 533.919921875 549.11328125 519.34375 553 c 0
 507.583984375 556.166015625 504.416015625 557.286132812 501.513671875 557.286132812 c 0
 497.998046875 557.286132812 494.870117188 555.643554688 477.34375 554 c 0
 440.34375 551 406.34375 532 376.34375 508 c 0
 347.34375 485 328.34375 469 308.34375 439 c 0
 287.34375 408 279.34375 392 262.34375 358 c 0
 249.34375 332 247.34375 310 245.34375 281 c 0
 245.239257812 279.544921875 245.189453125 278.138671875 245.189453125 276.778320312 c 0
 245.189453125 251.958007812 261.811523438 242.428710938 270.34375 232 c 1
 283.34375 224 276.34375 230 307.34375 208 c 1
 326.270507812 202.125976562 340.0859375 197.104492188 355.461914062 197.104492188 c 0
 363.645507812 197.104492188 372.270507812 198.526367188 382.34375 202 c 0
 414.34375 213 427.34375 228 454.34375 249 c 0
 481.34375 269 499.34375 280 518.34375 308 c 0
 538.34375 336 544.34375 356 554.34375 389 c 0
 563.34375 419 562.34375 438 565.34375 469 c 0
 565.57421875 471.305664062 565.671875 473.784179688 565.671875 476.368164062 c 0
 565.671875 490.689453125 562.670898438 508.248046875 562.670898438 517.563476562 c 0
 562.670898438 521.145507812 563.115234375 523.508789062 564.34375 524 c 1
EndSplineSet
Validated: 524289
EndChar

StartChar: p
Encoding: 112 112 15
Width: 588
VWidth: 0
Flags: W
HStem: 566.75 36.1357<393.406 512.75> 568 20G<281.75 319.75>
VStem: 39.8682 40.8818<-235.448 -144.114> 550.389 37.6113<391.528 530.638>
LayerCount: 2
Back
SplineSet
310.7890625 566 m 0
 305.282226562 548.54296875 300.21875 530.530273438 290.7890625 516 c 0
 266.7890625 454 l 0
 240.7890625 398 l 0
 214.7890625 342 l 0
 188.7890625 286 l 0
 186.7890625 278 l 0
 168.7890625 222 l 0
 152.7890625 176 l 0
 136.7890625 134 l 0
 118.7890625 86 l 0
 102.7890625 46 l 0
 95.43359375 20.111328125 87.576171875 -8.5615234375 76.7890625 -30 c 0
 68.30859375 -61.6806640625 51.5390625 -92.5703125 36.7890625 -122 c 0
 30.1767578125 -133.426757812 4.8173828125 -214.177734375 12.7890625 -178 c 0
 23.6240234375 -155.685546875 32.19921875 -133.662109375 40.7890625 -110 c 0
 45.951171875 -81.62109375 58.6015625 -55.9609375 70.7890625 -30 c 0
 80.45703125 -1.95703125 103.916015625 19.1884765625 112.7890625 46 c 0
 127.7265625 71.9453125 146.901367188 96.0888671875 156.7890625 124 c 0
 164.145507812 144.764648438 170.58984375 165.100585938 176.7890625 186 c 0
 198.7890625 254 l 0
 228.7890625 332 l 0
 260.7890625 432 l 0
 269.736328125 454.28125 275.309570312 479.920898438 292.7890625 498 c 0
 309.162109375 532.509765625 342.044921875 558.719726562 376.7890625 572 c 0
 405.969726562 585.266601562 438.076171875 588.849609375 468.7890625 590 c 0
 535.470703125 592.498046875 566.7890625 531.944335938 566.7890625 472 c 0
 546.055664062 355.461914062 479.155273438 232.302734375 368.7890625 182 c 0
 330.708007812 166.102539062 291.809570312 154.796875 250.7890625 152 c 0
 219.796875 149.88671875 184.7890625 179.133789062 184.7890625 212 c 0
 184.7890625 222 l 0
 190.7890625 234 l 1025
EndSplineSet
Fore
SplineSet
220.75 177 m 2xb0
 224.75 171 l 1
 232.75 163 229.75 166 237.75 160 c 1
 243.75 158 246.75 148 259.75 149 c 0
 277.75 151 286.75 155 304.75 161 c 0
 322.75 167 332.75 168 350.75 176 c 0
 368.75 184 377.75 188 393.75 199 c 0
 412.75 213 423.75 222 439.75 240 c 0
 457.75 260 467.75 270 483.75 293 c 0
 497.75 313 504.75 326 514.75 347 c 0
 523.75 365 526.75 376 532.75 395 c 0
 540.75 420 545.75 436 548.75 463 c 0
 549.676757812 474.120117188 550.388671875 483.092773438 550.388671875 491.80859375 c 0
 550.388671875 501.905273438 549.43359375 511.65625 546.75 524 c 0
 542.75 542 535.75 543 533.75 546 c 1
 532.75 547 524.75 556 512.75 560 c 1
 499.25 564.5 489.6875 566.75 477.3125 566.75 c 0
 473.1875 566.75 468.75 566.5 463.75 566 c 0
 440.75 564 428.75 560 405.75 553 c 0
 387.75 547 376.75 544 362.75 533 c 0
 344.75 518 337.75 506 323.75 486 c 0
 315.75 475 309.75 468 303.75 458 c 0
 301.75 448 299.75 436 295.75 424 c 0
 269.75 342 255.75 296 228.75 214 c 0
 224.75 200 223.75 196 219.75 185 c 0
 220.75 177 l 2xb0
309.75 552 m 2
 308.75 549 319.75 562 325.75 567 c 0
 340.75 579 351.75 581 369.75 587 c 0
 392.75 594 405.75 599 428.75 601 c 0
 438.177734375 601.942382812 446.05078125 602.885742188 453.939453125 602.885742188 c 0xb0
 462.784179688 602.885742188 471.649414062 601.700195312 482.75 598 c 0
 501.75 592 523.75 583 553.75 551 c 1
 553.75 550 l 1
 577.75 524 579.75 511 583.75 493 c 0
 586.8125 478.297851562 588 466.973632812 588 454.888671875 c 0
 588 447.245117188 587.525390625 439.297851562 586.75 430 c 0
 583.75 403 577.75 387 569.75 362 c 0
 563.75 343 560.75 331 551.75 313 c 0
 541.75 292 534.75 280 520.75 260 c 0
 504.75 237 493.75 226 475.75 206 c 0
 459.75 188 450.75 179 430.75 165 c 0
 414.75 154 405.75 150 387.75 142 c 0
 369.75 134 358.75 133 340.75 127 c 0
 322.75 121 312.75 116 294.75 114 c 0
 289.303710938 113.359375 284.47265625 112.923828125 279.797851562 112.923828125 c 0
 269.880859375 112.923828125 260.663085938 114.883789062 247.75 121 c 0
 243.75 123 226.75 134 208.75 153 c 1
 199.75 125 190.75 98 178.75 62 c 0
 164.75 20 154.75 -2 139.75 -43 c 0
 125.75 -81 116.75 -102 102.75 -139 c 0
 93.75 -163 90.75 -176 80.75 -199 c 0
 75.75 -212 78.75 -220 62.75 -234 c 0
 61.392578125 -235.1875 60.078125 -235.735351562 58.8125 -235.735351562 c 0
 47.380859375 -235.735351562 39.8681640625 -191.13671875 39.8681640625 -170.69140625 c 0
 39.8681640625 -166.708007812 40.1533203125 -163.641601562 40.75 -162 c 0
 51.75 -130 60.75 -113 71.75 -82 c 0
 82.75 -52 89.75 -35 100.75 -6 c 0
 115.75 35 122.75 58 136.75 99 c 0
 152.75 145 158.75 171 173.75 216 c 0
 186.75 257 194.75 279 207.75 321 c 0
 219.75 356 222.75 376 235.75 412 c 0
 244.75 437 248.75 451 259.75 476 c 0
 261.75 482 264.75 487 266.75 491 c 0
 269.75 505 270.75 518 273.75 531 c 0
 275.75 543 279.75 574 283.75 588 c 1x70
 319.75 587 l 1
 309.75 552 l 2
EndSplineSet
Validated: 524289
EndChar

StartChar: k
Encoding: 107 107 16
Width: 540
VWidth: 0
Flags: W
HStem: -0.490234 21G<74.0615 77.2046> 483 39.4609<460.263 474.911>
LayerCount: 2
Back
SplineSet
324.745117188 780 m 0
 241.311523438 813.786132812 300.278320312 740.209960938 270.745117188 735 c 0
 246.745117188 624 l 0
 186.745117188 420 l 0
 132.745117188 249 l 0
 102.745117188 150 l 0
 99.4736328125 117.513671875 93.8876953125 84.8916015625 84.7451171875 54 c 0
 33.3857421875 -83.228515625 90.6435546875 82.326171875 99.7451171875 147 c 0
 115.354492188 266.342773438 210.540039062 340.880859375 315.745117188 387 c 0
 334.000976562 395.002929688 419.215820312 424.541992188 423.745117188 447 c 0
 480.745117188 492 l 0
 270.745117188 387 l 0
 243.541015625 372.802734375 224.951171875 348.846679688 210.745117188 321 c 0
 195.860351562 291.818359375 156.745117188 255.23828125 156.745117188 222 c 0
 156.491210938 212.749023438 159.364257812 201.772460938 168.745117188 198 c 0
 201.969726562 140.8359375 230.860351562 73.9716796875 291.745117188 42 c 0
 293.630859375 41.0107421875 324.745117188 18 324.745117188 18 c 0
 333.745117188 9 l 1025
EndSplineSet
Fore
SplineSet
107 255 m 24
 112 271 114 283 118 297 c 0
 121 309 123 319 126 329 c 0
 138 376 148 410 164 463 c 0
 186 536 202 577 224 651 c 0
 244 718 244 718 262 785 c 1
 298 751 l 1
 280 684 280 683 260 616 c 0
 238 542 222 501 200 428 c 0
 192 402 185 380 179 359 c 1
 203 380 225 389 254 409 c 0
 281 428 296 439 324 456 c 0
 355 474 372 486 404 500 c 0
 420.25 506.841796875 451.127929688 522.4609375 467.859375 522.4609375 c 0
 470.69140625 522.4609375 473.118164062 522.013671875 475 521 c 0
 498 508 500 483 500 483 c 0
 459 460 433 456 393 431 c 0
 370 417 357 410 333 396 c 0
 304 379 287 368 259 350 c 0
 244 340 229 333 218 319 c 1
 200 300 193 303 181 278 c 0
 179.606445312 275.037109375 179.001953125 271.861328125 179.001953125 268.557617188 c 0
 179.001953125 252.907226562 192.569335938 234.385742188 200 222 c 0
 210 205 212 205 228 181 c 0
 241 162 246 156 257 139 c 0
 274 113 281 111 300 92 c 0
 309 83 314 81 350 51 c 1
 338 7 l 1
 326 17 298 32 263 67 c 0
 237 94 221 114 202 142 c 0
 189 161 182 173 171 190 c 0
 166 198 154 211 146 227 c 1
 146 226 144 224 143 222 c 0
 143 221 143 222 143 221 c 0
 137 196 131 174 125 150 c 0
 121 134 117 117 112 98 c 0
 109 88 106 80 103 72 c 0
 101 63 99 54 96 43 c 0
 91 25 92 13 79 0 c 0
 79 0 78.1025390625 -0.490234375 76.306640625 -0.490234375 c 0
 71.81640625 -0.490234375 61.71484375 2.5712890625 46 24 c 0
 41.3642578125 30.3740234375 39.6669921875 35.6572265625 39.6669921875 40.140625 c 0
 39.6669921875 51.130859375 49.869140625 57.3173828125 52 63 c 0
 58 80 62 92 67 106 c 0
 73 130 77 151 84 181 c 0
 91 210 98 226 107 255 c 24
EndSplineSet
Validated: 524289
EndChar

StartChar: q
Encoding: 113 113 17
Width: 499
VWidth: 0
Flags: W
HStem: 157.414 37.9502<130.994 230.818> 597.125 37.3125<257.399 380.719>
VStem: 40.0527 34.248<261.114 393.771>
LayerCount: 2
Back
SplineSet
403.028320312 566 m 1
 327.028320312 596 l 0
 321.028320312 596 l 0
 313.643554688 596 308.310546875 596 305.028320312 596 c 0
 280.46875 592.481445312 260.271484375 590.8203125 235.028320312 578 c 0
 213.876953125 567.05859375 180.892578125 551.778320312 165.028320312 532 c 0
 126.254882812 495.375 97.080078125 451.146484375 83.0283203125 402 c 0
 69.6943359375 355.366210938 49.5458984375 305.279296875 66.0283203125 254 c 0
 84.0283203125 198 99.0283203125 194.001953125 154.028320312 166.000976562 c 0
 163.841796875 161.004882812 183.154296875 161.283203125 194.028320312 161 c 0
 216.375 160.41796875 218.166992188 166.506835938 237.028320312 173 c 0
 363.662109375 216.594726562 369.3125 358.4375 399.028320312 466 c 0
 407.709960938 497.427734375 423.028320312 539.301757812 423.028320312 570 c 0
 417.5 529.028320312 399.653320312 486.34375 385.028320312 444 c 0
 322.0390625 261.630859375 295.805664062 69.4384765625 262.028320312 -119 c 0
 257.985351562 -141.555664062 238.215820312 -208.5625 266.028320312 -194 c 0
 291.305664062 -180.764648438 305.25 -148.301757812 332.028320312 -123 c 1028
EndSplineSet
Fore
SplineSet
410.186523438 571 m 1
 395.186523438 579 389.186523438 581 376.186523438 587 c 0
 359.686523438 593.75 347.124023438 597.125 331.327148438 597.125 c 0
 326.061523438 597.125 320.436523438 596.75 314.186523438 596 c 0
 283.186523438 591 269.186523438 584 240.186523438 571 c 0
 219.186523438 561 203.186523438 553 185.186523438 538 c 0
 159.186523438 516 144.186523438 502 125.186523438 474 c 0
 110.186523438 451 104.186523438 435 96.1865234375 408 c 0
 85.1865234375 377 79.1865234375 360 76.1865234375 327 c 0
 75.2431640625 314.743164062 74.30078125 304.04296875 74.30078125 293.639648438 c 0
 74.30078125 281.975585938 75.486328125 270.686523438 79.1865234375 258 c 0
 88.1865234375 229 94.1865234375 224 101.186523438 216 c 0
 108.186523438 210 125.186523438 198 155.186523438 196 c 0
 158.927734375 195.568359375 162.5234375 195.364257812 166.016601562 195.364257812 c 0
 186.798828125 195.364257812 203.927734375 202.583007812 226.186523438 212 c 0
 250.186523438 222 263.186523438 230 280.186523438 244 c 0
 284.186523438 248 288.186523438 252 293.186523438 256 c 0
 299.186523438 262 304.186523438 267 309.186523438 273 c 0
 312.186523438 284 316.186523438 297 320.186523438 310 c 0
 327.186523438 333 330.186523438 346 338.186523438 367 c 0
 346.186523438 394 354.186523438 410 363.186523438 436 c 0
 373.186523438 463 377.186523438 478 386.186523438 505 c 0
 396.186523438 531 401.186523438 548 410.186523438 571 c 1
342.186523438 236 m 0
 338.186523438 222 334.186523438 209 330.186523438 195 c 0
 326.186523438 181 318.186523438 142 313.186523438 125 c 0
 297.186523438 71 297.186523438 65 285.186523438 10 c 0
 273.186523438 -39 266.186523438 -66 256.186523438 -116 c 0
 254.186523438 -125 255.186523438 -129 254.186523438 -135 c 1
 268.186523438 -117 293.186523438 -76 305.186523438 -59 c 1
 310.186523438 -140 l 1
 300.186523438 -154 302.186523438 -154 288.186523438 -172 c 0
 282.122070312 -178.73828125 269.700195312 -200.006835938 250.615234375 -200.006835938 c 0
 241.377929688 -200.006835938 227.6171875 -197.166992188 218.186523438 -181 c 0
 204.186523438 -157 205.186523438 -155 205.186523438 -155 c 4
 209.186523438 -128 213.186523438 -110 219.186523438 -81 c 0
 228.186523438 -31 232.186523438 -2 244.186523438 48 c 0
 256.186523438 102 267.186523438 132 283.186523438 186 c 1
 276.186523438 182 268.186523438 178 259.186523438 174 c 0
 236.647460938 165.331054688 219.369140625 157.4140625 196.927734375 157.4140625 c 0
 193.481445312 157.4140625 189.9140625 157.600585938 186.186523438 158 c 0
 158.186523438 160 138.186523438 165 103.186523438 200 c 0
 68.1865234375 235 54.1865234375 262 46.1865234375 290 c 0
 41.4755859375 304.130859375 40.052734375 316.344726562 40.052734375 328.504882812 c 0
 40.052734375 339.578125 41.2333984375 350.607421875 42.1865234375 363 c 0
 45.1865234375 396 51.1865234375 413 62.1865234375 444 c 0
 70.1865234375 471 76.1865234375 488 91.1865234375 511 c 0
 110.186523438 539 126.186523438 553 152.186523438 575 c 0
 170.186523438 590 186.186523438 599 207.186523438 608 c 0
 236.186523438 621 251.186523438 629 282.186523438 633 c 0
 288.436523438 634 294.249023438 634.4375 299.842773438 634.4375 c 0
 316.624023438 634.4375 331.436523438 630.5 350.186523438 626 c 0
 377.186523438 619 386.186523438 615 420.186523438 595 c 1
 420.186523438 595 435.388671875 605.641601562 447.03515625 605.641601562 c 0
 451.75 605.641601562 455.880859375 603.8984375 458.186523438 599 c 0
 458.745117188 597.881835938 459 596.416992188 459 594.66796875 c 0
 459 577.641601562 434.813476562 533.696289062 431.186523438 521 c 0
 423.186523438 495 417.186523438 478 410.186523438 451 c 0
 403.186523438 423 395.186523438 412 388.186523438 385 c 0
 380.186523438 350 370.186523438 326 362.186523438 293 c 0
 356.186523438 269 348.186523438 256 342.186523438 236 c 0
EndSplineSet
Validated: 524289
EndChar

StartChar: r
Encoding: 114 114 18
Width: 583
VWidth: 0
Flags: W
HStem: 549 38<330.42 454.462>
VStem: 202 30<525.139 537>
LayerCount: 2
Back
SplineSet
124.798828125 512 m 4
 156.091796875 539.69921875 172.122070312 559.78125 206.798828125 562 c 4
 212.323242188 562 214.798828125 562.57421875 214.798828125 558 c 4
 218.75390625 544.09765625 219.036132812 536.895507812 218.798828125 522 c 4
 218.647460938 512.497070312 216.798828125 502.325195312 216.798828125 496 c 4
 216.798828125 491.333007812 215.536132812 486.608398438 214.798828125 482 c 4
 213.541015625 474.137695312 215.827148438 465.204101562 211.798828125 455 c 4
 196.798828125 417 194.36328125 432.641601562 183.797851562 390 c 4
 174.43359375 352.20703125 139.185546875 266.512695312 126.798828125 230 c 4
 120.994140625 212.888671875 121.798828125 215 114.798828125 197 c 4
 113.107421875 192.650390625 103.888671875 166.538085938 102.798828125 162 c 4
 90.798828125 112 45.2646484375 -12.376953125 52.798828125 24 c 4
 61.771484375 67.3251953125 79.58203125 111.965820312 89.0576171875 153 c 4
 92.029296875 165.869140625 105.153320312 208.15234375 108.798828125 220 c 4
 112.798828125 233 126.319335938 272.3203125 129.798828125 280 c 4
 182.798828125 397 180.705078125 464.1875 290.798828125 534 c 4
 322.125976562 553.865234375 349.884765625 572.940429688 396.798828125 570 c 4
 424.146484375 571.038085938 449.682617188 567.98828125 470.798828125 558 c 4
 507.737304688 540.52734375 507.67578125 522.3671875 528.798828125 488 c 1028
EndSplineSet
Fore
SplineSet
237 525 m 0
 245 520 250 533 258 539 c 0
 276 552 284 561 304 571 c 0
 321 579 333 581 351 584 c 0
 363 586 371 587 381 587 c 0
 386 587 392 587 399 586 c 0
 420 584 433 583 454 574 c 0
 472 566 491 551 511 530 c 0
 536 501 526 515 532 506 c 2
 543 488 l 1
 529 484 540 488 530 484 c 0
 529 484 529 485 528 485 c 0
 527 485 527 484 526 484 c 0
 523 484 517 487 490 509 c 2
 490 509 486 513 480 517 c 0
 463 524 466 524 448 534 c 0
 436 541 411 549 393 549 c 0
 390 549 387 548 385 548 c 0
 367 545 356 543 339 535 c 0
 319 525 311 516 293 503 c 0
 279 492 270 487 258 474 c 0
 254 469 250 465 246 461 c 0
 238 452 232 444 225 434 c 0
 221 429 211 415 209 408 c 0
 197 372 191 359 179 323 c 0
 167 288 159 267 146 232 c 0
 130 190 123 170 111 127 c 0
 103 99 100 78 92 47 c 0
 87 29 85 13 71 1 c 0
 69 -1 73 -6 61 1 c 0
 45 11 40 27 40 43 c 0
 40 63 47 81 48 83 c 0
 56 115 60 133 70 165 c 0
 84 208 94 232 109 275 c 0
 120 306 126 324 138 355 c 0
 152 392 157 414 176 448 c 0
 180 456 185 465 188 474 c 0
 194 489 197 493 200 509 c 0
 202 520 202 527 202 537 c 1
 195 535 187 531 179 525 c 0
 165 515 160 505 148 492 c 1
 140 556 l 2
 143 559 144 561 144 561 c 1
 145 562 144 561 145 562 c 1
 154 573 167 572 181 577 c 0
 182 577 183 584 189 584 c 0
 194 584 202 580 217 565 c 0
 230 552 233 544 233 539 c 0
 233 536 232 534 232 532 c 0
 232 529 233 528 237 525 c 0
EndSplineSet
Validated: 1
EndChar

StartChar: t
Encoding: 116 116 19
Width: 492
VWidth: 0
Flags: HWO
HStem: 3 21G<164 172.5>
VStem: 100 292
LayerCount: 2
Back
SplineSet
165.845703125 474 m 1
 355.845703125 518 l 0
 371.845703125 522 l 1025
219.845703125 692 m 1
 299.845703125 712 l 0
 301.3984375 713.03515625 301.737304688 714 303.845703125 714 c 0
 308.036132812 714 307.845703125 714.190429688 307.845703125 710 c 0
 307.845703125 704 l 0
 297.845703125 658 l 0
 279.845703125 574 l 0
 251.845703125 452 l 0
 227.845703125 358 l 0
 223.845703125 346 l 0
 191.845703125 246 l 0
 169.845703125 176 l 0
 157.845703125 124 l 0
 150.21484375 104.37109375 151.634765625 83.3779296875 143.845703125 64 c 0
 130.877929688 31.7373046875 151.8515625 8 181.845703125 8 c 0
 196.84375 8 204.470703125 15.4140625 217.845703125 20 c 0
 381.845703125 150 l 1025
EndSplineSet
Fore
SplineSet
277 686 m 2
 215 699 l 1
 233 701 292 738 316 739 c 0
 318 739 320 739 322 739 c 0
 344 738 349 727 349 716 c 0
 348 705 342 695 342 695 c 1
 338 678 330 656 323 631 c 0
 311 593 306 569 296 535 c 1
 359 546 l 1
 392 507 l 1
 282 489 l 1
 265 434 250 398 229 336 c 0
 212 287 203 259 187 209 c 0
 173 166 163 143 151 100 c 0
 146 80 146 76 145 62 c 0
 147 54 148 42 157 45 c 0
 181 51 186 58 206 73 c 0
 233 92 248 104 274 123 c 0
 289 135 311 151 328 162 c 1
 319 96 l 1
 303 85 323 97 307 85 c 0
 281 66 266 55 240 36 c 0
 219 21 213 13 189 7 c 0
 182 5 176 3 169 3 c 0
 159 3 147 9 126 30 c 0
 104 54 100 67 100 76 c 0
 100 80 101 83 102 86 c 0
 104 102 113 120 117 136 c 0
 129 179 139 203 153 245 c 0
 169 295 178 325 195 373 c 0
 210 417 222 447 234 481 c 1
 183 473 l 1
 153 508 l 1
 250 527 l 1
 252 535 254 544 257 553 c 0
 270 599 276 623 290 669 c 0
 293 678 295 685 298 693 c 1
 291 690 283 687 277 686 c 2
EndSplineSet
EndChar

StartChar: u
Encoding: 117 117 20
Width: 533
VWidth: 0
Flags: W
HStem: -5.30566 53.7822<127.709 207.511> -5.30566 36.3057<320.273 363.085>
VStem: 39.5352 38.9756<96.1153 271.401> 283.533 35.9551<30.3087 107.925>
LayerCount: 2
Back
SplineSet
148.102539062 528 m 0
 174.646484375 543.869140625 204.313476562 546.943359375 232.102539062 556 c 0
 235.444335938 556 235.713867188 552.317382812 234.102539062 550 c 0
 145.102539062 422 56.1025390625 277.25 56.1025390625 114 c 0
 56.1025390625 67.9619140625 127.227539062 -15.3232421875 165.102539062 7 c 0
 316.102539062 96 445.924804688 339.784179688 496.102539062 503 c 4
 496.102539062 503 302.102539062 135.022460938 302.102539062 48 c 0
 302.102539062 2.4140625 313.102539062 5 340.102539062 2 c 0
 454.102539062 74 l 1025
EndSplineSet
Fore
SplineSet
361.684570312 200 m 2xb0
 355.684570312 187 352.684570312 174 345.684570312 158 c 0
 342.684570312 150 337.684570312 136 335.684570312 124 c 0
 332.684570312 107 327.684570312 91 324.684570312 71 c 0
 322.0859375 57.1435546875 319.48828125 44.787109375 319.48828125 34.580078125 c 0
 319.48828125 33.0009765625 319.549804688 31.4736328125 319.684570312 30 c 1
 322.684570312 31 322.684570312 31 323.684570312 31 c 0
 341.684570312 37 347.684570312 39 361.684570312 48 c 0
 392.684570312 68 431.684570312 102 463.684570312 122 c 1
 442.684570312 52 l 1
 410.684570312 32 421.684570312 41 391.684570312 20 c 0
 378.684570312 11 375.684570312 1 357.684570312 -5 c 0
 357.193359375 -5.1962890625 356.305664062 -5.3056640625 355.08984375 -5.3056640625 c 0x70
 343.92578125 -5.3056640625 305.013671875 3.9296875 289.684570312 40 c 0
 285.122070312 51.078125 283.533203125 60.4580078125 283.533203125 69.5224609375 c 0
 283.533203125 74.3681640625 283.987304688 79.123046875 284.684570312 84 c 1
 277.684570312 77 271.684570312 71 263.684570312 63 c 0
 242.684570312 42 228.684570312 29 203.684570312 14 c 0
 193.471679688 8.1640625 181.129882812 0.19921875 166.271484375 0.19921875 c 0
 160.76171875 0.19921875 154.90625 1.294921875 148.684570312 4 c 0
 125.684570312 14 107.684570312 30 88.6845703125 50 c 0
 59.6845703125 81 48.6845703125 102 43.6845703125 127 c 0
 40.7138671875 141.110351562 39.53515625 153.153320312 39.53515625 164.612304688 c 0
 39.53515625 184.01171875 42.912109375 201.739257812 46.6845703125 225 c 0
 52.6845703125 263 58.6845703125 286 71.6845703125 322 c 0
 86.6845703125 362 97.6845703125 385 117.684570312 423 c 0
 138.684570312 463 131.684570312 454 155.684570312 493 c 0
 158.684570312 499 162.684570312 504 166.684570312 509 c 1
 162.684570312 507 156.684570312 504 142.684570312 498 c 5
 107.684570312 534 l 1
 141.684570312 549 132.684570312 545 148.684570312 550 c 0
 157.94921875 552.850585938 169.24609375 565.860351562 184.384765625 565.860351562 c 0
 190.487304688 565.860351562 197.213867188 563.74609375 204.684570312 558 c 0
 223.7890625 543.526367188 227.811523438 535.0859375 227.811523438 530.543945312 c 0
 227.811523438 527.241210938 225.684570312 526 225.684570312 526 c 1
 220.684570312 500 200.684570312 485 185.684570312 460 c 0
 161.684570312 421 167.684570312 431 146.684570312 391 c 0
 126.684570312 353 117.684570312 329 103.684570312 289 c 0
 90.6845703125 253 88.6845703125 229 82.6845703125 191 c 0
 80.15234375 175.387695312 78.5107421875 164.938476562 78.5107421875 155.521484375 c 0
 78.5107421875 142.619140625 81.591796875 131.653320312 89.6845703125 112 c 0
 99.6845703125 88 104.684570312 89 111.684570312 81 c 0
 114.684570312 78 128.684570312 67 128.684570312 67 c 0
 133.684570312 64 143.684570312 57 149.684570312 54 c 0
 156.583007812 50.81640625 165.452148438 48.4765625 174.798828125 48.4765625 c 0
 183.065429688 48.4765625 191.705078125 50.306640625 199.684570312 55 c 0
 224.684570312 70 222.684570312 74 243.684570312 95 c 0
 270.684570312 121 278.684570312 137 301.684570312 167 c 0
 316.684570312 187 323.684570312 206 331.684570312 224 c 0
 347.684570312 262 361.684570312 293 381.684570312 338 c 0
 396.684570312 371 404.684570312 390 420.684570312 423 c 0
 434.684570312 451 430.684570312 445 445.684570312 472 c 0
 453.684570312 487 463.684570312 511 476.684570312 523 c 1
 476.684570312 523 488.684570312 509 492.684570312 490 c 0
 492.900390625 488.91796875 493 487.80078125 493 486.655273438 c 0
 493 477.209960938 486.250976562 465.809570312 482.684570312 456 c 0
 470.684570312 426 467.684570312 418 453.684570312 389 c 0
 428.684570312 336 423.684570312 335 398.684570312 284 c 0
 393.684570312 274 392.684570312 272 392.684570312 272 c 0
 392.684570312 272 391.684570312 269 375.684570312 230 c 0
 371.684570312 221 363.684570312 206 363.684570312 206 c 1
 361.684570312 200 l 2xb0
EndSplineSet
Validated: 524289
EndChar

StartChar: v
Encoding: 118 118 21
Width: 438
VWidth: 0
Flags: W
HStem: 4.77734 21G<69.6392 82.2202> 577 20G<63 84>
VStem: 39.5547 41.4453<53 259.655> 58 40<239.688 557> 358 40<481.098 534.175>
LayerCount: 2
Back
SplineSet
80.0146484375 539 m 1
 84.0146484375 49 l 0
 84.5849609375 44.154296875 86.0146484375 38.9248046875 86.0146484375 31 c 0
 107.7109375 51.6376953125 123.10546875 71.642578125 144.014648438 97 c 0
 178.12109375 131.665039062 200.998046875 186.141601562 228.014648438 227 c 0
 249.788085938 274.552734375 268.100585938 312.038085938 286.014648438 361 c 0
 287.5 365.05859375 304.43359375 409.157226562 302.014648438 413 c 0
 318.014648438 487 l 0
 322.014648438 529 l 1025
EndSplineSet
Fore
SplineSet
64 597 m 1xd8
 104 557 l 1
 102 497 101 465 98 405 c 0xd8
 96 348 96 314 92 257 c 0
 89 211 89 185 86 139 c 0
 84 106 82 80 81 53 c 1
 84 57 87 60 89 63 c 0
 118 91 130 105 156 137 c 0
 186 173 201 196 225 235 c 0
 244 266 253 284 269 317 c 0
 289 359 301 383 319 426 c 0
 331 453 334 467 342 494 c 0
 350 522 352 540 358 568 c 1
 398 527 l 1
 392 499 390 481 382 454 c 0
 374 426 371 411 360 384 c 0
 342 341 329 317 309 275 c 0
 293 242 283 225 264 194 c 0
 240 153 225 130 195 94 c 0
 169 63 157 48 129 20 c 0
 122.529296875 15.37890625 93.8486328125 4.77734375 70.591796875 4.77734375 c 0
 68.6865234375 4.77734375 66.8173828125 4.8486328125 65 5 c 0
 51 6 40 11 40 25 c 0
 39.666015625 31.3330078125 39.5546875 36.888671875 39.5546875 42.185546875 c 0xe8
 39.5546875 52.77734375 40 62.3330078125 40 75 c 1
 42 116 43 139 46 179 c 0
 49 225 48 251 51 297 c 0
 55 354 55 388 58 445 c 0
 61 504 62 537 64 597 c 1xd8
EndSplineSet
Validated: 524289
EndChar

StartChar: w
Encoding: 119 119 22
Width: 697
VWidth: 0
Flags: W
HStem: -2 43<123.925 217.005> 12 51<345.737 441.968>
VStem: 40 43<91.8125 362.323> 619.653 37.3467<368.523 576.929>
LayerCount: 2
Back
SplineSet
163.958984375 567 m 1
 121.958984375 459 l 0
 111.955078125 439.953125 104.942382812 422.298828125 97.958984375 401 c 0
 77.958984375 340 72.658203125 321.599609375 66.958984375 256 c 0
 62.865234375 208.881835938 72.783203125 88.0791015625 100.958984375 61 c 0
 133.119140625 30.0908203125 130.637695312 24.3564453125 184.958984375 24 c 0
 207.1484375 23.8544921875 217.641601562 38.8623046875 232.958984375 51 c 0
 250.103515625 73.2822265625 273.791992188 92.8623046875 286.958984375 117 c 0
 296.397460938 134.302734375 305.2578125 151.102539062 313.958984375 168 c 0
 364.958984375 300 l 0
 340.958984375 219 l 0
 327.958984375 159 l 0
 327.958984375 149.538085938 321.87109375 122.288085938 322.958984375 111 c 0
 326.178710938 77.58203125 334.954101562 46.1953125 376.958984375 42 c 0
 414.721679688 38.228515625 453.041992188 59.0869140625 470.958984375 90 c 0
 484.766601562 113.823242188 496.590820312 133.1328125 511.958984375 153 c 0
 532.025390625 178.94140625 550.173828125 216.861328125 562.958984375 248 c 0
 595.489257812 327.23046875 628.958984375 377.436523438 628.958984375 468 c 0
 628.958984375 521.515625 629.958984375 567 584.958984375 599 c 0
 575.958984375 605 l 1025
EndSplineSet
Fore
SplineSet
150 598 m 1xb0
 174 549 l 1
 159 510 158 505 145 470 c 0
 129 427 117 405 105 364 c 0
 94 328 91 307 85 269 c 0
 84 259 83 249 83 239 c 0
 83 227 84 213 85 197 c 1
 87 161 87 148 95 117 c 1
 99 99 107 85 117 71 c 1
 129 55 133 53 148 45 c 1
 154 42 158 41 162 41 c 0xb0
 169 41 173 44 181 46 c 1
 199 50 208 55 225 68 c 1
 241 81 248 90 261 110 c 1
 278 137 285 153 299 183 c 1
 307 199 312 211 321 233 c 1
 329 254 333 268 342 289 c 1
 343 292 351 311 367 327 c 0
 373 333 377 335 380 335 c 0
 386 335 388 327 388 318 c 0
 388 306 385 293 385 293 c 0
 378 268 373 251 366 226 c 1
 360 201 353 192 350 172 c 0
 346 145 340 131 340 113 c 0
 340 111 340 108 340 106 c 1
 342 84 349 78 356 71 c 0
 363 64 370 63 380 63 c 0
 385 63 391 63 398 63 c 0
 411 63 417 63 433 77 c 1
 449 90 460 98 478 122 c 1
 494 144 503 157 516 180 c 1
 530 205 541 223 554 250 c 1
 567 278 571 291 583 319 c 1
 593 342 597 354 604 378 c 0
 611 403 615 415 618 440 c 1
 619.286132812 448.142578125 619.653320312 455 619.653320312 461.673828125 c 0
 619.653320312 470.571289062 619 479.142578125 619 490 c 0
 619 492 619 495 619 497 c 1
 619 499 619 500 619 502 c 0
 619 514 621 523 621 532 c 0
 621 537 621 542 619 547 c 1
 616 558 612 572 605 581 c 1
 600 588 601 608 595 623 c 1
 602 617 614 612 627 595 c 1
 636 584 642 571 647 556 c 1
 654 534 655 517 656 496 c 1
 656 488 657 480 657 473 c 0
 657 460 656 449 654 434 c 1
 651 409 651 391 644 366 c 0
 637 340 634 322 624 299 c 1
 612 269 608 255 595 227 c 1
 582 200 575 181 559 154 c 1
 544 129 533 112 517 90 c 1
 503 72 485 61 461 40 c 1
 445 26 425 12 396 12 c 0x70
 371 12 346 18 325 39 c 0
 308 56 304 75 302 93 c 1
 300 90 297 87 295 83 c 1
 282 63 273 50 252 32 c 1
 233 17 216 6 190 0 c 1
 183 -1 177 -2 171 -2 c 0
 155 -2 141 2 128 9 c 1
 105 21 93 35 79 53 c 1
 65 71 59 85 54 107 c 1
 46 142 45 167 43 199 c 1
 42 214 40 228 40 243 c 0
 40 253 41 263 43 276 c 0
 49 314 52 338 63 376 c 0
 76 421 89 446 105 487 c 0
 120 526 137 563 150 598 c 1xb0
EndSplineSet
Validated: 524289
EndChar

StartChar: z
Encoding: 122 122 23
Width: 627
VWidth: 0
Flags: W
HStem: 8 36<368.573 480.915> 12.2725 38.7275<112.409 474.969> 547.414 39<159.248 506.889>
LayerCount: 2
Back
SplineSet
5.1318359375 552 m 0
 67.5556640625 565.016601562 124.131835938 559 184.131835938 555 c 0
 241.172851562 551.197265625 324.131835938 548 371.131835938 543 c 0
 468.293945312 532.6640625 347.706054688 479.114257812 317.131835938 452 c 0
 201.768554688 349.690429688 81.3212890625 252.188476562 -20.8681640625 138 c 0
 -27.236328125 130.883789062 -74.8681640625 68 -74.8681640625 68 c 4
 13.1318359375 70 l 0
 233.131835938 66 l 0
 325.131835938 60 l 1025
EndSplineSet
Fore
SplineSet
134.409179688 558 m 0x60
 124.409179688 569 120.409179688 577 123.409179688 578 c 0
 141.409179688 581 151.409179688 585 169.409179688 586 c 0
 175.853515625 586.29296875 181.524414062 586.4140625 186.876953125 586.4140625 c 0
 199.796875 586.4140625 210.853515625 585.70703125 226.409179688 585 c 0
 255.409179688 584 273.409179688 584 302.409179688 582 c 1
 348.409179688 580 373.409179688 577 419.409179688 574 c 0
 461.409179688 571 486.409179688 573 529.409179688 565 c 1
 535.409179688 564 538.409179688 567 554.409179688 554 c 0
 579.409179688 534 586.409179688 515 586.409179688 514 c 1
 589.409179688 500 580.409179688 495 572.409179688 487 c 0
 550.409179688 467 533.409179688 464 510.409179688 446 c 0
 477.409179688 420 459.409179688 402 428.409179688 373 c 0
 390.409179688 337 369.409179688 315 330.409179688 278 c 0
 298.409179688 247 279.409179688 229 247.409179688 199 c 0
 212.409179688 164 191.409179688 147 158.409179688 110 c 0
 138.409179688 88 128.409179688 72 112.409179688 51 c 1
 121.409179688 51.5 128.909179688 51.75 136.659179688 51.75 c 0
 144.409179688 51.75 152.409179688 51.5 162.409179688 51 c 0x60
 200.409179688 50 220.409179688 47 257.409179688 46 c 0
 263.409179688 45.857421875 269.0625 45.7958984375 274.470703125 45.7958984375 c 0
 306.919921875 45.7958984375 330.552734375 48 367.409179688 48 c 0
 392.409179688 48 406.409179688 45 431.409179688 44 c 1
 443.409179688 43 447.409179688 43 459.409179688 42 c 0
 463.409179688 42 475.409179688 33 484.409179688 22 c 0
 493.409179688 11 497.409179688 3 493.409179688 3 c 0
 482.409179688 4 476.409179688 4 465.409179688 5 c 1
 440.409179688 6 426.409179688 8 401.409179688 8 c 0xa0
 367.009765625 8 345.409179688 6.7197265625 316.129882812 6.7197265625 c 0
 308.809570312 6.7197265625 301.009765625 6.7998046875 292.409179688 7 c 0
 254.409179688 8 233.409179688 11 196.409179688 12 c 0
 190.489257812 12.19140625 185.006835938 12.2724609375 179.793945312 12.2724609375 c 0
 157.71484375 12.2724609375 140.489257812 10.80859375 115.409179688 10 c 1
 101.409179688 10 93.4091796875 10 80.4091796875 9 c 0
 80.4091796875 9 62.4091796875 11 43.4091796875 41 c 0
 40.9443359375 44.8740234375 39.9052734375 48.283203125 39.9052734375 51.326171875 c 0
 39.9052734375 65.55859375 62.642578125 71.7607421875 68.4091796875 80 c 0
 89.4091796875 107 98.4091796875 124 121.409179688 149 c 0
 154.409179688 186 175.409179688 203 210.409179688 238 c 0
 242.409179688 269 262.409179688 285 294.409179688 316 c 0
 332.409179688 353 353.409179688 375 391.409179688 411 c 0
 422.409179688 440 441.409179688 458 474.409179688 484 c 0
 497.409179688 503 513.409179688 507 535.409179688 526 c 0
 536.409179688 527 537.409179688 528 539.409179688 530 c 1
 511.409179688 533 487.409179688 532 453.409179688 535 c 0
 407.409179688 538 382.409179688 540 336.409179688 542 c 1
 307.409179688 544 290.409179688 545 261.409179688 546 c 0
 245.853515625 546.70703125 234.796875 547.4140625 221.876953125 547.4140625 c 0
 216.524414062 547.4140625 210.853515625 547.29296875 204.409179688 547 c 0
 187.409179688 546 176.409179688 542 158.409179688 539 c 0
 155.409179688 538 144.409179688 547 134.409179688 558 c 0x60
EndSplineSet
Validated: 524289
EndChar

StartChar: x
Encoding: 120 120 24
Width: 467
VWidth: 0
Flags: W
HStem: 522.552 50.1074<126.939 169.312>
LayerCount: 2
Back
SplineSet
225.549804688 326 m 1
 248.549804688 239 l 1049
121.737304688 552.405273438 m 0
 148.741210938 538.236328125 172.506835938 527.5546875 191.334960938 505.158203125 c 0
 223.495117188 466.802734375 226.984375 413.115234375 235.549804688 366 c 0
 243.6640625 329.421875 252.08203125 292.705078125 262.885742188 258.702148438 c 0
 271.775390625 240.940429688 268.125976562 221.290039062 275.358398438 203.1640625 c 0
 284.357421875 181.37890625 291.696289062 162.709960938 296.973632812 138.66015625 c 0
 305.985351562 97.5966796875 326.635742188 66.447265625 344.41015625 31.33984375 c 0
 356.9296875 16.0009765625 l 1025
379.8125 520.259765625 m 0
 374.186523438 502.125 361.514648438 489.513671875 353.29296875 476.708007812 c 0
 340.979492188 456.782226562 331.366210938 435.879882812 315.213867188 418.245117188 c 0
 286.517578125 378.521484375 258.958007812 338.717773438 236.4609375 295.549804688 c 0
 218.078125 255.770507812 197.567382812 218.896484375 178.412109375 178.80078125 c 0
 156.416015625 148.447265625 140.23828125 109.815429688 118.196289062 80.36328125 c 0
 117.208984375 79.044921875 101.8515625 57.89453125 101.8515625 57.89453125 c 0
 83.5498046875 34 l 1025
EndSplineSet
Fore
SplineSet
68.375 23.5546875 m 4
 54.4033203125 24.8955078125 38.359375 23.2861328125 40.4072265625 25.236328125 c 4
 62.1572265625 55.7158203125 97.2685546875 100.873046875 117.04296875 132.400390625 c 4
 138.915039062 167.876953125 148.47265625 190.651367188 169.369140625 227.15234375 c 4
 187.168945312 259.727539062 196.653320312 279.502929688 215.428710938 311.053710938 c 4
 220.646484375 319.9296875 221.6953125 321.904296875 225.864257812 328.8046875 c 5
 223.158203125 340.875 220.622070312 359.942382812 217.013671875 376.03515625 c 4
 211.698242188 404.172851562 211.014648438 417.193359375 204.626953125 442.356445312 c 4
 198.213867188 466.520507812 200.116210938 462.47265625 195.483398438 477.58984375 c 4
 193.629882812 483.63671875 185.924804688 495.828125 184.94921875 496.852539062 c 6
 184.94921875 496.852539062 177.171875 506.044921875 169.3203125 512.23828125 c 4
 169.3203125 512.23828125 157.567382812 522.52734375 156.568359375 522.551757812 c 4
 149.69140625 527.721679688 156.568359375 522.551757812 134.916015625 537.083984375 c 4
 128.040039062 542.25390625 116.360351562 555.541992188 109.58203125 564.709960938 c 4
 102.803710938 573.877929688 103.802734375 573.854492188 111.776367188 572.659179688 c 4
 130.74609375 571.196289062 146.765625 571.805664062 176.561523438 563.077148438 c 4
 202.383789062 555.4453125 213.331054688 512.165039062 228.716796875 486.782226562 c 4
 231.423828125 474.712890625 l 4
 238.787109375 448.525390625 241.469726562 435.456054688 245.931640625 413.340820312 c 4
 249.491210938 395.249023438 250.173828125 382.228515625 251.83203125 368.18359375 c 5
 259.07421875 378.009765625 266.364257812 389.8359375 275.678710938 402.612304688 c 4
 294.33203125 429.165039062 306.669921875 442.868164062 325.346679688 470.420898438 c 4
 342.975585938 495.999023438 352.314453125 509.775390625 368.943359375 535.377929688 c 4
 369.9921875 537.352539062 380.96484375 536.084960938 397.959960938 535.669921875 c 4
 411.955078125 535.329101562 427.999023438 536.938476562 426.951171875 534.962890625 c 4
 410.321289062 509.361328125 378.086914062 459.131835938 360.458007812 433.5546875 c 4
 341.78125 406.001953125 329.443359375 392.297851562 310.790039062 365.745117188 c 4
 293.13671875 339.16796875 279.7265625 322.489257812 265.169921875 299.837890625 c 5
 268.802734375 284.745117188 273.435546875 269.626953125 277.970703125 250.510742188 c 4
 285.237304688 220.325195312 290.869140625 205.18359375 298.135742188 174.997070312 c 4
 305.401367188 144.810546875 319.032226562 129.473632812 327.37109375 102.262695312 c 4
 333.905273438 83.09765625 343.682617188 73.8564453125 357.240234375 55.5205078125 c 4
 370.796875 37.1845703125 395.497070312 24.578125 407.98046875 3.267578125 c 4
 408.080078125 3.09375 408.125976562 2.921875 408.12109375 2.7529296875 c 4
 408.048828125 -0.2392578125 392.340820312 -2.365234375 378.5859375 -2.029296875 c 4
 370.499023438 -1.83203125 363.086914062 -0.7841796875 359.921875 1.4384765625 c 4
 351.071289062 7.65625 339.318359375 17.9462890625 334.514648438 26.0654296875 c 4
 323.981445312 45.328125 313.252929688 56.5927734375 300.817382812 79.9033203125 c 4
 291.235351562 97.142578125 281.5546875 110.381835938 275.069335938 131.546875 c 4
 265.779296875 160.78125 258.196289062 177.971679688 250.880859375 206.158203125 c 4
 244.493164062 231.321289062 244.56640625 234.321289062 239.104492188 256.4609375 c 5
 222.426757812 228.859375 220.280273438 222.909179688 203.529296875 192.30859375 c 4
 182.633789062 155.807617188 174.075195312 133.009765625 152.203125 97.5322265625 c 4
 132.428710938 66.0048828125 118.018554688 49.3515625 96.2685546875 18.873046875 c 4
 94.220703125 16.921875 84.345703125 22.1640625 68.375 23.5546875 c 4
EndSplineSet
Validated: 524289
EndChar

StartChar: y
Encoding: 121 121 25
Width: 701
VWidth: 0
Flags: W
HStem: -197.812 35.9941<213.134 340.333> 141.846 36.0586<320.242 455.796> 576.825 20G<341.629 345.517>
VStem: 212.178 40.459<244.645 454.654>
LayerCount: 2
Back
SplineSet
294.779296875 550 m 0
 276.928710938 532.81640625 273.513671875 522.008789062 260.779296875 508 c 0
 246.779296875 462 l 0
 238.779296875 396 l 0
 232.779296875 340 l 0
 236.779296875 292 l 0
 235.807617188 280.501953125 241.817382812 270.92578125 242.779296875 260 c 0
 245.372070312 230.5546875 266.37109375 201.723632812 288.55078125 190 c 0
 296.197265625 185.958007812 315.279296875 181.90625 323.779296875 174.356445312 c 0
 379.779296875 162 l 0
 430.779296875 164 l 0
 470.779296875 178 l 0
 500.779296875 194 526.801757812 218.35546875 535.779296875 251 c 4
 553.44921875 288.848632812 571.393554688 330.541992188 580.779296875 370 c 0
 584.887695312 387.26953125 588.16015625 401.6328125 590.779296875 420 c 0
 592.625976562 432.954101562 592.779296875 442.669921875 592.779296875 456 c 0
 592.779296875 475.912109375 598.779296875 468 598.779296875 468 c 0
 599.712890625 451.83203125 595.8359375 438.76171875 592.779296875 424 c 0
 589.852539062 409.866210938 585.221679688 395.529296875 580.779296875 382 c 0
 568.779296875 328 l 0
 550.779296875 260 l 0
 538.779296875 214 l 0
 515.779296875 136 l 0
 491.779296875 83 l 0
 461.176757812 26 l 0
 447.255859375 -10 l 0
 426.888671875 -49 l 0
 420.600585938 -56.302734375 410.674804688 -79.4189453125 406.779296875 -88 c 0
 398.490234375 -106.258789062 400.102539062 -108.900390625 389.779296875 -122.9921875 c 0
 381.640625 -134.102539062 379.69140625 -150.323242188 369.779296875 -157 c 0
 316.779296875 -178 l 0
 250.779296875 -176 l 0
 212.779296875 -160 l 0
 203.456054688 -155.333984375 193.177734375 -154.091796875 182.779296875 -154 c 0
 155.780273438 -153.760742188 135.532226562 -130.936523438 114.779296875 -118 c 0
 74.779296875 -84 l 0
 58.779296875 -68 l 1025
EndSplineSet
Fore
SplineSet
309.985351562 591 m 0
 319.66015625 592.612304688 338.434570312 596.825195312 344.823242188 596.825195312 c 0
 346.209960938 596.825195312 347.013671875 596.625976562 347.013671875 596.159179688 c 0
 347.013671875 596.109375 347.004882812 596.056640625 346.985351562 596 c 0
 335.985351562 574 298.985351562 527 291.985351562 503 c 1
 280.985351562 482 274.985351562 467 269.985351562 443 c 0
 264.985351562 418 253.985351562 354 252.985351562 329 c 0
 252.760742188 322.931640625 252.63671875 317.418945312 252.63671875 312.223632812 c 0
 252.63671875 294.302734375 254.109375 280.15625 257.985351562 260 c 1
 261.985351562 238 267.985351562 238 276.985351562 226 c 1
 279.985351562 222 286.985351562 215 286.985351562 215 c 1
 288.985351562 213 290.985351562 210 300.985351562 204 c 1
 307.985351562 199 313.985351562 198 329.985351562 192 c 1
 353.377929688 184.514648438 363.637695312 177.904296875 385.340820312 177.904296875 c 0
 386.83203125 177.904296875 388.377929688 177.935546875 389.985351562 178 c 0
 409.985351562 179 420.985351562 184 439.985351562 191 c 0
 457.985351562 197 468.985351562 198 482.985351562 211 c 0
 498.985351562 226 502.985351562 238 512.985351562 258 c 0
 524.985351562 282 529.985351562 295 537.985351562 321 c 0
 546.985351562 349 548.985351562 366 555.985351562 394 c 0
 560.985351562 413 562.985351562 425 567.985351562 444 c 0
 571.985351562 458 597.985351562 529 604.985351562 542 c 0
 610.716796875 553.461914062 645.271484375 563.583984375 657.061523438 563.583984375 c 0
 659.530273438 563.583984375 661 563.140625 661 562.172851562 c 0
 661 562.1171875 660.995117188 562.059570312 660.985351562 562 c 0
 657.985351562 546 613.985351562 395 609.985351562 379 c 0
 604.985351562 360 599.985351562 349 595.985351562 329 c 0
 590.985351562 306 581.985351562 292 575.985351562 269 c 0
 569.985351562 247 567.985351562 236 560.985351562 214 c 0
 551.985351562 186 546.985351562 169 535.985351562 142 c 0
 527.985351562 122 523.985351562 110 514.985351562 90 c 0
 498.985351562 53 490.985351562 32 473.985351562 -3 c 0
 462.985351562 -26 456.985351562 -39 445.985351562 -62 c 0
 431.985351562 -91 425.985351562 -110 408.985351562 -137 c 0
 397.985351562 -156 391.985351562 -168 373.985351562 -181 c 0
 359.985351562 -191 349.985351562 -193 333.985351562 -196 c 1
 325.608398438 -197.256835938 318.108398438 -197.811523438 310.750976562 -197.811523438 c 0
 300.54296875 -197.811523438 290.608398438 -196.743164062 278.985351562 -195 c 0
 255.985351562 -192 241.985351562 -188 219.985351562 -182 c 0
 193.985351562 -175 174.985351562 -165 151.985351562 -154 c 0
 129.985351562 -144 108.985351562 -123 101.985351562 -117 c 0
 82.9853515625 -100 69.9853515625 -88 53.9853515625 -72 c 0
 43.9853515625 -62 37.9853515625 -52 39.9853515625 -50 c 0
 41.9853515625 -48 47.9853515625 -48 60.9853515625 -48 c 0
 83.9853515625 -48 104.985351562 -75 119.985351562 -88 c 0
 128.985351562 -96 132.985351562 -100 134.985351562 -102 c 1
 134.985351562 -102 141.985351562 -109 147.985351562 -113 c 0
 168.985351562 -126 169.985351562 -128 190.985351562 -137 c 0
 211.985351562 -146 227.985351562 -152 250.985351562 -155 c 0
 267.166015625 -157.426757812 277.456054688 -161.817382812 291.385742188 -161.817382812 c 0
 294.674804688 -161.817382812 298.166015625 -161.573242188 301.985351562 -161 c 1
 317.985351562 -158 326.985351562 -160 340.985351562 -150 c 0
 358.985351562 -137 363.985351562 -120 375.985351562 -102 c 0
 392.985351562 -75 395.985351562 -57 409.985351562 -28 c 0
 420.985351562 -5 426.985351562 8 437.985351562 31 c 0
 454.985351562 66 465.985351562 86 481.985351562 123 c 0
 488.985351562 139 493.985351562 148 498.985351562 163 c 1
 492.985351562 160 482.985351562 158 473.985351562 155 c 0
 454.985351562 148 443.985351562 143 423.985351562 142 c 0
 421.376953125 141.895507812 418.876953125 141.845703125 416.462890625 141.845703125 c 0
 395.74609375 141.845703125 381.376953125 145.521484375 358.985351562 150 c 0
 343.985351562 153 332.985351562 151 312.985351562 164 c 1
 292.985351562 177 262.985351562 199 240.985351562 231 c 1
 223.985351562 255 218.985351562 270 214.985351562 292 c 1
 212.856445312 303.923828125 212.177734375 313.670898438 212.177734375 323.017578125 c 0
 212.177734375 335.62109375 213.411132812 347.497070312 213.985351562 363 c 0
 214.985351562 388 217.985351562 402 220.985351562 427 c 0
 223.985351562 451 222.985351562 465 229.985351562 489 c 0
 236.985351562 513 262.985351562 560 273.985351562 582 c 0
 274.985351562 585 293.985351562 588 309.985351562 591 c 0
EndSplineSet
Validated: 524289
EndChar

StartChar: A
Encoding: 65 65 26
Width: 763
VWidth: 0
Flags: W
HStem: 1.10742 21G<690.085 692.895> 371 47<442.807 680.698>
VStem: 701 37<411.401 768.895>
LayerCount: 2
Back
SplineSet
734.594726562 470 m 1
 722.594726562 -66 l 1053
413.34375 279.48046875 m 1
 557.404296875 313.360351562 l 0
 574.905273438 315.459960938 592.104492188 324.056640625 610.32421875 327.880859375 c 0
 628.912109375 331.78125 654.59765625 335.209960938 672.064453125 337.560546875 c 1024
222.244140625 -129.5 m 0
 232.927734375 -110.868164062 249.953125 -94.712890625 263.404296875 -76.259765625 c 0
 289.225585938 -53.080078125 307.986328125 -27.345703125 322.204101562 1.1806640625 c 0
 335.967773438 28.568359375 349.913085938 58.5302734375 360.423828125 88.30078125 c 0
 375.200195312 114.3828125 384.623046875 138.151367188 392.764648438 165.740234375 c 0
 402.544921875 175.838867188 402.353515625 190.057617188 410.404296875 202.040039062 c 0
 439.803710938 294 l 0
 475.083984375 400.48046875 l 0
 510.364257812 511.80078125 l 0
 513.303710938 533.580078125 l 0
 542.704101562 608.600585938 l 0
 586.803710938 717.5 l 1
 626.494140625 611.020507812 l 0
 648.543945312 519.060546875 l 0
 669.124023438 390.80078125 l 0
 680.883789062 281.900390625 l 0
 692.64453125 143.9609375 l 0
 698.524414062 44.740234375 l 0
 695.583984375 3.6005859375 l 1025
EndSplineSet
Fore
SplineSet
663.806640625 21 m 0
 653.806640625 33 639.806640625 41 639.806640625 45 c 0
 644.806640625 77 644.806640625 97 651.806640625 129 c 0
 660.806640625 176 664.806640625 201 670.806640625 248 c 0
 675.806640625 295 675.806640625 326 680.806640625 371 c 1
 674.139648438 371.333007812 667.806640625 371.444335938 661.399414062 371.444335938 c 0
 648.583984375 371.444335938 635.47265625 371 618.806640625 371 c 0
 573.806640625 370 548.806640625 370 503.806640625 369 c 0
 472.806640625 369 439.806640625 367 407.806640625 366 c 1
 403.806640625 360 399.806640625 354 394.806640625 347 c 0
 358.806640625 294 339.806640625 264 300.806640625 214 c 0
 269.806640625 175 248.806640625 154 212.806640625 118 c 0
 177.806640625 83 156.806640625 63 118.806640625 32 c 0
 85.806640625 7 62.806640625 -4 26.806640625 -28 c 0
 26.6728515625 -28.08984375 26.5478515625 -28.1328125 26.43359375 -28.1328125 c 0
 25.6064453125 -28.1328125 25.2763671875 -25.8662109375 25.2763671875 -22.2744140625 c 0
 25.2763671875 -15.23828125 26.5419921875 -3.119140625 27.806640625 7 c 0
 28.806640625 23 33.806640625 43 36.806640625 45 c 0
 72.806640625 69 49.806640625 53 82.806640625 78 c 0
 121.806640625 109 141.806640625 129 176.806640625 164 c 0
 212.806640625 200 234.806640625 220 264.806640625 259 c 0
 297.806640625 301 316.806640625 329 342.806640625 369 c 1
 337.806640625 373 331.806640625 380 326.806640625 387 c 0
 316.806640625 399 312.806640625 410 316.806640625 410 c 0
 334.806640625 411 353.806640625 411 371.806640625 412 c 1
 393.806640625 443 409.806640625 465 433.806640625 500 c 0
 461.806640625 541 474.806640625 564 502.806640625 605 c 0
 529.806640625 646 541.806640625 670 570.806640625 711 c 0
 593.806640625 746 608.806640625 764 633.806640625 798 c 0
 643.806640625 811 654.806640625 825 682.806640625 856 c 0
 682.806640625 856 696.806640625 834 696.806640625 833 c 0
 731.806640625 762 725.806640625 719 730.806640625 684 c 0
 736.806640625 642 737.806640625 618 737.806640625 575 c 0
 737.9375 568.8203125 738 562.986328125 738 557.409179688 c 0
 738 520.571289062 735.280273438 494.952148438 731.806640625 455 c 0
 726.806640625 408 725.806640625 376 721.806640625 330 c 0
 717.806640625 281 719.806640625 258 714.806640625 207 c 0
 708.806640625 160 707.806640625 131 701.806640625 83 c 0
 697.806640625 51 698.806640625 35 693.806640625 2 c 0
 693.806640625 1.392578125 693.321289062 1.107421875 692.467773438 1.107421875 c 0
 687.702148438 1.107421875 671.439453125 9.974609375 663.806640625 21 c 0
685.806640625 410 m 1
 688.806640625 440 690.806640625 463 694.806640625 498 c 0
 698.280273438 537.952148438 701 562.817382812 701 599.45703125 c 0
 701 605.00390625 700.9375 610.8203125 700.806640625 617 c 0
 700.806640625 660 699.806640625 684 693.806640625 725 c 0
 690.806640625 752 688.806640625 751 683.806640625 771 c 1
 675.806640625 761 677.806640625 763 669.806640625 753 c 0
 644.806640625 719 629.806640625 701 606.806640625 666 c 0
 578.806640625 625 566.806640625 601 538.806640625 560 c 0
 511.806640625 519 498.806640625 495 469.806640625 454 c 0
 459.806640625 439 451.806640625 427 442.806640625 415 c 1
 451.806640625 416 459.806640625 415 468.806640625 415 c 0
 513.806640625 416 539.806640625 417 584.806640625 418 c 0
 620.806640625 418 641.806640625 418 676.806640625 417 c 0
 678.806640625 417 681.806640625 414 685.806640625 410 c 1
EndSplineSet
Validated: 524289
EndChar

StartChar: B
Encoding: 66 66 27
Width: 680
VWidth: 0
Flags: W
HStem: 6 47<143.562 392.689> 806.249 46.6611<445.495 569.524>
VStem: 577.939 33.2432<212.295 334.108> 620.829 34.1709<669.51 765.521>
LayerCount: 2
Back
SplineSet
187.924804688 536 m 0
 252.336914062 603.418945312 324.404296875 664.586914062 419.924804688 678 c 0
 483.202148438 686.885742188 587.498046875 677.845703125 575.924804688 590 c 0
 574.182617188 576.775390625 574.801757812 565.14453125 571.924804688 552 c 0
 550.923828125 456.033203125 457.904296875 394.712890625 377.924804688 348 c 0
 361.278320312 337.17578125 279.470703125 300.338867188 299.924804688 314 c 0
 340.165039062 340.875 405.373046875 346 451.924804688 346 c 0
 539.185546875 346 582.950195312 278.524414062 591.924804688 198 c 0
 595.779296875 163.415039062 573.392578125 118.379882812 550.924804688 95 c 4
 520.2734375 63.1044921875 492.422851562 27.8466796875 450.924804688 11 c 4
 409.645507812 -5.7578125 369.924804688 -14 323.924804688 -24 c 4
 285.149414062 -32.4296875 250.577148438 -31.123046875 210.924804688 -30 c 0
 173.239257812 -28.9326171875 150.059570312 -10.5234375 114.924804688 0 c 0
 93.9248046875 27 l 1025
383.924804688 676 m 1
 359.924804688 542 l 0
 355.924804688 530 l 0
 331.924804688 436 l 0
 299.924804688 328 l 0
 249.924804688 178 l 0
 240.149414062 165.861328125 238.150390625 149.43359375 229.924804688 136 c 0
 215.70703125 111.553710938 206.311523438 87.6064453125 191.924804688 66 c 0
 183.350585938 53.1220703125 174.421875 33.58984375 169.924804688 18 c 0
 154.924804688 -13 l 1025
EndSplineSet
Fore
SplineSet
212.495117188 698 m 0
 203.495117188 711 198.495117188 723 200.495117188 725 c 0
 228.495117188 747 244.495117188 761 273.495117188 781 c 0
 297.495117188 797 311.495117188 807 336.495117188 820 c 0
 361.495117188 833 375.495117188 841 403.495117188 846 c 0
 425.474609375 850.962890625 440.918945312 852.91015625 459.451171875 852.91015625 c 0
 467.057617188 852.91015625 475.18359375 852.58203125 484.495117188 852 c 0
 518.495117188 849 540.495117188 846 572.495117188 830 c 0
 584.495117188 824 594.495117188 820 608.495117188 806 c 0
 623.495117188 791 640.495117188 764 647.495117188 748 c 0
 653.119140625 733.291015625 655 721.763671875 655 711.313476562 c 0
 655 697.606445312 651.764648438 685.751953125 649.495117188 671 c 0
 644.495117188 639 636.495117188 621 621.495117188 593 c 0
 607.495117188 567 596.495117188 553 575.495117188 533 c 0
 547.495117188 505 529.495117188 492 495.495117188 471 c 0
 485.495117188 465 474.495117188 459 467.495117188 455 c 1
 480.495117188 451 491.495117188 448 505.495117188 442 c 0
 527.495117188 433 546.495117188 413 569.495117188 380 c 0
 597.495117188 339 601.495117188 317 606.495117188 294 c 0
 609.620117188 280.25 611.182617188 269.625 611.182617188 258.462890625 c 0
 611.182617188 251.765625 610.620117188 244.875 609.495117188 237 c 0
 605.495117188 207 605.495117188 186 591.495117188 160 c 0
 577.495117188 132 561.495117188 120 539.495117188 100 c 0
 512.495117188 76 497.495117188 60 466.495117188 45 c 0
 430.495117188 27 407.495117188 23 368.495117188 15 c 0
 330.495117188 8 309.495117188 6 270.495117188 6 c 0
 234.495117188 6 214.495117188 7 178.495117188 16 c 0
 146.495117188 24 128.495117188 35 100.495117188 50 c 0
 88.4951171875 56 79.4951171875 62 62.4951171875 81 c 0
 61.4951171875 82 60.4951171875 84 59.4951171875 85 c 0
 35.4951171875 116 29.4951171875 135 29.4951171875 135 c 2
 23.4951171875 147 23.4951171875 152 30.4951171875 147 c 0
 37.4951171875 142 48.4951171875 128 54.4951171875 116 c 0
 56.4951171875 112 58.4951171875 108 60.4951171875 104 c 2
 60.4951171875 104 67.4951171875 99 73.4951171875 96 c 0
 79.4951171875 93 84.4951171875 90 89.4951171875 88 c 1
 86.4951171875 94 85.4951171875 99 86.4951171875 100 c 0
 111.495117188 128 123.495117188 147 144.495117188 180 c 0
 172.495117188 224 187.495117188 252 211.495117188 299 c 0
 239.495117188 353 256.495117188 389 276.495117188 438 c 0
 274.495117188 440 273.495117188 442 274.495117188 443 c 0
 274.495117188 443 276.495117188 444 280.495117188 445 c 0
 284.495117188 455 288.495117188 464 292.495117188 475 c 0
 323.495117188 546 340.495117188 587 366.495117188 659 c 0
 386.495117188 713 395.495117188 746 406.495117188 792 c 1
 394.495117188 787 383.495117188 781 368.495117188 773 c 0
 343.495117188 760 329.495117188 751 305.495117188 735 c 0
 276.495117188 715 260.495117188 701 232.495117188 679 c 0
 230.495117188 677 221.495117188 685 212.495117188 698 c 0
131.495117188 68 m 1
 136.495117188 66 142.495117188 65 148.495117188 63 c 0
 183.495117188 54 203.495117188 53 239.495117188 53 c 0
 278.495117188 53 299.495117188 55 337.495117188 62 c 0
 376.495117188 70 399.495117188 74 435.495117188 92 c 0
 466.495117188 107 480.495117188 123 507.495117188 147 c 0
 529.495117188 167 544.495117188 179 558.495117188 206 c 0
 571.495117188 232 572.495117188 251 576.495117188 281 c 0
 577.495117188 288 577.939453125 294 577.939453125 299.592773438 c 0
 577.939453125 310.77734375 576.162109375 320.333007812 573.495117188 333 c 0
 567.495117188 361 562.495117188 372 561.495117188 373 c 0
 555.495117188 382 554.495117188 386 533.495117188 395 c 0
 492.495117188 412 468.495117188 418 424.495117188 419 c 0
 422.760742188 419.0390625 421.046875 419.05859375 419.3515625 419.05859375 c 0
 378.046875 419.05859375 348.155273438 407.645507812 315.495117188 399 c 0
 315.495117188 399 314.495117188 399 313.495117188 400 c 1
 290.495117188 348 274.495117188 311 244.495117188 254 c 0
 220.495117188 207 205.495117188 178 177.495117188 134 c 0
 160.495117188 107 148.495117188 89 131.495117188 68 c 1
340.495117188 464 m 1
 354.495117188 469 367.495117188 473 377.495117188 477 c 0
 411.495117188 491 431.495117188 497 463.495117188 517 c 0
 497.495117188 538 514.495117188 552 542.495117188 579 c 0
 563.495117188 599 575.495117188 613 589.495117188 639 c 0
 604.495117188 667 610.495117188 683 615.495117188 715 c 0
 618.162109375 730.333007812 620.829101562 743.444335938 620.829101562 755.814453125 c 0
 620.829101562 762 620.162109375 768 618.495117188 774 c 0
 615.495117188 776 607.495117188 781 600.495117188 784 c 0
 569.495117188 799 549.495117188 802 515.495117188 805 c 0
 504.647460938 805.774414062 495.450195312 806.249023438 486.799804688 806.249023438 c 0
 473.122070312 806.249023438 460.809570312 805.0625 445.495117188 802 c 1
 447.495117188 798 448.495117188 794 448.495117188 792 c 0
 433.495117188 719 425.495117188 684 399.495117188 614 c 0
 377.495117188 554 362.495117188 516 340.495117188 464 c 1
EndSplineSet
Validated: 524289
EndChar

StartChar: C
Encoding: 67 67 28
Width: 646
VWidth: 0
Flags: W
HStem: -1.25781 55.7998<163.753 339.096> 26 72.5<340.835 424.477> 780.382 53.6035<362.973 530.125>
VStem: 24.8711 34.4102<147.014 331.03> 582.281 35<678.318 741.123>
LayerCount: 2
Back
SplineSet
535.204101562 586 m 0
 531.204101562 616 524.204101562 614 505.204101562 630 c 0
 495.215820312 638.411132812 479.204101562 651 461.204101562 652 c 0
 457.166992188 652.224609375 442.555664062 654.072265625 433.204101562 654 c 0
 413.3671875 653.84765625 392.266601562 648.7578125 372.204101562 643 c 0
 344.157226562 634.950195312 317.681640625 621.40625 293.204101562 602 c 0
 272.879882812 585.88671875 249.565429688 575.427734375 233.204101562 552 c 0
 224.311523438 539.266601562 211.702148438 522.467773438 201.204101562 510 c 0
 175.204101562 462 l 0
 159.204101562 412 l 0
 139.204101562 336 l 0
 134.0625 305.908203125 126.547851562 275.484375 127.204101562 244 c 0
 128.489257812 182.3984375 126.204101562 100 181.204101562 68 c 0
 195.393554688 59.744140625 221.600585938 47.71484375 237.204101562 46 c 0
 257.138671875 43.8095703125 276.114257812 40.0771484375 297.204101562 42 c 0
 332.3828125 45.2080078125 359.981445312 51.7568359375 393.204101562 58 c 0
 483.204101562 120 l 1025
EndSplineSet
Fore
SplineSet
600.28125 677 m 0xb8
 591.28125 691 582.28125 707 582.28125 714 c 0
 581.28125 725 579.28125 733 579.28125 736 c 1
 572.28125 742 575.28125 748 569.28125 752 c 1
 540.28125 769 521.28125 774 488.28125 777 c 0
 470.640625 778.556640625 457.307617188 780.381835938 443.952148438 780.381835938 c 0
 431.565429688 780.381835938 419.16015625 778.811523438 403.28125 774 c 0
 363.28125 762 335.28125 746 299.28125 724 c 0
 268.28125 705 255.28125 693 231.28125 664 c 0
 197.28125 624 184.28125 595 157.28125 547 c 0
 133.28125 504 124.28125 478 107.28125 431 c 0
 92.28125 389 83.28125 365 74.28125 322 c 0
 64.28125 278 59.28125 255 59.28125 209 c 0
 59.28125 170 72.28125 156 82.28125 129 c 1
 87.28125 124 90.28125 115 99.28125 108 c 1
 125.28125 87 132.28125 73 165.28125 65 c 1
 193.07421875 57.3564453125 213.625976562 54.5419921875 237.334960938 54.5419921875 c 0xb8
 247.748046875 54.5419921875 258.76953125 55.0849609375 271.28125 56 c 0
 302.28125 59 320.28125 68 350.28125 81 c 0
 377.28125 93 358.28125 84 384.28125 98 c 0
 384.78125 98.3330078125 385.697265625 98.5 386.947265625 98.5 c 0
 393.197265625 98.5 407.78125 94.3330078125 420.28125 86 c 0
 434.212890625 76.7119140625 451.596679688 65.6982421875 451.596679688 62.57421875 c 0
 451.596679688 62.3349609375 451.494140625 62.142578125 451.28125 62 c 0
 425.28125 49 410.28125 38 383.28125 26 c 0x78
 352.28125 13 335.28125 3 303.28125 0 c 0
 292.182617188 -0.8125 282.18359375 -1.2578125 272.708007812 -1.2578125 c 0
 247.178710938 -1.2578125 225.453125 1.9775390625 196.28125 10 c 0
 163.28125 18 142.28125 28 113.28125 51 c 0
 95.28125 65 59.28125 97 38.28125 155 c 1
 26.720703125 185.599609375 24.87109375 206.489257812 24.87109375 228.359375 c 0
 24.87109375 238.651367188 25.28125 249.16015625 25.28125 261 c 0
 25.28125 308 30.28125 332 40.28125 376 c 0
 50.28125 419 57.28125 443 72.28125 485 c 0
 89.28125 532 99.28125 559 123.28125 602 c 0
 149.28125 650 166.28125 675 200.28125 715 c 0
 224.28125 744 240.28125 760 271.28125 779 c 0
 307.28125 801 330.28125 811 370.28125 823 c 0
 395.978515625 830.008789062 413.79296875 833.985351562 436.474609375 833.985351562 c 0
 442.918945312 833.985351562 449.756835938 833.6640625 457.28125 833 c 0
 490.28125 830 510.28125 824 541.28125 806 c 1
 561.28125 794 574.28125 782 603.28125 737 c 0
 604.28125 735 604.28125 735 607.28125 728 c 1
 618.112304688 707.239257812 621 694.21875 621 685.26171875 c 0
 621 675.029296875 617.232421875 670.098632812 617.232421875 664.989257812 c 0
 617.232421875 664.66015625 617.248046875 664.331054688 617.28125 664 c 0
 617.28125 657 609.28125 663 600.28125 677 c 0xb8
EndSplineSet
Validated: 524289
EndChar

StartChar: D
Encoding: 68 68 29
Width: 810
VWidth: 0
Flags: W
HStem: -0.339844 37.4248<154.826 356.871> 819.039 36.1387<443.79 607.461>
VStem: 748.154 36.8457<458.416 695.359>
LayerCount: 2
Back
SplineSet
233.119140625 706 m 0
 264.953125 737.876953125 296.81640625 752.650390625 330.119140625 782 c 0
 347.36328125 797.197265625 369.923828125 807.844726562 392.119140625 820.025390625 c 0
 445.119140625 838 l 0
 513.119140625 834 l 0
 583.119140625 828 l 0
 605.2265625 822.549804688 625.171875 816.586914062 647.119140625 810 c 0
 674.655273438 801.735351562 675.686523438 787.52734375 702.119140625 772 c 4
 716.446289062 763.583984375 732.276367188 741.059570312 742.119140625 720 c 0
 762.670898438 676.029296875 763.545898438 619.991210938 764.119140625 567 c 0
 764.516601562 530.275390625 753.065429688 468.385742188 742.119140625 434 c 0
 668.650390625 203.205078125 540.627929688 57.3271484375 294.119140625 20.591796875 c 0
 265.46875 16.322265625 100.334960938 15.982421875 103.119140625 54 c 0
 42.119140625 120 l 1025
427.119140625 818 m 0
 429.760742188 803.890625 423.119140625 783.012695312 423.119140625 772 c 0
 423.119140625 744.412109375 416.807617188 748.098632812 416.807617188 725 c 0
 416.462890625 715.801757812 403.754882812 686.321289062 401.119140625 678 c 0
 394.336914062 656.591796875 388.380859375 652.63671875 380.095703125 631 c 0
 376.640625 621.977539062 368.845703125 597.26171875 364.291992188 587 c 0
 358.599609375 574.172851562 356.295898438 563.583984375 348.76171875 543 c 0
 331.8203125 496.712890625 318.639648438 449.559570312 297.291015625 408 c 0
 288.875 391.616210938 282.530273438 372.381835938 273.743164062 357 c 0
 249.037109375 313.750976562 231.96484375 262.564453125 203.3125 228 c 0
 188.219726562 209.79296875 175.674804688 182.71875 164.130859375 162 c 0
 141.55859375 121.489257812 145.46875 119.237304688 124.120117188 84 c 0
 103.119140625 54 l 1025
EndSplineSet
Fore
SplineSet
246.5625 714 m 0
 234.201171875 716.852539062 216.416015625 721.512695312 216.416015625 723.68359375 c 0
 216.416015625 723.795898438 216.463867188 723.901367188 216.5625 724 c 0
 246.5625 746 261.5625 761 291.5625 782 c 0
 330.5625 809 345.5625 837 390.5625 845 c 0
 425.690429688 851.323242188 450.946289062 855.177734375 480.548828125 855.177734375 c 0
 493.08203125 855.177734375 506.393554688 854.487304688 521.5625 853 c 0
 574.5625 847 608.5625 843 659.5625 815 c 0
 671.5625 808 682.5625 801 695.5625 791 c 0
 734.5625 760 752.5625 728 764.5625 702 c 0
 785.5625 654 782.5625 623 784.5625 575 c 0
 784.857421875 568.213867188 785 561.86328125 785 555.822265625 c 0
 785 520.915039062 780.234375 496.361328125 772.5625 458 c 0
 763.5625 411 753.5625 386 735.5625 341 c 0
 720.5625 305 710.5625 284 689.5625 251 c 0
 664.5625 212 650.5625 189 619.5625 156 c 0
 585.5625 120 564.5625 100 523.5625 73 c 0
 489.5625 51 467.5625 42 428.5625 30 c 0
 376.5625 14 345.5625 8 291.5625 2 c 0
 277.311523438 0.458984375 265.13671875 -0.33984375 253.497070312 -0.33984375 c 0
 234.916015625 -0.33984375 217.696289062 1.6962890625 195.5625 6 c 0
 166.5625 12 149.5625 18 120.5625 37 c 0
 81.5625 63 51.5625 102 41.5625 111 c 0
 31.5625 120 24.5625 130 25.5625 133 c 0
 26.5625 136 34.5625 130 44.5625 121 c 0
 78.5625 91 81.5625 90 91.5625 84 c 1
 106.5625 110 115.5625 126 131.5625 153 c 0
 147.5625 180 157.5625 195 173.5625 223 c 0
 199.5625 267 210.5625 292 232.5625 338 c 0
 261.5625 398 277.5625 433 302.5625 495 c 0
 336.5625 579 356.5625 626 382.5625 713 c 0
 393.5625 749 398.5625 773 403.5625 803 c 1
 374.5625 791 358.5625 768 326.5625 746 c 0
 296.5625 725 309.5625 733 279.5625 711 c 0
 278.895507812 710.333007812 276.784179688 710 273.673828125 710 c 0
 267.451171875 710 257.229492188 711.333007812 246.5625 714 c 0
133.5625 60 m 1
 141.5625 56 150.5625 53 162.5625 51 c 0
 192.874023438 45.1064453125 213.96875 37.0849609375 241.96484375 37.0849609375 c 0
 247.21875 37.0849609375 252.715820312 37.3681640625 258.5625 38 c 0
 312.5625 44 341.5625 50 393.5625 66 c 0
 432.5625 78 454.5625 87 488.5625 109 c 0
 529.5625 136 550.5625 156 584.5625 192 c 0
 615.5625 225 629.5625 248 654.5625 287 c 0
 675.5625 320 685.5625 339 700.5625 375 c 0
 718.5625 420 728.5625 445 737.5625 492 c 0
 744.796875 528.172851562 748.154296875 552.069335938 748.154296875 583.9453125 c 0
 748.154296875 591.723632812 747.955078125 599.9765625 747.5625 609 c 0
 745.5625 657 747.5625 675 728.5625 717 c 0
 715.5625 747 704.5625 752 702.5625 754 c 0
 698.5625 757 687.5625 765 677.5625 771 c 0
 633.5625 795 607.5625 812 554.5625 817 c 0
 539.463867188 818.373046875 526.25 819.0390625 513.788085938 819.0390625 c 0
 489.93359375 819.0390625 468.836914062 816.59765625 442.5625 812 c 1
 444.5625 809 445.5625 806 445.5625 805 c 0
 437.5625 755 432.5625 728 417.5625 679 c 0
 391.5625 592 371.5625 545 337.5625 461 c 0
 312.5625 399 296.5625 364 267.5625 304 c 0
 245.5625 258 235.5625 233 209.5625 189 c 0
 193.5625 161 182.5625 146 166.5625 119 c 0
 152.5625 94 146.5625 82 133.5625 60 c 1
EndSplineSet
Validated: 524289
EndChar

StartChar: E
Encoding: 69 69 30
Width: 687
VWidth: 0
Flags: W
HStem: 3.21777 48.8584<256.578 438.409> 801.362 36.5586<484.41 605.778>
VStem: 68.9375 46.8359<175.196 306>
LayerCount: 2
Back
SplineSet
40.548828125 292 m 0
 124.85546875 313.654296875 211.268554688 326.767578125 292.548828125 361 c 0
 370.069335938 377.814453125 441.491210938 418.626953125 520.548828125 427 c 1024
670.548828125 778 m 0
 643.7265625 808.291992188 612.749023438 812.46875 580.548828125 817 c 0
 566.876953125 818.923828125 551.064453125 820 535.548828125 820 c 0
 516.999023438 822.092773438 501.026367188 812.583984375 484.548828125 808 c 0
 451.563476562 793.92578125 418.403320312 782.163085938 388.548828125 760 c 0
 366.499023438 749.212890625 349.32421875 727.09765625 331.548828125 706 c 0
 311.177734375 681.989257812 285.37890625 664.059570312 262.548828125 640 c 0
 227.827148438 594.6796875 184.774414062 554.98046875 166.548828125 499 c 0
 138.267578125 451.815429688 120.517578125 404.84765625 103.548828125 355 c 0
 92.3271484375 328.475585938 89.611328125 298.993164062 82.548828125 271 c 0
 79.275390625 258.022460938 82.548828125 239.484375 82.548828125 226 c 0
 82.044921875 211.495117188 82.4033203125 197.853515625 85.548828125 187 c 0
 99.1103515625 148.326171875 108.047851562 100.083007812 139.548828125 76 c 0
 163.90625 51.154296875 186.715820312 26.5244140625 217.548828125 13 c 0
 252.833984375 0.744140625 286.3984375 -16.931640625 325.548828125 -17 c 0
 452.07421875 -17.2197265625 509.541992188 73.1123046875 610.548828125 136 c 0
 646.548828125 172 l 1025
EndSplineSet
Fore
SplineSet
661.974609375 758 m 0
 661.991210938 757.864257812 662 757.731445312 662 757.599609375 c 0
 662 753.09765625 652.22265625 750.943359375 643.397460938 750.943359375 c 0
 637.262695312 750.943359375 631.586914062 751.984375 629.974609375 754 c 0
 611.974609375 781 620.974609375 776 588.974609375 792 c 0
 576.8203125 798.302734375 564.666015625 801.362304688 551.416992188 801.362304688 c 0
 535.234375 801.362304688 517.41796875 796.796875 495.974609375 788 c 0
 458.974609375 773 433.974609375 768 401.974609375 743 c 0
 338.974609375 693 302.974609375 663 254.974609375 599 c 0
 204.974609375 533 179.974609375 492 149.974609375 416 c 0
 141.974609375 396 135.974609375 380 130.974609375 363 c 1
 179.974609375 376 225.974609375 387 285.974609375 404 c 0
 370.974609375 428 418.974609375 445 503.974609375 470 c 0
 506.974609375 471 516.974609375 463 528.974609375 456 c 0
 540.974609375 450 552.974609375 440 549.974609375 439 c 0
 464.974609375 414 404.974609375 394 319.974609375 370 c 0
 240.974609375 348 187.974609375 335 118.974609375 318 c 1
 116.813476562 305.033203125 115.7734375 292.065429688 115.7734375 278.453125 c 0
 115.7734375 260.571289062 117.568359375 241.575195312 120.974609375 220 c 0
 127.974609375 177 144.974609375 168 163.974609375 138 c 0
 186.974609375 116 l 0
 207.974609375 100 188.974609375 114 219.974609375 91 c 1
 252.974609375 72 259.974609375 66 300.974609375 58 c 0
 318.884765625 54.744140625 333.848632812 52.076171875 348.905273438 52.076171875 c 0
 361.590820312 52.076171875 374.341796875 53.9697265625 388.974609375 59 c 0
 427.974609375 72 435.974609375 69 468.974609375 89 c 0
 505.974609375 112 525.974609375 127 559.974609375 154 c 0
 581.974609375 171 567.974609375 158 589.974609375 176 c 0
 591.974609375 178 605.974609375 181 618.974609375 178 c 0
 634.974609375 174 644.974609375 169 642.974609375 167 c 0
 620.974609375 149 609.974609375 139 587.974609375 122 c 0
 553.974609375 95 536.974609375 76 499.974609375 53 c 0
 466.974609375 33 448.974609375 21 410.974609375 11 c 0
 391.708984375 5.74609375 376.534179688 3.2177734375 360.473632812 3.2177734375 c 0
 349.024414062 3.2177734375 337.125 4.5029296875 322.974609375 7 c 0
 280.974609375 15 255.974609375 22 216.974609375 45 c 0
 182.974609375 64 143.974609375 93 113.974609375 138 c 0
 87.6552734375 176.017578125 68.9375 204.532226562 68.9375 247.62890625 c 0
 68.9375 248.743164062 68.94921875 249.866210938 68.974609375 251 c 0
 68.974609375 271 70.974609375 289 72.974609375 306 c 1
 69.974609375 305 67.974609375 305 64.974609375 304 c 0
 61.974609375 303 50.974609375 310 41.974609375 319 c 0
 32.974609375 328 22.974609375 335 25.974609375 336 c 0
 45.974609375 341 63.974609375 346 80.974609375 350 c 1
 88.974609375 381 99.974609375 411 114.974609375 449 c 0
 144.974609375 525 168.974609375 566 219.974609375 632 c 0
 268.974609375 696 303.974609375 727 366.974609375 777 c 0
 398.974609375 802 422.974609375 811 461.974609375 822 c 0
 491.569335938 830.56640625 523.588867188 837.920898438 555.202148438 837.920898438 c 0
 564.180664062 837.920898438 573.126953125 837.327148438 581.974609375 836 c 0
 622.974609375 830 635.974609375 828 653.974609375 800 c 0
 659.974609375 791 659.974609375 769 661.974609375 758 c 0
EndSplineSet
Validated: 524289
EndChar

StartChar: F
Encoding: 70 70 31
Width: 796
VWidth: 0
Flags: W
HStem: 420 36<140.609 190.372> 757 35<264.099 340.855> 776 35<397.732 653.612> 791.932 35<532.989 760.025>
LayerCount: 2
Back
SplineSet
116.120117188 429 m 0
 253.530273438 437.856445312 390.322265625 464.512695312 528.120117188 459 c 1024
199.120117188 798 m 0
 308.211914062 809.19921875 416.481445312 806 526.120117188 806 c 0
 578.93359375 806 654.932617188 798.263671875 691.120117188 793 c 1024
380.120117188 792 m 0
 366.64453125 736.471679688 331.8828125 671.307617188 308.120117188 620 c 0
 251.591796875 497.948242188 195.951171875 374.583984375 140.120117188 252 c 0
 74.1201171875 112 l 0
 42.1201171875 42 l 1025
EndSplineSet
Fore
SplineSet
260.606445312 774 m 0xc0
 251.606445312 784 246.606445312 792 249.606445312 792 c 0xc0
 303.606445312 798 330.606445312 803 360.606445312 806 c 0
 360.606445312 807 361.606445312 806 361.606445312 807 c 0
 362.606445312 808 364.606445312 808 367.606445312 806 c 0
 390.606445312 808 414.606445312 810 453.606445312 811 c 0xa0
 528.606445312 814 599.606445312 821 674.606445312 826 c 0
 682.733398438 826.739257812 690.177734375 826.931640625 697.443359375 826.931640625 c 0x90
 705.391601562 826.931640625 713.126953125 826.701171875 721.30859375 826.701171875 c 0
 725.895507812 826.701171875 730.622070312 826.7734375 735.606445312 827 c 0
 739.606445312 827 750.606445312 820 759.606445312 810 c 0
 768.606445312 800 773.606445312 792 769.606445312 792 c 0xc0
 764.622070312 791.7734375 759.946289062 791.701171875 755.438476562 791.701171875 c 0
 747.399414062 791.701171875 739.895507812 791.931640625 732.135742188 791.931640625 c 0x90
 725.041015625 791.931640625 717.733398438 791.739257812 709.606445312 791 c 0
 634.606445312 786 562.606445312 779 487.606445312 776 c 0xa0
 445.606445312 774 420.606445312 772 396.606445312 770 c 1
 356.606445312 685 329.606445312 615 291.606445312 529 c 0
 281.606445312 506 271.606445312 484 262.606445312 465 c 1
 283.606445312 467 305.606445312 469 330.606445312 471 c 0
 412.606445312 478 454.606445312 479 536.606445312 488 c 0
 539.606445312 488 550.606445312 481 559.606445312 471 c 0
 568.606445312 461 573.606445312 452 570.606445312 452 c 0
 488.606445312 443 446.606445312 442 364.606445312 435 c 0
 318.606445312 431 281.606445312 428 243.606445312 425 c 1
 222.606445312 380 202.606445312 338 177.606445312 280 c 0
 133.606445312 179 108.606445312 123 60.6064453125 23 c 0
 59.6064453125 20 50.6064453125 26 40.6064453125 35 c 0
 30.6064453125 44 23.6064453125 54 24.6064453125 57 c 0
 72.6064453125 157 97.6064453125 213 141.606445312 314 c 0
 159.606445312 355 175.606445312 389 190.606445312 421 c 1
 182.606445312 421 173.606445312 420 164.606445312 420 c 0
 160.606445312 420 149.606445312 428 140.606445312 438 c 0
 131.606445312 448 126.606445312 456 130.606445312 456 c 0
 159.606445312 457 184.606445312 459 208.606445312 461 c 1
 223.606445312 492 238.606445312 523 255.606445312 563 c 0
 287.606445312 635 310.606445312 696 341.606445312 764 c 1
 325.606445312 762 307.606445312 760 284.606445312 757 c 0
 281.606445312 757 269.606445312 764 260.606445312 774 c 0xc0
EndSplineSet
Validated: 524289
EndChar

StartChar: G
Encoding: 71 71 32
Width: 705
VWidth: 0
Flags: W
HStem: 0.823242 38.1074<149.194 302.035> 755 39.4443<474.145 638.001>
VStem: 24.542 43.0664<111.601 286.873> 480.645 41.2217<171.171 248.306> 626.645 36<685.98 738.533> 636.645 43<675.764 739>
LayerCount: 2
Back
SplineSet
212.228515625 324 m 0
 280.43359375 355.045898438 422.815429688 361.946289062 507.139648438 394 c 1024
605.749023438 691 m 0
 648.576171875 694.767578125 650.291992188 728.869140625 653.749023438 755 c 0
 653.749023438 775.602539062 576.592773438 779 563.749023438 779 c 0
 341.15625 779 47.7490234375 405.94140625 47.7490234375 199 c 0
 47.7490234375 110.151367188 137.90625 55 217.749023438 55 c 0
 334.287109375 55 497.749023438 150.104492188 497.749023438 277 c 0
 497.749023438 298.159179688 468.08203125 299.282226562 453.749023438 307 c 0
 414.749023438 328 424.749023438 316 384.749023438 352 c 1024
EndSplineSet
Fore
SplineSet
636.64453125 696 m 0xf4
 629.64453125 704 632.64453125 701 629.64453125 704 c 0
 625.64453125 709 625.64453125 705 626.64453125 717 c 0xf8
 627.64453125 727 633.64453125 735 636.64453125 748 c 0
 636.64453125 750 638.64453125 755 638.64453125 755 c 1
 632.64453125 755 627.64453125 756 621.64453125 756 c 0
 602.219726562 756.86328125 586.334960938 758.099609375 571.095703125 758.099609375 c 0
 551.030273438 758.099609375 532.083007812 755.95703125 507.64453125 748 c 0
 457.64453125 732 432.64453125 714 388.64453125 684 c 0
 336.64453125 646 309.64453125 622 264.64453125 575 c 0
 223.64453125 532 205.64453125 503 173.64453125 453 c 0
 137.64453125 395 117.64453125 362 92.64453125 298 c 0
 74.64453125 251 68.64453125 222 67.64453125 171 c 0
 67.6201171875 169.962890625 67.6083984375 168.943359375 67.6083984375 167.939453125 c 0
 67.6083984375 127.315429688 87.1025390625 113.276367188 105.64453125 84 c 0
 106.64453125 82 120.64453125 66 135.64453125 60 c 0
 164.254882812 48.5556640625 177.403320312 38.9306640625 208.049804688 38.9306640625 c 0
 209.5390625 38.9306640625 211.069335938 38.9541015625 212.64453125 39 c 0
 247.64453125 40 272.64453125 46 305.64453125 59 c 0
 342.64453125 74 363.64453125 83 396.64453125 106 c 0
 422.64453125 125 439.64453125 140 457.64453125 167 c 0
 476.64453125 196 480.64453125 196 480.64453125 231 c 0
 480.64453125 237 471.64453125 243 471.64453125 243 c 0
 467.64453125 247 461.64453125 254 449.64453125 261 c 0
 425.64453125 274 415.64453125 287 394.64453125 300 c 0
 389.64453125 303 375.64453125 313 365.64453125 322 c 0
 364.64453125 322 364.64453125 321 363.64453125 321 c 0
 309.64453125 308 292.64453125 302 238.64453125 287 c 0
 238.47265625 286.942382812 238.267578125 286.915039062 238.03125 286.915039062 c 0
 234.155273438 286.915039062 221.956054688 294.401367188 210.64453125 301 c 0
 198.426757812 307.578125 177.377929688 314.157226562 177.377929688 315.755859375 c 0
 177.377929688 315.857421875 177.463867188 315.939453125 177.64453125 316 c 0
 231.64453125 331 274.64453125 346 328.64453125 359 c 0
 391.64453125 374 406.64453125 375 471.64453125 388 c 0
 471.817382812 388.057617188 472.033203125 388.084960938 472.288085938 388.084960938 c 0
 476.466796875 388.084960938 491.220703125 380.654296875 500.64453125 375 c 0
 511.744140625 368.525390625 527.9765625 356.91796875 527.9765625 354.419921875 c 0
 527.9765625 354.217773438 527.869140625 354.075195312 527.64453125 354 c 0
 483.64453125 345 452.64453125 340 417.64453125 333 c 1
 422.64453125 329 426.64453125 326 437.64453125 320 c 0
 444.64453125 316 460.64453125 307 495.64453125 271 c 0
 516.977539062 249 521.866210938 235.888671875 521.866210938 226.333007812 c 0
 521.866210938 221.555664062 520.64453125 217.666992188 519.64453125 214 c 0
 512.64453125 179 505.64453125 160 486.64453125 131 c 0
 468.64453125 104 452.64453125 90 425.64453125 71 c 0
 392.64453125 48 372.64453125 37 335.64453125 22 c 0
 301.64453125 9 282.64453125 2 246.64453125 1 c 0
 242.732421875 0.884765625 238.978515625 0.8232421875 235.348632812 0.8232421875 c 0
 207.435546875 0.8232421875 186.846679688 4.49609375 157.64453125 16 c 0
 136.64453125 25 91.64453125 39 55.64453125 94 c 0
 31.392578125 133.176757812 24.5419921875 160.171875 24.5419921875 198.521484375 c 0
 24.5419921875 201.286132812 24.5771484375 204.109375 24.64453125 207 c 0
 25.64453125 259 37.64453125 287 55.64453125 334 c 0
 81.64453125 398 100.64453125 432 136.64453125 490 c 0
 168.64453125 540 187.64453125 569 228.64453125 612 c 0
 273.64453125 659 301.64453125 683 353.64453125 721 c 0
 397.64453125 751 422.64453125 770 472.64453125 786 c 0
 497.083007812 793.95703125 516.353515625 796.099609375 536.697265625 796.099609375 c 0
 552.1484375 796.099609375 568.219726562 794.86328125 587.64453125 794 c 0
 588.76171875 793.94140625 589.862304688 793.916992188 590.951171875 793.916992188 c 0
 596.029296875 793.916992188 600.846679688 794.444335938 605.940429688 794.444335938 c 0
 618.311523438 794.444335938 632.311523438 791.333007812 655.64453125 770 c 0
 678.64453125 749 679.64453125 739 679.64453125 739 c 1xf4
 681.64453125 729 674.64453125 721 672.64453125 712 c 0
 669.64453125 700 672.64453125 690 662.64453125 680 c 0xf8
 651.64453125 669 665.64453125 683 655.64453125 673 c 0
 654.64453125 672 643.64453125 687 636.64453125 696 c 0xf4
EndSplineSet
Validated: 524289
EndChar

StartChar: H
Encoding: 72 72 33
Width: 774
VWidth: 0
Flags: W
HStem: 430.673 40.1826<212.905 580.337>
VStem: 25.9053 44<-6.51778 61.8904>
LayerCount: 2
Back
SplineSet
198.936523438 438 m 4
 233.151367188 430.381835938 268.411132812 440.627929688 302.936523438 434 c 4
 337.48828125 433.193359375 370.98828125 428.594726562 404.936523438 420 c 4
 441.525390625 420.296875 475.12109375 405.6171875 512.936523438 408 c 4
 530.293945312 409.09375 549.668945312 404 568.936523438 404 c 4
 574.936523438 404 l 4
 586.936523438 410 l 1029
697.936523438 712 m 5
 626.936523438 522 l 4
 588.454101562 393.658203125 525.075195312 279.999023438 482.936523438 154 c 4
 480.25 145.967773438 447.936523438 58 447.936523438 58 c 4
 421.936523438 0 l 1029
312.2578125 746 m 5
 179.979492188 394 l 4
 79.9365234375 146 l 4
 23.9365234375 0 l 1029
EndSplineSet
Fore
SplineSet
301.905273438 868 m 0
 312.905273438 857 321.905273438 851 320.905273438 848 c 0
 286.905273438 727 267.905273438 659 232.905273438 538 c 0
 225.905273438 513 218.905273438 490 212.905273438 469 c 1
 255.6796875 469.689453125 287.981445312 470.85546875 325.903320312 470.85546875 c 0
 342.948242188 470.85546875 361.12890625 470.620117188 381.905273438 470 c 0
 464.905273438 467 511.905273438 462 593.905273438 457 c 1
 601.905273438 485 609.905273438 515 620.905273438 551 c 0
 657.905273438 676 673.905273438 747 707.905273438 873 c 0
 708.905273438 876 720.905273438 864 731.905273438 853 c 0
 742.905273438 842 749.905273438 835 748.905273438 832 c 0
 714.905273438 706 701.905273438 638 663.905273438 513 c 0
 652.905273438 478 643.905273438 449 635.905273438 421 c 0
 636.905273438 418 636.905273438 417 634.905273438 417 c 0
 620.905273438 371 608.905273438 329 590.905273438 270 c 0
 562.905273438 181 550.905273438 129 524.905273438 40 c 0
 517.905273438 18 514.905273438 5 507.905273438 -17 c 0
 506.905273438 -20 496.905273438 -8 485.905273438 2 c 0
 474.905273438 12 465.905273438 21 466.905273438 24 c 0
 473.905273438 46 476.905273438 56 482.905273438 78 c 0
 508.905273438 167 519.905273438 219 547.905273438 308 c 0
 561.905273438 352 572.905273438 387 582.905273438 421 c 1
 527.905273438 425 485.905273438 428 420.905273438 430 c 0
 403.831054688 430.481445312 386.352539062 430.672851562 368.663085938 430.672851562 c 0
 312.794921875 430.672851562 254.831054688 428.759765625 200.905273438 428 c 1
 181.905273438 364 165.905273438 307 141.905273438 227 c 0
 114.905273438 136 97.9052734375 84 69.9052734375 -8 c 0
 64.9052734375 -24 71.9052734375 -8 65.9052734375 -22 c 0
 65.822265625 -22.2509765625 65.6474609375 -22.3681640625 65.3916015625 -22.3681640625 c 0
 62.5869140625 -22.3681640625 49.986328125 -8.1650390625 39.9052734375 1 c 0
 28.9052734375 11 25.9052734375 16 25.9052734375 19 c 0
 26.9052734375 27 22.9052734375 15 27.9052734375 30 c 0
 56.9052734375 122 72.9052734375 174 99.9052734375 265 c 0
 135.905273438 387 155.905273438 455 190.905273438 576 c 0
 225.905273438 697 244.905273438 767 278.905273438 888 c 0
 279.905273438 891 290.905273438 879 301.905273438 868 c 0
EndSplineSet
Validated: 524289
EndChar

StartChar: I
Encoding: 73 73 34
Width: 762
VWidth: 0
Flags: W
HStem: -11 38<39.6161 229.784> 11 38<385.695 575.261> 754 35<209.632 348.394> 759 34<234.578 444.619 490.445 549.384>
LayerCount: 2
Back
SplineSet
28.1396484375 -8 m 5
 202.139648438 -8 l 4
 550.139648438 -10 l 1029
462.139648438 760 m 4
 463.981445312 734.198242188 455.559570312 717.403320312 454.139648438 694 c 4
 453.6640625 686.165039062 452.139648438 693.41796875 452.139648438 688 c 4
 452.139648438 682.666992188 450.139648438 677.333007812 450.139648438 672 c 4
 433.481445312 633.836914062 423.287109375 593.318359375 412.139648438 550 c 4
 408.135742188 534.44140625 404.139648438 515.181640625 404.139648438 502 c 4
 404.139648438 496.666992188 402.139648438 491.333007812 402.139648438 486 c 4
 399.567382812 477.840820312 393.975585938 468.2890625 390.139648438 456 c 4
 387.260742188 446.77734375 380.139648438 433.310546875 380.139648438 424 c 4
 377.435546875 415.154296875 378.13671875 408.08984375 376.139648438 402 c 4
 372.1640625 389.875 370.139648438 377.211914062 370.139648438 364 c 4
 369.067382812 354.606445312 365.897460938 346.73046875 362.139648438 338 c 4
 357.513671875 327.25390625 354.139648438 315.189453125 354.139648438 302 c 4
 354.139648438 289.166992188 340.139648438 274.34375 340.139648438 262 c 4
 340.139648438 257.333007812 338.139648438 252.666992188 338.139648438 248 c 4
 338.139648438 245.209960938 332.139648438 231.096679688 332.139648438 228 c 4
 332.139648438 223.333007812 330.139648438 218.666992188 330.139648438 214 c 4
 330.139648438 208.671875 324.139648438 204.217773438 324.139648438 198 c 4
 324.139648438 193.333007812 322.139648438 188.666992188 322.139648438 184 c 4
 317.03125 174.498046875 315.317382812 162.516601562 314.139648438 148 c 4
 307.698242188 130.072265625 310.247070312 109.380859375 306.139648438 88 c 4
 299.536132812 53.623046875 293.244140625 33.0966796875 286.139648438 6 c 4
 282.139648438 2 l 1029
226.139648438 788 m 5
 342.139648438 786 l 4
 460.139648438 782 l 4
 562.139648438 786 l 4
 622.139648438 790 l 4
 668.139648438 788 l 4
 674.139648438 786 l 4
 734.139648438 784 l 1029
EndSplineSet
Fore
SplineSet
206.619140625 770 m 0x20
 197.619140625 779 192.619140625 789 196.619140625 789 c 0x20
 288.619140625 790 260.619140625 789 352.619140625 793 c 0
 457.619140625 798 595.619140625 801 700.619140625 807 c 0
 704.619140625 807 714.619140625 800 724.619140625 791 c 0
 734.619140625 782 739.619140625 774 735.619140625 774 c 0
 640.619140625 768 583.619140625 765 494.619140625 761 c 1
 464.619140625 626 441.619140625 520 408.619140625 384 c 0
 381.619140625 272 367.619140625 208 339.619140625 97 c 0
 334.619140625 75 330.619140625 59 325.619140625 41 c 1
 407.619140625 44 461.619140625 45 552.619140625 49 c 0
 556.619140625 49 567.619140625 37 577.619140625 28 c 0
 587.619140625 19 591.619140625 11 587.619140625 11 c 0x50
 484.619140625 7 426.619140625 3 323.619140625 -1 c 0
 222.619140625 -5 165.619140625 -7 64.619140625 -11 c 0
 60.619140625 -11 49.619140625 -4 39.619140625 5 c 0
 29.619140625 14 22.619140625 27 26.619140625 27 c 0
 120.619140625 31 180.619140625 35 269.619140625 39 c 1
 276.619140625 69 286.619140625 102 293.619140625 130 c 0
 322.619140625 241 340.619140625 304 367.619140625 416 c 0
 399.619140625 547 416.619140625 632 444.619140625 759 c 1x90
 365.619140625 756 315.619140625 755 230.619140625 754 c 0
 226.619140625 754 215.619140625 761 206.619140625 770 c 0x20
EndSplineSet
Validated: 524289
EndChar

StartChar: J
Encoding: 74 74 35
Width: 750
VWidth: 0
Flags: W
HStem: 3.87402 44.0762<147.352 241.044> 756 36<214.519 462.371 504.371 707.927>
VStem: 25.0986 38.2725<121.103 214.563>
LayerCount: 2
Back
SplineSet
486.061523438 754 m 4
 477.147460938 737.1953125 478.303710938 732.223632812 474.061523438 724 c 4
 470.825195312 717.725585938 466.061523438 707.219726562 466.061523438 696 c 4
 466.061523438 695.998046875 460.061523438 684.534179688 460.061523438 684 c 4
 460.061523438 667.421875 450.061523438 658.16796875 450.061523438 642 c 4
 450.061523438 641.998046875 444.061523438 632.20703125 444.061523438 632 c 4
 444.061523438 626.666992188 442.061523438 621.333007812 442.061523438 616 c 4
 442.061523438 606.698242188 430.061523438 591.674804688 430.061523438 578 c 4
 430.061523438 578 424.061523438 565.9375 424.061523438 564 c 4
 424.061523438 559.333007812 422.061523438 554.666992188 422.061523438 550 c 4
 422.061523438 544.06640625 412.061523438 531.524414062 412.061523438 526 c 4
 412.061523438 521.333007812 410.061523438 516.666992188 410.061523438 512 c 4
 410.061523438 502.022460938 396.061523438 479.66796875 396.061523438 472 c 4
 396.061523438 466.829101562 392.061523438 457.438476562 392.061523438 456 c 4
 392.061523438 450.686523438 388.061523438 441.549804688 388.061523438 440 c 4
 388.061523438 434.666992188 386.061523438 429.333007812 386.061523438 424 c 4
 386.061523438 403.721679688 356.061523438 377.092773438 356.061523438 356 c 4
 356.061523438 345.473632812 348.061523438 336.82421875 348.061523438 330 c 4
 347.854492188 322.666992188 344.8515625 315.333007812 346.061523438 308 c 4
 348.184570312 295.135742188 338.061523438 282.171875 338.061523438 268 c 4
 327.116210938 243.293945312 319.864257812 217.337890625 310.061523438 192 c 4
 307.426757812 185.188476562 306.061523438 174.615234375 306.061523438 166 c 4
 306.061523438 164.22265625 300.061523438 154.317382812 300.061523438 152 c 4
 300.061523438 147.333007812 298.061523438 142.666992188 298.061523438 138 c 4
 292.0859375 132.688476562 292.775390625 119.827148438 288.061523438 114 c 4
 271.939453125 59.3515625 243.120117188 10.6181640625 180.061523438 12 c 4
 155.549804688 8.513671875 142.732421875 18.3896484375 128.061523438 28 c 4
 116.045898438 40.57421875 101.15625 45.373046875 86.0615234375 56 c 4
 72.064453125 65.8544921875 44.0615234375 85.8427734375 44.0615234375 106 c 4
 44.0615234375 110.666992188 42.0615234375 115.333007812 42.0615234375 120 c 4
 33.3466796875 130.680664062 36.7763671875 146.09765625 36.0615234375 164 c 4
 36.3642578125 178.573242188 34.0068359375 193.33984375 42.0615234375 202 c 1028
209.061523438 762 m 4
 247.478515625 759.641601562 253.8125 759.040039062 283.061523438 759 c 4
 350.061523438 758 l 4
 546.061523438 762 l 4
 660.061523438 762 l 4
 681.061523438 762 l 4
 703.061523438 764 l 1029
EndSplineSet
Fore
SplineSet
210.37109375 778 m 0
 201.37109375 787 187.37109375 795 191.37109375 795 c 0
 258.37109375 794 305.37109375 794 372.37109375 793 c 0
 440.37109375 792 477.37109375 792 545.37109375 792 c 0
 599.37109375 792 624.37109375 794 678.37109375 795 c 0
 682.37109375 795 690.37109375 789 702.37109375 779 c 0
 712.37109375 770 728.37109375 758 724.37109375 758 c 0
 670.37109375 757 632.37109375 756 578.37109375 756 c 0
 550.37109375 756 526.37109375 756 504.37109375 756 c 1
 505.37109375 754 506.37109375 752 506.37109375 751 c 0
 490.37109375 702 483.37109375 674 467.37109375 625 c 0
 453.37109375 580 444.37109375 554 430.37109375 509 c 0
 416.37109375 464 411.37109375 437 397.37109375 391 c 0
 383.37109375 346 375.37109375 320 361.37109375 275 c 0
 345.37109375 224 338.37109375 193 322.37109375 142 c 0
 315.37109375 120 311.37109375 108 302.37109375 86 c 0
 295.37109375 70 292.37109375 59 282.37109375 44 c 0
 273.37109375 32 269.37109375 24 255.37109375 17 c 0
 238.892578125 8.7607421875 227.442382812 3.8740234375 209.51171875 3.8740234375 c 0
 207.856445312 3.8740234375 206.145507812 3.9150390625 204.37109375 4 c 0
 184.37109375 5 170.37109375 14 154.37109375 22 c 0
 135.37109375 32 119.37109375 36 88.37109375 66 c 0
 64.37109375 89 46.37109375 111 34.37109375 136 c 0
 24.37109375 156 26.37109375 167 25.37109375 185 c 0
 25.1796875 188.247070312 25.0986328125 191.274414062 25.0986328125 194.166992188 c 0
 25.0986328125 206.420898438 26.5615234375 216.247070312 27.37109375 230 c 0
 27.37109375 234 39.37109375 219 49.37109375 210 c 0
 59.37109375 201 63.37109375 195 63.37109375 191 c 0
 63.1796875 187.752929688 63.0986328125 184.944335938 63.0986328125 182.40625 c 0
 63.0986328125 171.65234375 64.5615234375 165.752929688 65.37109375 152 c 0
 66.37109375 134 81.37109375 123 90.37109375 112 c 0
 105.37109375 94 105.37109375 96 117.37109375 85 c 0
 122.37109375 81 128.37109375 73 152.37109375 61 c 0
 171.37109375 51 170.37109375 50 189.37109375 49 c 0
 198.00390625 48.568359375 201.606445312 47.9501953125 204.440429688 47.9501953125 c 0
 208.171875 47.9501953125 210.572265625 49.021484375 221.37109375 53 c 0
 235.37109375 58 239.37109375 68 248.37109375 80 c 0
 258.37109375 95 260.37109375 105 267.37109375 121 c 0
 276.37109375 143 280.37109375 155 287.37109375 177 c 0
 303.37109375 228 310.37109375 259 326.37109375 310 c 0
 340.37109375 355 348.37109375 381 362.37109375 426 c 0
 376.37109375 472 381.37109375 499 395.37109375 544 c 0
 409.37109375 589 418.37109375 615 432.37109375 660 c 0
 444.37109375 699 452.37109375 723 462.37109375 756 c 1
 445.37109375 756 426.37109375 757 405.37109375 757 c 0
 338.37109375 758 300.37109375 759 233.37109375 760 c 0
 229.37109375 760 220.37109375 768 210.37109375 778 c 0
EndSplineSet
Validated: 524289
EndChar

StartChar: K
Encoding: 75 75 36
Width: 721
VWidth: 0
Flags: W
HStem: -3.31706 21G<66.5342 67.7202>
VStem: 24.9492 71.0508<24.546 111.953> 406 52<13 87.226>
LayerCount: 2
Back
SplineSet
232.328125 388 m 0
 274.270507812 360.50390625 304.8984375 322.928710938 332.328125 282 c 0
 344.4609375 260.950195312 347.518554688 236.87109375 356.328125 214 c 0
 360.125976562 204.140625 365.408203125 194.172851562 364.328125 182 c 0
 380.328125 132 l 0
 394.328125 86 l 0
 400.328125 42 l 0
 404.328125 22 l 1025
246.328125 404 m 0
 285.965820312 413.478515625 317.6953125 435.208984375 350.328125 458 c 0
 407.84375 489.223632812 459.970703125 527.603515625 514.328125 562 c 0
 540.736328125 581.122070312 565.090820312 592.627929688 588.328125 612 c 0
 602.307617188 620.306640625 608.977539062 626.93359375 622.328125 638 c 0
 636.674804688 649.891601562 668.328125 672 668.328125 672 c 1025
436.328125 790 m 0
 381.709960938 806.603515625 439.892578125 751.907226562 422.328125 770 c 0
 400.328125 728 l 0
 382.328125 684 l 0
 368.328125 644 l 0
 364.005859375 631.2109375 356.416015625 619.537109375 352.328125 606 c 0
 336.314453125 576.6484375 326.626953125 552.3046875 308.328125 528 c 0
 294.815429688 510.051757812 285.83984375 498.23046875 270.328125 478 c 0
 248.328125 436 l 0
 222.328125 390 l 0
 190.328125 332 l 0
 174.328125 292 l 0
 146.328125 232 l 0
 118.328125 188 l 0
 86.328125 120 l 0
 60.328125 64 l 0
 57.140625 55.9765625 49.4873046875 50.9248046875 48.328125 40 c 0
 45.4375 12.734375 28.328125 8 28.328125 8 c 1025
EndSplineSet
Fore
SplineSet
402 868 m 0
 413 858 421 848 420 845 c 0
 396 781 391 755 366 692 c 0
 344 637 331 605 306 551 c 0
 293 524 282 503 272 482 c 1
 281 487 290 493 301 500 c 0
 338 523 366 533 401 560 c 0
 431 583 458 598 488 622 c 0
 516 645 527 655 554 676 c 0
 587 702 600 711 625 732 c 0
 645 750 649 744 668 762 c 0
 670 764 667 762 681 758 c 0
 698 754 697 752 695 750 c 0
 676 732 664 723 644 705 c 0
 619 684 606 671 581 650 c 0
 553 627 540 616 512 593 c 0
 482 569 465 554 435 531 c 0
 400 505 378 492 341 469 c 0
 310 449 290 440 257 421 c 0
 255 420 254 417 245 424 c 1
 244 422 242 419 241 417 c 0
 243 416 l 0
 264 394 299 367 329 324 c 0
 358 283 366 258 386 216 c 0
 404 179 411 156 425 119 c 0
 440 80 446 59 458 21 c 0
 460 16 454 13 437 13 c 0
 423 13 407 8 406 13 c 0
 397 52 385 102 370 140 c 0
 356 177 354 196 337 231 c 0
 317 274 308 301 284 335 c 0
 265 363 263 374 236 405 c 1
 235 403 235 402 234 400 c 0
 213 353 206 324 186 276 c 0
 165 224 151 195 129 144 c 0
 109 99 115 115 96 71 c 0
 87 50 76 18 68 -3 c 0
 67.9283144414 -3.21505667587 67.8052406896 -3.31705932681 67.6351992943 -3.31705932681 c 0
 65.4331953489 -3.31705932681 55.3548299724 13.7885411449 47 24 c 0
 38.3069805215 35.590692638 24.9492334101 50.9131673823 24.9492334101 54.6483207002 c 0
 24.9492334101 54.7802218557 24.9658910532 54.8976731595 25 55 c 0
 33 76 35 87 45 108 c 0
 65 152 57 136 77 181 c 0
 100 232 114 258 135 310 c 0
 155 358 172 388 193 435 c 0
 219 495 238 527 265 587 c 0
 290 641 303 676 325 731 c 0
 350 794 360 816 384 880 c 0
 385 883 391 878 402 868 c 0
EndSplineSet
Validated: 524289
EndChar

StartChar: L
Encoding: 76 76 37
Width: 658
VWidth: 0
Flags: W
HStem: 0 21G<33.7944 57> 10 36<107 522.121 523.592 623.688>
LayerCount: 2
Back
SplineSet
469.083984375 906 m 5
 393.083984375 706 l 0
 376.110351562 666.627929688 370.265625 624.76953125 353.083984375 586 c 0
 329.205078125 534.45703125 321.768554688 476.25 291.083984375 430 c 0
 274.758789062 404.044921875 263.112304688 375.232421875 247.083984375 350 c 0
 225.844726562 301.216796875 192.525390625 256.830078125 177.083984375 208 c 0
 154.436523438 150.340820312 133.196289062 89.3056640625 87.083984375 50 c 0
 76.53515625 32.0166015625 15.396484375 -21.8515625 53.083984375 -2 c 0
 56.939453125 0.0302734375 117.083984375 0 117.083984375 0 c 0
 209.083984375 0 l 0
 261.083984375 6 l 0
 376.083984375 6 l 0
 410.525390625 2.2451171875 440.17578125 14.7421875 473.083984375 7 c 0
 512.016601562 -2.1591796875 540.083984375 13 577.083984375 12 c 1024
EndSplineSet
Fore
SplineSet
449 860 m 0x80
 459 851 462 845 461 842 c 0
 436 776 444 803 420 737 c 0
 390 655 375 610 342 529 c 0
 316 465 305 428 276 365 c 0
 252 312 235 281 209 229 c 0
 188 186 175 157 148 118 c 0
 131 94 121 70 107 48 c 1
 325 46 l 0
 357.666666667 46 381 44.6666666667 407.444444444 44.6666666667 c 0
 420.666666667 44.6666666667 434.666666667 45 451 46 c 0
 462.288018793 46.8062870566 475.165168029 47.0347084975 488.757837272 47.0347084975 c 0
 506.528098261 47.0347084975 525.521284455 46.6443038481 543.785372605 46.6443038481 c 0
 563.5313875 46.6443038481 582.425188004 47.1006326834 598 49 c 0
 601 49 612 42 621 32 c 0
 630 22 635 13 632 13 c 0
 616.425188004 11.1006326834 597.5313875 10.6443038481 577.785372605 10.6443038481 c 0
 559.521284455 10.6443038481 540.528098261 11.0347084975 522.757837272 11.0347084975 c 0
 509.165168029 11.0347084975 496.288018793 10.8062870566 485 10 c 0
 468.666666667 8.66666666667 454.666666667 8.22222222222 441.444444444 8.22222222222 c 0
 415 8.22222222222 391.666666667 10 359 10 c 0x40
 97 4 l 0
 82 2 75 0 39 0 c 0
 28.5887818964 0 24.4598838454 4.87583048863 24.4598838454 12.6750555177 c 0
 24.4598838454 30.3458233702 45.6553074291 63.0236426979 63 88 c 0
 90 127 151 224 173 264 c 0
 201 315 216 346 240 399 c 0
 268 462 280 500 306 564 c 0
 338 645 358 689 388 771 c 0
 412 837 404 806 429 872 c 0
 430 875 439 869 449 860 c 0x80
EndSplineSet
Validated: 524289
EndChar

StartChar: M
Encoding: 77 77 38
Width: 768
VWidth: 0
Flags: W
VStem: 24.9156 42.0844<5.49798 34.9999> 381 44.1897<565.316 750.378> 393.961 46.0389<486.221 564.578>
LayerCount: 2
Back
SplineSet
389.153320312 662 m 1
 395.153320312 574 l 0
 409.740234375 518.696289062 414.2421875 461.560546875 415.153320312 404 c 0
 415.333007812 392.641601562 415.999023438 346.459960938 425.153320312 344 c 0
 471.153320312 392 l 0
 559.153320312 506 l 0
 615.153320312 584 l 0
 626.0234375 592.90234375 629.703125 606.9453125 641.153320312 616 c 0
 645.3984375 619.357421875 668.400390625 654 675.153320312 654 c 0
 678.071289062 654 677.153320312 649.185546875 677.153320312 646 c 0
 674.327148438 596.96484375 651.349609375 550.897460938 643.153320312 502 c 0
 611.440429688 341.9609375 546.7421875 190.827148438 521.153320312 30 c 1024
379.153320312 668 m 1
 343.153320312 572 l 0
 333.153320312 552 l 0
 287.153320312 422 l 0
 199.153320312 220 l 0
 161.153320312 146 l 0
 157.041015625 130.63671875 147.026367188 120.857421875 143.153320312 106 c 0
 132.422851562 80.94921875 119.931640625 56.4169921875 111.153320312 32 c 0
 102.385742188 23.041015625 97.509765625 6.2314453125 89.1533203125 -4 c 1024
1071.15332031 688 m 0
 1072.28808594 663.538085938 1076.72558594 585.646484375 1109.15332031 616 c 0
 1127.58691406 627.197265625 1140.77148438 643.232421875 1155.15332031 660 c 0
 1166.10253906 672.764648438 1179.00097656 684.3125 1191.15332031 694 c 0
 1169.15332031 598 l 0
 1147.15332031 524 l 1025
1063.15332031 692 m 0
 1057.80175781 637.118164062 1034.29199219 584.400390625 1031.15332031 528 c 0
 1019.15332031 494 l 1025
EndSplineSet
Fore
SplineSet
43 8 m 0xc0
 32.6228675973 18.3771324027 24.9156081756 30.5341801261 24.9156081756 34.3963702892 c 0
 24.9156081756 34.6281908937 24.943375673 34.8301270189 25 35 c 0
 54 97 71 132 99 194 c 0
 130 263 148 303 178 373 c 0
 206 436 222 472 248 535 c 0
 269 586 277 617 297 669 c 0
 324 737 341 808 357 842 c 0
 360 849 355 870 386 842 c 0
 422.850454583 808.762335082 425.242971374 744.199272171 425.242971374 698.861004375 c 0
 425.242971374 692.095300785 425.189692986 685.757709596 425.189692986 680.016214432 c 0xc0
 425.189692986 670.984440881 425.321532974 663.427736209 426 658 c 0
 432 610 436 580 439 530 c 0
 440 518 440 501 440 486 c 1
 456 505 464 511 486 538 c 0
 520 579 530 600 562 643 c 0
 591 683 611 712 642 751 c 0
 658.902305471 772.350280595 679.761507482 827.729871439 701.761577654 827.729871439 c 0
 704.491940498 827.729871439 707.23987562 826.876884579 710 825 c 0
 741.41025641 804.358974359 743.02103879 781.301775148 743.02103879 776.789224363 c 0
 743.02103879 776.273504274 743 776 743 776 c 0
 731 719 723 682 709 617 c 0
 696 557 690 523 675 463 c 0
 665 419 658 395 644 351 c 0
 624 288 615 253 599 189 c 0
 583 124 571 70 559 3 c 0
 558 -1 548 5 537 16 c 0
 526.510780872 26.4892191281 516.930848669 38.7970121062 516.930848669 43.385669128 c 0
 516.930848669 43.6091174329 516.953565375 43.8142615011 517 44 c 0
 529 111 541 165 558 230 c 0
 574 294 583 330 603 393 c 0
 617 437 623 460 633 504 c 0
 648 565 655 598 668 659 c 0
 671 674 673 686 676 699 c 1
 650 666 631 637 604 601 c 0
 573 558 561 537 527 496 c 0
 496 459 492 458 461 419 c 0
 459.896776555 417.345164833 459.402104095 409.300544325 452.802305481 409.300544325 c 0
 447.43753129 409.300544325 438.038754546 414.616080621 421 433 c 0
 398.888194417 456.691220267 393.961071748 485.09436972 393.961071748 511.059204883 c 0xa0
 393.961071748 531.933167625 397.145504215 551.231231468 397.145504215 565.2382252 c 0
 397.145504215 566.902232881 397.100562171 568.491567441 397 570 c 0
 395 619 391 650 385 698 c 0
 383 713 382 728 381 752 c 1
 369 717 355 671 338 627 c 0
 318 575 310 545 289 494 c 0
 263 431 248 394 220 331 c 0
 190 261 172 221 141 152 c 0
 113 90 96 55 67 -7 c 0
 66 -10 54 -3 43 8 c 0xc0
EndSplineSet
Validated: 524289
EndChar

StartChar: N
Encoding: 78 78 39
Width: 772
VWidth: 0
Flags: W
HStem: -4.42988 21G<455.053 472.747>
VStem: 342.343 38.5022<94.4942 519.491> 705 42.0634<683.571 768.551>
LayerCount: 2
Back
SplineSet
49.2333984375 18 m 0
 71.87890625 22.6123046875 60.9990234375 46.0185546875 75.2333984375 52 c 0
 101.233398438 100 l 0
 133.233398438 160 l 0
 163.233398438 202 l 0
 187.233398438 252 l 0
 209.233398438 298 l 0
 237.233398438 356 l 0
 285.233398438 434 l 0
 317.233398438 486 l 0
 347.233398438 538 l 0
 389.233398438 604 l 0
 397.139648438 614.471679688 406.421875 623.186523438 411.233398438 638 c 0
 414.240234375 647.2578125 419.6640625 659.583007812 425.233398438 670 c 0
 445.233398438 716 l 0
 473.233398438 768 l 1025
469.233398438 764 m 1
 433.233398438 640 l 0
 411.233398438 522 l 0
 408.133789062 492.94921875 396.971679688 466.118164062 401.233398438 438 c 0
 402.73046875 428.119140625 398.54296875 393.704101562 395.233398438 386 c 0
 385.233398438 324 l 0
 379.233398438 252 l 0
 373.233398438 178 l 0
 373.233398438 116 l 0
 374.321289062 113.008789062 377.233398438 105.877929688 377.233398438 104 c 0
 377.233398438 90 l 0
 384.098632812 62.064453125 396.676757812 39.1572265625 433.233398438 42 c 0
 465.505859375 41.470703125 486.716796875 54.1650390625 505.233398438 82 c 0
 514.517578125 92.3173828125 521.431640625 104.69921875 533.233398438 120 c 0
 555.291015625 149.168945312 573.977539062 176.072265625 585.233398438 212 c 0
 593.532226562 238.493164062 603.77734375 269.723632812 613.233398438 298 c 0
 633.233398438 356 l 0
 669.233398438 460 l 0
 685.233398438 516 l 0
 705.233398438 576 l 0
 707.233398438 586 l 0
 723.233398438 646 l 0
 745.233398438 738 l 0
 747.233398438 746 l 1025
EndSplineSet
Fore
SplineSet
42 -6 m 0
 32 4 24 14 25 17 c 0
 57 80 76 115 107 178 c 0
 136 238 151 273 180 333 c 0
 207 390 222 424 250 480 c 0
 273 526 288 549 312 595 c 0
 343 655 354 691 384 751 c 0
 393.215802777 770.269405807 412.258335237 831.653367397 421.721625373 831.653367397 c 0
 423.553736626 831.653367397 425.026801515 829.352591668 426 824 c 0
 430 801 433 787 433 787 c 1
 428 745 427 715 418 680 c 0
 405 628 412 615 403 562 c 0
 394 511 398 483 393 431 c 0
 388 386 384 360 382 315 c 0
 381.154700538 297.248711306 380.845299462 282.891445716 380.845299462 269.059237328 c 0
 380.845299462 250.164089279 381.422649731 232.248711306 382 208 c 0
 383 161 382 133 400 89 c 0
 407 72 427 52 435 41 c 1
 447 44 452 47 462 60 c 0
 484 89 495 102 513 132 c 0
 543 182 554 212 574 269 c 0
 595 326 603 359 619 419 c 0
 636 483 642 520 658 583 c 0
 673 640 682 672 696 729 c 0
 704 762 697 747 705 781 c 0
 706 784 715 779 726 769 c 0
 736.531698185 759.425728922 747.063396371 748.934791178 747.063396371 745.425960406 c 0
 747.063396371 745.269936963 747.042572892 745.127718677 747 745 c 0
 739 712 743 728 735 694 c 0
 721 637 716 603 701 546 c 0
 685 483 677 447 660 383 c 0
 645 324 633 291 612 233 c 0
 591 176 581 143 550 93 c 0
 531 63 528 52 506 25 c 0
 498.802194657 16.4935027766 484.325522952 -4.42988412356 461.169132928 -4.42988412356 c 0
 448.936917935 -4.42988412356 434.282702987 1.4086051327 417 18 c 0
 379 55 357 94 352 122 c 0
 343 169 344 195 343 242 c 0
 342.585786438 259.39696962 342.343145751 273.705627485 342.343145751 287.484414822 c 0
 342.343145751 306.970562748 342.828427125 325.39696962 344 350 c 0
 346 395 349 421 354 466 c 0
 359 516 359 543 367 592 c 1
 362 583 356 571 350 559 c 0
 327 513 311 490 288 444 c 0
 260 388 245 354 218 297 c 0
 189 237 174 203 145 143 c 0
 114 80 95 44 63 -19 c 0
 62 -22 52 -16 42 -6 c 0
EndSplineSet
Validated: 524289
EndChar

StartChar: O
Encoding: 79 79 40
Width: 650
VWidth: 0
Flags: W
HStem: 0 53<165.443 304.351> 791 56<457 509.976>
VStem: 25 45<160.979 398.687> 449 41<743 760.301> 592 33<506.586 709.977>
LayerCount: 2
Fore
SplineSet
277 773 m 1
 272 781 l 0
 255 807 l 1
 282 820 307 819 329 828 c 0
 338 831 347 834 358 837 c 0
 387 841 412 847 435 847 c 0
 455 847 475 844 499 831 c 0
 522 820 559 801 596 737 c 0
 611 711 621 694 623 673 c 0
 624 659 625 644 625 631 c 0
 625 587 617 549 607 498 c 0
 595 426 582 387 560 318 c 0
 537 246 527 215 489 156 c 0
 451 99 425 70 374 46 c 0
 329 23 294 0 251 0 c 0
 241 0 229 2 218 5 c 0
 174 16 129 23 74 112 c 0
 64 126 56 139 50 153 c 1
 30 196 25 230 25 266 c 0
 25 300 31 335 37 376 c 0
 48 458 68 501 104 567 c 0
 144 644 170 688 229 738 c 0
 245 751 256 760 273 770 c 1
 299 781 277 773 277 773 c 1
457 791 m 1
 457 791 460 789 460 788 c 0
 480 765 488 744 489 741 c 0
 490 735 490 731 490 727 c 0
 490 717 489 709 489 700 c 0
 489 697 489 696 489 693 c 1
 449 743 l 1
 449 749 449 760 449 761 c 1
 440 761 434 760 425 757 c 0
 410 753 397 750 384 746 c 0
 342 733 310 720 267 684 c 0
 209 634 184 589 144 512 c 0
 107 446 87 406 76 324 c 0
 72 297 70 272 70 251 c 0
 70 207 79 169 96 130 c 1
 100 123 105 116 106 115 c 0
 110 108 128 75 183 59 c 0
 198 55 212 53 224 53 c 0
 261 53 291 68 333 88 c 0
 384 112 439 155 472 215 c 0
 512 289 519 314 542 386 c 0
 563 455 572 474 583 547 c 0
 588 586 592 606 592 627 c 0
 592 643 590 660 586 687 c 0
 584 703 565 723 564 727 c 1
 553 746 546 760 528 770 c 0
 504 781 486 791 465 791 c 0
 463 791 459 791 457 791 c 1
EndSplineSet
Validated: 1
EndChar

StartChar: P
Encoding: 80 80 41
Width: 690
VWidth: 0
Flags: W
HStem: 818.59 36.5032<325.194 482.11>
VStem: 626.141 38.9338<585.201 719.984>
LayerCount: 2
Fore
SplineSet
91 32 m 0
 87 21 79 6 78 5 c 2
 65 -20 l 2
 65 -19 31 24 31 25 c 0
 77 115 118 211 159 307 c 1
 155 310 149 316 142 322 c 0
 132 332 123 339 126 340 c 0
 143 344 161 348 178 352 c 1
 238 496 297 639 365 771 c 0
 366 774 376 768 387 759 c 0
 398 750 405 739 404 736 c 0
 342 615 282 490 226 362 c 1
 416 405 591 457 624 641 c 0
 625.523809524 649.571428571 626.140589569 657.743764172 626.140589569 665.358060685 c 0
 626.140589569 697.718820862 615 720 615 720 c 1
 606 748 484 813 443 815 c 0
 442 815 l 0
 428.932332966 817.432810352 416.188375268 818.590109293 403.756708655 818.590109293 c 0
 237.338293064 818.590109293 126.883219686 611.199249725 45 480 c 0
 44.9209117475 479.920911747 44.8324410675 479.882480681 44.7352063264 479.882480681 c 0
 42.3735489316 479.882480681 34.841823495 502.553617768 31 516 c 0
 27.8768943744 526.93086969 25.3634005456 539.080962973 25.3634005456 544.834751722 c 0
 25.3634005456 546.45027985 25.5615528128 547.561552813 26 548 c 0
 107.018258261 677.813345622 197.360320742 855.093330915 362.577286393 855.093330915 c 0
 376.814844813 855.093330915 391.608432984 853.776829101 407 851 c 1
 447 849 536 832 608 774 c 0
 652 738 665 711 665 689 c 0
 665.049684213 686.585347227 665.074386994 684.186690471 665.074386994 681.803900216 c 0
 665.074386994 444.39319371 419.843705137 364.493221023 205 314 c 1
 165 221 127 126 91 32 c 0
EndSplineSet
Validated: 524289
EndChar

StartChar: Q
Encoding: 81 81 42
Width: 700
VWidth: 0
Flags: W
HStem: 1.227 37.0499<166.013 304.876> 217.631 34.0016<364.02 435.876> 746.258 48.7423<411.583 586.963>
VStem: 25 46.926<141.482 365.151> 620.286 33<492.269 702.405>
LayerCount: 2
Back
SplineSet
406.107421875 295.954101562 m 0
 428.560546875 295.02734375 444.638671875 314.26171875 466.669921875 312.573242188 c 0
 524.05078125 320.737304688 543.583984375 269.323242188 544.829101562 222.466796875 c 0
 546.266601562 168.387695312 567.98828125 56 611.98828125 18 c 4
 675.98828125 46 l 1029
604.612304688 840.500976562 m 0
 591.198242188 849.635742188 577.475585938 847.6015625 563.768554688 846.134765625 c 0
 549.290039062 846.772460938 537.018554688 839.830078125 524.862304688 833.873046875 c 0
 512.749023438 827.936523438 494.940429688 824.596679688 481.764648438 823.168945312 c 0
 463.869140625 821.23046875 l 0
 440.010742188 817.09375 420.047851562 807.344726562 397.98828125 798 c 0
 370.09375 789.022460938 349.467773438 764.990234375 322.546875 751.604492188 c 0
 273.501953125 715.012695312 223.5390625 678.985351562 184.620117188 632.053710938 c 0
 125.549804688 576.045898438 78.7978515625 506.017578125 53.751953125 428.776367188 c 0
 29.02734375 368.629882812 12.7734375 306.715820312 17.6796875 241.803710938 c 0
 2.0322265625 107.865234375 108.40625 -15.37890625 246.5078125 5.072265625 c 0
 285.05859375 7.1259765625 319.931640625 23.283203125 355.702148438 37.0185546875 c 0
 494.639648438 81.0380859375 563.170898438 211.0234375 614.935546875 336.682617188 c 0
 634.84375 385.186523438 649.73046875 436.197265625 667.24609375 485.1796875 c 0
 681.234375 535.89453125 691.780273438 586.99609375 684.677734375 639.958007812 c 0
 680.02734375 674.631835938 679.07421875 710.247070312 675.249023438 745.556640625 c 0
 669.84375 795.451171875 617.737304688 843.934570312 568.606445312 838.612304688 c 0
 503.3984375 815.506835938 451.275390625 767.645507812 397.7890625 725.556640625 c 1024
EndSplineSet
Fore
SplineSet
545 746 m 0
 537.100356698 746.151916217 529.662284137 746.257675361 522.563072177 746.257675361 c 0
 482.931184033 746.257675361 453.859937785 742.961675653 414 726 c 0
 362 704 338 702 293 667 c 0
 243 629 226 606 181 554 c 0
 138 504 139 477 115 424 c 0
 96 382 87 344 80 298 c 0
 75.0586570489 268.351942293 71.9259711467 245.938512783 71.9259711467 222.981041954 c 0
 71.9259711467 204.124528305 74.0394191624 184.900980399 79 161 c 0
 84 136 93 117 100 102 c 0
 107 88 107 90 114 84 c 0
 147 57 168 44 223 39 c 0
 228.12511788 38.5118935352 232.982206849 38.2769254865 237.629412082 38.2769254865 c 0
 271.065744508 38.2769254865 293.637011415 50.4405323239 327 68 c 0
 373 92 395 114 432 150 c 0
 441 159 449 167 457 174 c 1
 454 181 450 188 446 196 c 0
 441 204 437 206 432 212 c 1
 424.346688069 212.765331193 417.279107972 217.630785233 406.762750113 217.630785233 c 0
 403.538183842 217.630785233 399.989369717 217.173344034 396 216 c 0
 374 209 365 200 345 190 c 0
 342 189 330 194 318 200 c 0
 294 211 288 208 291 209 c 0
 311 219 332 235 354 242 c 0
 366.507025536 245.949587011 375.547553836 251.63242264 389.393371175 251.63242264 c 0
 396.581374284 251.63242264 405.06446406 250.100825978 416 246 c 0
 452 233 472 214 483 199 c 1
 495 212 505 226 517 248 c 0
 541 294 552 322 570 370 c 0
 583 406 590 426 598 464 c 0
 608 511 613 537 617 584 c 0
 618.643167673 607.552069973 620.286335345 619.104139945 620.286335345 631.637234531 c 0
 620.286335345 641.986335345 619.165942097 653.004347415 616 672 c 0
 613 694 596 713 592 720 c 0
 585 726 572 746 545 746 c 0
519 795 m 0
 522.733333333 795 526.36 795.053333333 529.932148148 795.053333333 c 0
 553.151111111 795.053333333 574.066666667 792.8 607 759 c 0
 650 715 645 685 649 661 c 0
 652.165942097 641.552069973 653.286335345 625.58157299 653.286335345 609.942980005 c 0
 653.286335345 591.004139945 651.643167673 572.552069973 650 549 c 0
 646 501 641 476 631 429 c 0
 623 391 616 371 603 335 c 0
 585 287 576 259 551 213 c 0
 537 188 523 168 508 150 c 1
 518 127 525 107 538 81 c 0
 552 53 549 57 570 32 c 0
 572 30 579 24 581 22 c 0
 584 19 588 18 589 16 c 0
 608 22 606 25 625 38 c 0
 627 40 633 41 655 31 c 0
 667 26 677 21 675 19 c 0
 653 4 643 -21 614 -23 c 0
 613.619047619 -23 613.14739229 -23.0090702948 612.582442501 -23.0090702948 c 0
 607.215419501 -23.0090702948 593.428571429 -22.1904761905 569 -5 c 0
 542 14 542 25 537 30 c 0
 537 31 l 0
 517 55 501 70 487 99 c 0
 484 106 481 112 479 118 c 1
 474 113 469 107 463 102 c 0
 426 66 408 47 361 27 c 0
 327.104675331 12.2251148877 303.784302983 1.2269984619 270.031325899 1.2269984619 c 0
 264.94808828 1.2269984619 259.628231775 1.47644355584 254 2 c 0
 200 6 164 11 112 54 c 0
 83 78 63 107 53 127 c 0
 43 148 38 168 33 193 c 0
 27.5 220 25 242 25 264 c 0
 25 286 27.5 308 32 335 c 0
 39 381 46 433 65 475 c 0
 89 528 92 553 136 598 c 0
 184 647 196 675 246 714 c 0
 291 749 320 760 372 782 c 0
 399.717740802 794.126511601 427.435481604 796.916370274 455.730880722 796.916370274 c 0
 476.435837275 796.916370274 497.450099602 795.422547067 519 795 c 0
EndSplineSet
Validated: 524289
EndChar

StartChar: R
Encoding: 82 82 43
Width: 626
VWidth: 0
Flags: W
HStem: 822.128 40.8954<255.876 451.248>
VStem: 279 42<693.102 749.997> 555.162 45.5391<595.351 729.871>
LayerCount: 2
Back
SplineSet
49.8369140625 642.005859375 m 4
 68.1533203125 681.485351562 98.724609375 712.334960938 133.143554688 737.341796875 c 4
 221.556640625 801.578125 290.59375 832.446289062 405.286132812 822.7734375 c 4
 491.1796875 815.529296875 591.583984375 747.083984375 583.497070312 651.190429688 c 4
 570.986328125 572.311523438 485.376953125 544.708007812 423.90625 508.095703125 c 4
 380.548828125 489.11328125 339.374023438 465.599609375 298.028320312 443.4453125 c 4
 280.36328125 433.98046875 187.924804688 387.354492188 186.340820312 368.56640625 c 4
 240.379882812 344.006835938 299.08984375 313.279296875 321.006835938 251.836914062 c 4
 339.600585938 199.712890625 373.284179688 134.950195312 400.315429688 85.583984375 c 4
 433.163085938 46.685546875 l 1029
299.577148438 747.390625 m 4
 301.528320312 704.891601562 286.529296875 665.918945312 271.303710938 626.338867188 c 4
 249.458007812 574.630859375 225.86328125 528.373046875 204.384765625 475.428710938 c 4
 162.859375 393.481445312 145.170898438 299.98828125 107.463867188 218.665039062 c 4
 104.115234375 211.442382812 69.6748046875 137.421875 73.248046875 134.2421875 c 4
 47.5322265625 79.208984375 l 4
 44.291015625 76.4716796875 l 1029
EndSplineSet
Fore
SplineSet
40 628 m 0
 35 641 23 647 25 649 c 0
 57 690 71 723 108 759 c 0
 143 793 167 808 210 829 c 0
 248 848 272 854 314 859 c 0
 332.256468417 861.340572874 347.225968006 863.023751982 361.985854799 863.023751982 c 0
 378.756468417 863.023751982 395.256468417 860.850739677 416 855 c 0
 455 843 482 834 525 793 c 0
 564 756 594 719 599 676 c 0
 600.138501945 667.081734768 600.700920921 658.703547318 600.700920921 650.721965742 c 0
 600.700920921 616.639948145 590.445992222 589.789487684 571 559 c 0
 549 523 521 518 487 495 c 0
 447 469 423 457 381 434 c 0
 349 417 329 410 297 391 c 0
 264 371 237 364 208 346 c 1
 213 344 222 335 228 331 c 0
 229 331 l 0
 239 324 273 306 301 264 c 0
 327 226 341 209 355 179 c 0
 367 153 375 135 387 108 c 0
 402 75 430 51 450 29 c 0
 461 17 443 33 474 8 c 0
 484.189683998 -0.337014180521 511.541295267 -12.9645101787 511.541295267 -14.7796802757 c 0
 511.541295267 -14.924028361 511.368325455 -15 511 -15 c 0
 506.818181818 -15 459.267107438 -31.0885950413 437.381475582 -31.0885950413 c 0
 433.099504132 -31.0885950413 429.8 -30.4727272727 428 -29 c 0
 422 -24 406 -3 385 20 c 0
 359 49 336 95 323 125 c 0
 311 150 308 163 296 190 c 0
 280 225 274 235 261 255 c 0
 257 258 244 274 234 281 c 2
 234 281 203 309 183 330 c 1
 173 298 164 269 151 230 c 0
 135 183 123 158 105 112 c 0
 89 71 81 46 65 5 c 0
 64 2 55 9 45 19 c 0
 35 29 28 40 29 43 c 0
 45 84 57 107 73 148 c 0
 91 194 103 219 119 266 c 0
 138 323 149 357 169 414 c 0
 189 471 194 504 217 560 c 0
 238 611 247 639 263 692 c 0
 271 720 276 736 279 766 c 0
 279 770 290 760 300 750 c 0
 310 740 321 734 321 730 c 0
 318 701 312 683 303 654 c 0
 287 600 274 573 253 522 c 0
 230 466 219 435 199 378 c 0
 199 377 198 377 198 376 c 1
 220 391 240 404 267 420 c 0
 299 440 317 451 349 468 c 0
 391 491 417 503 457 530 c 0
 491 553 513 562 535 597 c 0
 550.510752634 621.558691671 555.161835773 639.434509806 555.161835773 661.155057357 c 0
 555.161835773 673.043010536 553.768593201 686.082661189 552 702 c 0
 547 742 538 745 519 763 c 0
 500 781 492 798 451 810 c 0
 424.616229196 817.843823752 403.317216331 822.128316948 379.126172386 822.128316948 c 0
 369.392246598 822.128316948 359.190079423 821.434625567 348 820 c 0
 306 815 280 814 242 796 c 0
 199 775 174 754 139 720 c 0
 102 684 91 652 59 610 c 0
 57 608 46 612 40 628 c 0
EndSplineSet
Validated: 524289
EndChar

StartChar: S
Encoding: 83 83 44
Width: 753
VWidth: 0
Flags: W
HStem: 6 37.2947<156.388 407.552> 765.3 37.9173<452.392 687.664>
VStem: 275.042 39.2202<574.783 661.15> 648.036 40.0719<242.466 379.981>
LayerCount: 2
Back
SplineSet
678.767578125 756 m 4
 648.526367188 768.450195312 621.080078125 779.600585938 588.767578125 776 c 4
 561.254882812 772.93359375 528.359375 780 500.767578125 780 c 4
 409.11328125 780 298.767578125 722.62109375 298.767578125 622 c 4
 298.5625 579.606445312 319.284179688 543.6328125 364.767578125 538 c 4
 406.397460938 520.284179688 453.12890625 518.130859375 494.767578125 498 c 4
 571.049804688 483.46875 644.568359375 420.80859375 640.767578125 338 c 4
 636.87109375 225.658203125 546.284179688 131.897460938 444.767578125 94 c 4
 394.296875 75.1591796875 329.412109375 70 276.767578125 70 c 4
 207.396484375 76.986328125 97.84765625 76.3759765625 72.767578125 152 c 1028
EndSplineSet
Fore
SplineSet
721 755 m 0
 726 743 731 738 725 741 c 0
 684.5 757.2 655.34 765.3 612.005 765.3 c 0
 607.19 765.3 602.2 765.2 597 765 c 0
 547 763 517 766 469 752 c 0
 422 738 393 726 360 693 c 0
 333.88801837 665.98760521 314.261987605 639.785954279 314.261987605 604.904989499 c 0
 314.261987605 601.047110443 314.502065798 597.083060454 315 593 c 0
 318 567 338 554 340 552 c 1
 341 551 345 547 357 540 c 0
 397 516 435 512 492 499 c 0
 529 491 573 495 632 430 c 1
 680.480532972 374.993241436 688.10787895 343.455334974 688.10787895 295.67734867 c 0
 688.10787895 292.208883347 688.067682058 288.654831144 688 285 c 0
 687 232 667 202 639 159 c 0
 612 118 589 100 548 72 c 0
 509 45 483 34 436 21 c 0
 384 6 350 6 297 6 c 0
 243 6 214 10 162 23 c 0
 138 29 115 34 82 61 c 0
 49 88 30 123 25 139 c 0
 23 145 36 137 48 131 c 0
 59 126 63 121 68 118 c 0
 73 115 83 114 85 110 c 1
 106 81 110 70 128 61 c 0
 158.885714286 45.8857142857 183.725714286 43.2946938776 212.168466472 43.2946938776 c 0
 227.008163265 43.2946938776 242.828571429 44 261 44 c 0
 314 44 347 44 399 59 c 0
 446 72 470 83 509 109 c 0
 550 137 574 155 601 196 c 0
 629 239 647 269 648 320 c 0
 648.024043513 321.322393205 648.035947125 322.622240881 648.035947125 323.900251892 c 0
 648.035947125 375.776329497 628.422955692 391.673218359 605 419 c 1
 593 428 566 450 525 462 c 0
 473 478 439 471 377 498 c 0
 353 508 320 537 298 569 c 0
 283 590 279 606 276 627 c 0
 275.351516652 631.75554455 275.041794108 636.335867995 275.041794108 640.761170862 c 0
 275.041794108 677.280353768 296.134336181 703.242416739 322 730 c 0
 355 764 384 776 431 790 c 0
 479 804 510 801 560 803 c 0
 563.866297894 803.145898034 567.743238907 803.217294241 571.626941013 803.217294241 c 0
 620.981819384 803.217294241 671.428603793 791.686917696 715 775 c 0
 721 772 716 768 721 755 c 0
EndSplineSet
Validated: 524289
EndChar

StartChar: T
Encoding: 84 84 45
Width: 823
VWidth: 0
Flags: W
HStem: 744 37<37.0017 40.3238 159.123 376.467 593.111 791.446> 756 37<174.915 376.467 424.476 758.371>
LayerCount: 2
Back
SplineSet
90.052734375 771 m 0
 113.489257812 768.469726562 136.439453125 769.086914062 160.052734375 769 c 0
 207.615234375 766.787109375 254.854492188 774.525390625 302.052734375 779 c 0
 336.032226562 782.221679688 371.705078125 789 406.052734375 789 c 0
 427.793945312 786.890625 448.58984375 791.086914062 470.052734375 793 c 0
 489.7890625 794.758789062 509.657226562 795 530.052734375 795 c 0
 542.052734375 795 l 0
 634.052734375 779 l 0
 688.052734375 773 l 0
 740.052734375 763 l 0
 756.052734375 763 l 0
 774.052734375 763 l 0
 776.052734375 759 l 1025
395.052734375 746 m 0
 414.23046875 765.72265625 390.107421875 697.8125 387.052734375 682 c 0
 358.28515625 585.84375 331.959960938 487.544921875 299.052734375 394 c 0
 280.008789062 326.884765625 269.630859375 258.265625 259.052734375 190 c 0
 244.806640625 149.828125 235.124023438 104.446289062 213.052734375 74 c 0
 211.626953125 72.0341796875 201.052734375 44 201.052734375 44 c 0
 195.052734375 42 l 1025
EndSplineSet
Fore
SplineSet
37.466796875 762 m 0x80
 27.466796875 772 22.466796875 781 26.466796875 781 c 0x80
 95.466796875 782 134.466796875 781 203.466796875 783 c 0
 263.466796875 784 296.466796875 787 356.466796875 789 c 0
 415.466796875 791 448.466796875 793 507.466796875 793 c 0
 560.466796875 793 591.466796875 792 644.466796875 791 c 0
 689.466796875 790 715.466796875 789 760.466796875 787 c 0
 764.466796875 787 776.466796875 778 786.466796875 768 c 0
 796.466796875 758 800.466796875 750 796.466796875 750 c 0
 751.466796875 752 726.466796875 753 681.466796875 754 c 0
 628.466796875 755 597.466796875 756 544.466796875 756 c 0x40
 498.466796875 756 468.466796875 755 429.466796875 753 c 1
 408.466796875 689 383.466796875 621 364.466796875 557 c 0
 343.466796875 488 333.466796875 449 313.466796875 380 c 0
 296.466796875 325 286.466796875 294 271.466796875 239 c 0
 255.466796875 182 243.466796875 150 225.466796875 94 c 0
 212.466796875 53 210.466796875 46 193.466796875 -10 c 0
 192.466796875 -13 183.466796875 -8 172.466796875 2 c 0
 161.466796875 12 152.466796875 22 153.466796875 25 c 0
 170.466796875 81 172.466796875 88 185.466796875 129 c 0
 203.466796875 185 216.466796875 217 231.466796875 274 c 0
 246.466796875 329 256.466796875 360 273.466796875 415 c 0
 293.466796875 484 303.466796875 523 324.466796875 592 c 0
 343.466796875 655 357.466796875 691 376.466796875 751 c 1
 327.466796875 749 294.466796875 747 240.466796875 746 c 0
 171.466796875 744 132.466796875 745 63.466796875 744 c 0
 59.466796875 744 47.466796875 752 37.466796875 762 c 0x80
EndSplineSet
Validated: 524289
EndChar

StartChar: U
Encoding: 85 85 46
Width: 671
VWidth: 0
Flags: W
HStem: -4.98083 42.0636<170 310.108>
VStem: 24.6061 43.8641<193.289 518.141> 603.394 42.4995<521.172 768.154>
LayerCount: 2
Back
SplineSet
185.393554688 787 m 0
 146.495117188 744.126953125 107.227539062 693.630859375 93.3935546875 638 c 0
 79.7958984375 583.3203125 59.548828125 529.01953125 57.4638671875 470.868164062 c 0
 56.36328125 440.184570312 56.6123046875 406.310546875 53.4599609375 376.762695312 c 0
 48.7607421875 362.693359375 55.41796875 350.04296875 55.18359375 336.3515625 c 0
 59.966796875 310.592773438 64.1953125 285.930664062 61.0439453125 259.294921875 c 0
 55.20703125 236.302734375 59.8935546875 215.24609375 68.1767578125 194.171875 c 0
 76.431640625 171.336914062 75.5498046875 145.119140625 89.0185546875 125.57421875 c 0
 107.685546875 87.1533203125 135.513671875 53.072265625 176.416015625 39.8203125 c 0
 207.447265625 31.166015625 240.362304688 31.2314453125 270.734375 37.8046875 c 0
 298.708007812 46.42578125 325.504882812 58.17578125 349.1953125 75.697265625 c 0
 411.720703125 116.265625 476.158203125 157.637695312 504.236328125 228.112304688 c 0
 513.889648438 252.340820312 522.243164062 283.190429688 536.5859375 305.115234375 c 0
 558.35546875 377.212890625 l 0
 580.416992188 433.188476562 l 0
 592.747070312 492.213867188 l 0
 613.642578125 612.677734375 l 0
 620.6953125 716.514648438 l 0
 606.393554688 745 l 1029
EndSplineSet
Fore
SplineSet
190 800 m 0
 195 787 202 773 200 771 c 0
 171 728 162 713 140 666 c 0
 114 609 103 575 89 513 c 0
 79 467 73 437 71 390 c 0
 69.7350889359 360.907045526 68.4701778719 340.614091053 68.4701778719 317.989919216 c 0
 68.4701778719 304.842134462 68.8973665961 290.907045526 70 274 c 0
 73 223 82 195 100 148 c 0
 116 106 130 93 149 72 c 1
 166 54 170 54 204 44 c 0
 219.568040344 39.3295878968 231.349145061 37.0828145951 242.291072481 37.0828145951 c 0
 259.462965886 37.0828145951 274.568040344 42.6164171462 299 53 c 0
 341 71 365 85 400 114 c 0
 438 146 457 166 484 209 c 0
 509 249 514 275 530 320 c 0
 545 362 549 389 561 432 c 0
 573 477 581 505 587 551 c 0
 593 596 597 618 601 664 c 0
 602.651530772 681.065817974 603.393876913 692.979589711 603.393876913 705.41382381 c 0
 603.393876913 715.566333438 602.898979486 726.065817974 602 740 c 0
 601 754 597 769 590 788 c 0
 588 794 600 783 611 776 c 0
 623 769 626 770 628 764 c 0
 632 754 643 723 644 706 c 0
 645.097167541 688.993903119 645.893390928 676.201024381 645.893390928 662.998757598 c 0
 645.893390928 652.134933665 645.354248689 640.993903119 644 627 c 0
 640 581 633 555 627 510 c 0
 621 464 615 438 603 393 c 0
 591 350 587 327 572 285 c 0
 555 240 545 213 520 172 c 0
 493 129 473 106 435 74 c 0
 400 45 376 34 334 16 c 0
 303.704029932 2.79406432913 280.649446864 -4.98083109091 251.241890816 -4.98083109091 c 0
 242.793102166 -4.98083109091 233.819931205 -4.33908152793 224 -3 c 0
 185 2 154 21 118 61 c 1
 77 106 63 137 50 180 c 0
 35 229 30 258 27 309 c 0
 25.3484692283 334.323471832 24.6061230866 353.888774341 24.6061230866 374.035770078 c 0
 24.6061230866 390.485723212 25.1010205144 407.323471832 26 428 c 0
 28 475 36 504 46 550 c 0
 60 612 67 647 94 704 c 0
 116 751 152 787 181 830 c 0
 181.098346995 830.098346995 181.196693989 830.1459153 181.295397693 830.1459153 c 0
 183.203948088 830.1459153 185.245867486 812.360744535 190 800 c 0
EndSplineSet
Validated: 524289
EndChar

StartChar: V
Encoding: 86 86 47
Width: 630
VWidth: 0
Flags: W
VStem: 33.2103 29.7897<31.1465 78.883>
LayerCount: 2
Back
SplineSet
155.754882812 782 m 5
 115.754882812 594 l 4
 107.17578125 539.05859375 94.0439453125 468.762695312 89.7548828125 413 c 4
 87.7548828125 387 82.7548828125 353 77.7548828125 322 c 4
 69.7548828125 260 l 4
 57.7548828125 172 l 4
 46.7548828125 106 l 4
 35.7548828125 24 l 4
 35.0087890625 24.5537109375 48.19921875 30.89453125 53.7548828125 34 c 4
 77.97265625 47.53515625 93.693359375 28.994140625 113.754882812 48 c 4
 170.754882812 102 234.04296875 173.192382812 271.754882812 236 c 4
 374.5234375 407.157226562 448.706054688 580.125976562 535.754882812 756 c 4
 537.754882812 746 l 1029
EndSplineSet
Fore
SplineSet
145 801 m 0
 155 792 164 781 163 778 c 0
 156 735 153 709 146 666 c 0
 137 614 130 585 122 533 c 0
 115 488 113 461 107 416 c 0
 99 356 93 322 85 262 c 0
 80 221 80 196 75 155 c 0
 71 116 67 94 63 55 c 0
 62 45 63 34 64 31 c 1
 74 39 82 47 91 54 c 0
 129 84 147 104 177 142 c 0
 214 188 230 219 262 269 c 0
 286 308 299 331 321 372 c 0
 344 415 357 440 378 484 c 0
 397 523 411 545 429 584 c 0
 446 621 445 616 465 651 c 0
 481 679 507 710 526 733 c 0
 535 744 551 753 568 763 c 0
 571 764 581 757 591 747 c 0
 601 737 607 727 604 726 c 0
 587 716 573 708 564 697 c 0
 545 674 519 645 503 616 c 0
 483 580 483 585 466 548 c 0
 448 509 434 488 415 448 c 0
 394 404 382 379 359 336 c 0
 337 295 324 272 300 233 c 0
 268 183 251 153 214 107 c 0
 184 69 166 47 128 17 c 0
 117.439486103 8.55158888206 101.922329815 -19.2277275573 79.0057788979 -19.2277275573 c 0
 69.3719949454 -19.2277275573 58.4305610872 -14.3184583077 46 -1 c 0
 33.4782608696 12.0434782609 30.4839319471 18.2816635161 30.4839319471 21.8332374455 c 0
 30.4839319471 25.0888468809 33 26.0869565217 33 28 c 0
 33.1440551397 29.3685238271 33.2102907171 30.6955438876 33.2102907171 31.9915231356 c 0
 33.2102907171 46.8119730899 24.5482940904 57.5730425188 24.5482940904 79.9222091997 c 0
 24.5482940904 82.7518005403 24.6871430969 85.7671453348 25 89 c 0
 29 128 33 151 37 190 c 0
 42 231 43 255 48 296 c 0
 56 356 62 390 70 450 c 0
 76 495 77 522 84 567 c 0
 93 619 99 649 108 701 c 0
 115 744 118 769 125 812 c 0
 126 815 135 810 145 801 c 0
EndSplineSet
Validated: 524289
EndChar

StartChar: W
Encoding: 87 87 48
Width: 782
VWidth: 0
Flags: W
HStem: -9.16935 56.9818<409.389 493.31> 32.44 55.2835<104.655 192.209>
VStem: 24.5 44.4238<120.907 355.326> 371 57<293.868 386.281> 712.744 44<439.104 725.654>
LayerCount: 2
Back
SplineSet
204.744140625 584 m 4
 90.1865234375 467.407226562 8.9482421875 305.309570312 6.744140625 140 c 4
 -3.6953125 99.0302734375 27.318359375 58.58203125 70.744140625 70 c 4
 168.646484375 66.2705078125 245.421875 147.330078125 292.744140625 224 c 4
 294.853515625 227.416992188 312.744140625 272 312.744140625 272 c 4
 286.744140625 216 l 4
 266.744140625 148 l 4
 254.744140625 106 l 4
 254.744140625 92 l 4
 253.0703125 56.8564453125 289.008789062 42.09375 314.744140625 30 c 4
 338.504882812 24.6533203125 364.6640625 28.8701171875 386.744140625 40 c 4
 424.5234375 60.6396484375 457.5234375 88.466796875 482.744140625 124 c 4
 550.025390625 218.791015625 594.744140625 308.897460938 594.744140625 430 c 4
 594.744140625 434.32421875 596.04296875 494 582.744140625 494 c 4
 580.744140625 488 l 1029
EndSplineSet
Fore
SplineSet
269 861 m 0x78
 273.747727085 843.591667355 276.617044797 825.557198253 276.617044797 817.301130258 c 0
 276.617044797 815.123488167 276.417424305 813.626136458 276 813 c 0
 249 770 244 763 219 718 c 0
 193 672 179 644 158 593 c 0
 138 545 132 516 118 464 c 0
 103 410 94 380 85 324 c 0
 77 277 70 249 69 201 c 0
 68.9488213349 198.850496066 68.9238352274 196.74551948 68.9238352274 194.681987092 c 0
 68.9238352274 156.425351211 77.5117866509 132.413461382 87 103 c 1
 92 96 99 95 104 93 c 1
 111.901876106 89.2814700679 116.562940136 87.7234815195 121.397658157 87.7234815195 c 0x78
 126.964293595 87.7234815195 132.761141072 89.7888974491 144 93 c 0
 176 102 198 109 226 129 c 0
 252 148 267 165 288 193 c 0
 311 223 322 237 340 272 c 0
 354 300 358 320 371 351 c 0
 378 367 386 405 390 406 c 0
 390.101694915 406.033898305 390.210858949 406.050560184 390.327209695 406.050560184 c 0
 397.075553002 406.050560184 428 350 428 350 c 0
 414 296 400 269 387 214 c 0
 379 177 371 157 371 120 c 0
 371 94 379 82 386 71 c 1
 392 65 397 67 403 63 c 1
 420.25 56.25 430.1875 47.8125 443.78125 47.8125 c 0
 448.3125 47.8125 453.25 48.75 459 51 c 1
 488 61 502 76 525 100 c 1
 553 127 567 145 589 179 c 0
 613 216 624 238 640 281 c 0
 662 336 672 370 688 428 c 0
 701 477 707 504 711 556 c 0
 712.183346174 572.566846431 712.744333162 586.488666324 712.744333162 599.852114369 c 0
 712.744333162 620.367462764 711.422205102 639.566846431 709 665 c 0
 705 700 704 726 697 760 c 0
 696 767 705 763 717 750 c 0
 729 737 740 720 741 713 c 0
 748 677 750 652 753 617 c 0
 755.422205102 590.961295155 756.744333162 571.52305256 756.744333162 550.691435547 c 0
 756.744333162 537.121973977 756.183346174 522.961295155 755 506 c 0
 751 454 745 426 732 377 c 0
 716 319 706 284 684 229 c 0
 668 186 657 164 633 127 c 0
 610 93 597 75 569 48 c 0
 546 25 530 8 501 -3 c 0
 490.406016326 -7.14547187247 480.872831235 -9.16934657884 471.22777521 -9.16934657884 c 0xb8
 459.932994494 -9.16934657884 448.484800354 -6.39392014169 435 -1 c 1
 421 4 379 23 346 83 c 0
 332 109 330 121 328 143 c 1
 328 143 328 142 327 141 c 0
 305 113 292 97 265 78 c 0
 237 57 218 49 186 40 c 0
 173.4 36.4 164.04 32.44 153.384 32.44 c 0
 146.28 32.44 138.6 34.2 129 39 c 1
 111 47 57 84 38 138 c 0
 26.75 169.5 24.5 193.125 24.5 220.6875 c 0
 24.5 229.875 24.75 239.5 25 250 c 0
 26 299 33 327 41 374 c 0
 50 430 60 461 74 515 c 0
 88 567 100 596 120 644 c 0
 141 695 154 721 179 767 c 0
 204 812 226 851 253 894 c 0
 253.1483598 894.222539701 253.335238204 894.329523592 253.556145158 894.329523592 c 0
 256.313227574 894.329523592 264.370899501 877.664761796 269 861 c 0x78
EndSplineSet
Validated: 524289
EndChar

StartChar: X
Encoding: 88 88 49
Width: 594
VWidth: 0
Flags: W
VStem: 464 36.0846<-4.03369 21.5356>
LayerCount: 2
Back
SplineSet
574.784179688 697.188476562 m 5
 448.009765625 521.143554688 l 4
 414.831054688 474.823242188 380.959960938 429.565429688 344.180664062 387.59375 c 4
 296.83203125 333.560546875 250.83984375 264.106445312 210.310546875 205.696289062 c 4
 151.622070312 114.836914062 l 4
 112.782226562 72.69921875 l 4
 107.03515625 65.8466796875 l 1029
164.331054688 736.87109375 m 4
 170.959960938 701.967773438 190.260742188 674.33203125 203.662109375 643.184570312 c 4
 218.8671875 596.015625 245.611328125 553.237304688 266.228515625 509 c 4
 280.153320312 459.799804688 313.377929688 419.833007812 325.921875 371.389648438 c 4
 368.870117188 281.147460938 389.744140625 185.541015625 428.81640625 95.9892578125 c 4
 439.778320312 70.865234375 443.399414062 73.91796875 444.784179688 56.1884765625 c 1028
EndSplineSet
Fore
SplineSet
483 -3 m 0
 474 -14 465 -26 464 -23 c 0
 439 36 449 19 425 79 c 0
 404 131 393 165 371 217 c 0
 353 260 342 282 324 325 c 0
 321 331 318 337 316 343 c 1
 310 334 304 325 297 315 c 0
 271 277 251 254 226 219 c 0
 192 174 174 151 142 104 c 0
 119 70 100 41 77 6 c 0
 73 0 53 -3 41 -10 c 0
 29 -17 22 -17 26 -11 c 0
 48 23 61 52 85 87 c 0
 117 134 137 160 171 205 c 0
 198 242 215 259 240 295 c 0
 264 330 280 354 299 383 c 1
 288 410 277 435 263 470 c 0
 249 506 239 530 226 566 c 0
 211 607 202 630 187 670 c 0
 170 715 162 732 143 775 c 0
 142 778 144 790 154 802 c 0
 166.716233646 817.441140855 172.007347989 830.407241943 173.620150646 830.407241943 c 0
 173.78297101 830.407241943 173.908302403 830.27509279 174 830 c 0
 193 787 211 744 229 700 c 0
 245 660 251 637 266 596 c 0
 279 560 287 540 301 504 c 0
 312 476 321 454 330 432 c 1
 357 473 370 497 396 539 c 0
 417 574 429 594 452 630 c 0
 471 660 483 675 503 704 c 0
 507 710 524 712 537 717 c 0
 554 723 572 726 568 720 c 0
 548 691 535 677 516 648 c 0
 494 613 480 592 458 557 c 0
 432 515 416 491 388 449 c 0
 373 426 360 407 348 389 c 1
 353 378 358 367 363 355 c 0
 381 312 396 289 414 246 c 0
 436 194 445 162 466 110 c 0
 490 50 475 87 500 28 c 0
 500.056810676 27.8295679716 500.084574276 27.623633961 500.084574276 27.3842148599 c 0
 500.084574276 23.4093010682 492.431893239 10.2046505341 483 -3 c 0
EndSplineSet
Validated: 524289
EndChar

StartChar: Z
Encoding: 90 90 50
Width: 709
VWidth: 0
Flags: W
HStem: 22 46.7869<103.113 498.835 503.457 567.626> 22.5774 40.4226<79.9539 315.879 383.791 542.254> 703.402 44.5982<230.525 299.102 301.092 627.319>
LayerCount: 2
Back
SplineSet
229.759765625 695 m 5
 450.759765625 693 l 0
 517.759765625 690 l 0
 550.166992188 684.400390625 566.759765625 690 601.131835938 686 c 0
 624.514648438 683.279296875 705.869140625 696.213867188 694.759765625 666 c 0
 662.764648438 578.983398438 552.34765625 514.829101562 491.759765625 448 c 0
 453.778320312 406.106445312 411.712890625 367.694335938 369.759765625 330 c 0
 327.12890625 292.241210938 291.599609375 247.297851562 243.759765625 216 c 0
 196.348632812 179.715820312 153.182617188 141.583007812 109.759765625 102 c 0
 94.9638671875 88.5126953125 65.759765625 75.7587890625 65.759765625 52 c 0
 70.244140625 40.4580078125 93.857421875 48.376953125 105.759765625 46 c 0
 129.126953125 41.333984375 152.42578125 48.814453125 173.759765625 52 c 0
 241.759765625 58 l 0
 301.759765625 62 l 0
 377.759765625 72 l 0
 537.759765625 76 l 0
 611.759765625 78 l 0
 625.759765625 80 l 1025
EndSplineSet
Fore
SplineSet
218 745 m 0xa0
 210 756 209 754 213 754 c 0
 224.608514495 753.447213595 234.765558146 753.276393202 244.273484304 753.276393202 c 0
 259.657631989 753.276393202 273.342368011 753.723606798 288.726515696 753.723606798 c 0
 298.234441854 753.723606798 308.391485505 753.552786405 320 753 c 0
 358 751 379 751 417 748 c 0
 459 745 484 747 526 744 c 0
 562 741 582 742 619 738 c 0
 636 736 675 740 679 720 c 0
 684 694 684 689 684 689 c 1
 677 667 669 657 659 640 c 0
 643 612 630 600 609 577 c 0
 586 552 572 539 547 515 c 0
 519 488 504 472 476 445 c 0
 447 415 430 398 400 368 c 0
 369 336 352 318 321 286 c 0
 304 269 296 260 279 243 c 1
 256 222 243 210 220 189 c 0
 198 169 186 158 164 138 c 0
 139 115 125 104 101 80 c 0
 94 72 85 66 79 60 c 1
 96 60 107 61 126 61 c 1
 155 62 172 61 201 63 c 1
 228 64 246 65 273 67 c 0
 290 68.5 303.25 68.75 316.5 68.75 c 0
 323.125 68.75 329.75 68.6875 336.84375 68.6875 c 0
 343.9375 68.6875 351.5 68.75 360 69 c 0
 368.493903346 69.2928932188 375.95836944 69.4142135624 382.996428663 69.4142135624 c 0
 399.987806691 69.4142135624 414.493903346 68.7071067812 435 68 c 0
 460 67 475 65 500 65 c 1
 500.925051724 64.9513130671 501.878548458 64.928700726 502.855758458 64.928700726 c 0
 515.620291259 64.928700726 532.430819852 68.7868548295 542.741723023 68.7868548295 c 0
 547.854596713 68.7868548295 551.369292801 67.8381823957 552 65 c 0
 553 62 560 63 568 52 c 0
 574.4 43.2 578.88 27.36 578.88 21.376 c 0
 578.88 19.88 578.6 19 578 19 c 0
 559 19 550 21 531 22 c 1
 506 22 489 23 464 24 c 0
 458.461492837 24.1909830056 453.4701033 24.2725424859 448.816851053 24.2725424859 c 0
 429.105358216 24.2725424859 415.461492837 22.8090169944 392 22 c 0
 388.049061947 21.8837959396 384.300674649 21.8351087975 380.707763665 21.8351087975 c 0
 362.127769218 21.8351087975 347.705564116 23.1371134247 330.931125224 23.1371134247 c 0
 323.034971716 23.1371134247 314.61760472 22.8486121811 305 22 c 0xa0
 299.294228634 21.5773502692 293.901064659 21.4226497308 288.688384646 21.4226497308 c 0
 274.447078006 21.4226497308 261.552921994 22.5773502692 247.311615354 22.5773502692 c 0x60
 242.098935341 22.5773502692 236.705771366 22.4226497308 231 22 c 0
 202 20 185 21 156 20 c 1
 135.2 20 120.16 18.72 101.664 18.72 c 0
 97.04 18.72 92.2 18.8 87 19 c 0
 86.0428434448 19 24.6198745978 35.4906760796 24.6198745978 60.5799488845 c 0
 24.6198745978 61.7029740256 24.742939331 62.8432269894 25 64 c 1
 31 93 51 100 70 120 c 0
 94 144 108 156 133 179 c 0
 155 199 166 209 188 229 c 0
 211 250 224 262 247 283 c 0
 264 300 273 309 290 326 c 0
 321 358 337 377 368 409 c 0
 398 439 414 456 444 486 c 0
 472 513 488 528 516 555 c 0
 541 579 555 593 578 618 c 0
 599 641 612 652 628 680 c 0
 633 688 636 695 640 702 c 1
 628.179261999 703.47759225 617.995983142 703.863545071 608.089196399 703.863545071 c 0
 597.252793232 703.863545071 586.747206768 703.401761051 574.791270073 703.401761051 c 0
 568.088052552 703.401761051 560.928932188 703.546918161 553 704 c 0
 511 707 487 706 445 709 c 0
 407 712 387 710 348 712 c 0
 332.626933041 712.732050808 315.91412012 713.196152423 300.362504626 713.196152423 c 0
 273.426316451 713.196152423 249.973720558 711.803847577 243 708 c 0
 242.897242923 707.931495282 242.781580382 707.898187287 242.653695532 707.898187287 c 0
 239.047973296 707.898187287 225.725981129 734.376775948 218 745 c 0xa0
EndSplineSet
Validated: 524289
EndChar

StartChar: Y
Encoding: 89 89 51
Width: 579
VWidth: 0
Flags: W
LayerCount: 2
Back
SplineSet
270.259765625 330 m 0
 247.674804688 334.48828125 260.4140625 364.435546875 246.259765625 375 c 0
 216.259765625 462 l 0
 195.259765625 528 l 0
 174.259765625 630 l 0
 134.260742188 771 l 0
 150.259765625 711 l 1025
503.260742188 759 m 1
 407.260742188 579 l 0
 383.260742188 543 l 0
 290.260742188 369 l 0
 233.260742188 270 l 0
 179.260742188 177 l 0
 149.260742188 123 l 0
 135.14453125 100.541015625 130.260742188 93 94.2607421875 46 c 0
 78.8056640625 25.822265625 71.3369140625 18.37890625 55.2607421875 0 c 0
 52.2607421875 6 l 1025
EndSplineSet
Fore
SplineSet
542 811 m 0
 551 797 556 791 554 788 c 0
 526 740 522 737 494 689 c 0
 468 645 457 620 431 576 c 0
 404 531 387 505 360 460 c 0
 337 421 324 397 301 359 c 0
 278 320 267 300 244 260 c 0
 221 220 202 196 177 156 c 0
 156 122 144 102 120 70 c 0
 93 34 82 16 54 -19 c 0
 53.8713812672 -19.1286187328 53.7220840614 -19.1910663519 53.5523743465 -19.1910663519 c 0
 51.0831260921 -19.1910663519 44.2925969697 -5.97105013776 34 9 c 0
 25 22 24 20 26 22 c 0
 54 57 64 71 92 107 c 0
 117 139 127 159 149 192 c 0
 175 231 187 255 211 295 c 0
 233 333 243 355 265 391 c 1
 253 398 239 405 235 418 c 0
 224 453 225 453 216 480 c 0
 207 507 202 521 194 548 c 0
 187 571 177 600 168 632 c 0
 158 668 154 690 145 726 c 0
 136 762 129 782 119 818 c 0
 111 843 108 844 100 869 c 0
 99.8969467585 869.309159725 99.8469933699 869.57849456 99.8469933699 869.810056547 c 0
 99.8469933699 870.591463049 100.415825945 870.942740046 101.43258392 870.942740046 c 0
 105.962099923 870.942740046 119.381049961 863.971370023 131 857 c 0
 144 849 151 844 153 838 c 0
 161 813 161 810 169 785 c 0
 180 749 187 726 196 690 c 0
 205 654 210 635 220 599 c 0
 229 566 233 548 244 515 c 0
 252 488 253 475 262 447 c 0
 267 433 274 425 281 418 c 1
 296 444 305 464 324 495 c 0
 351 540 368 566 395 611 c 0
 422 655 437 679 463 723 c 0
 491 771 498 782 526 830 c 0
 528 833 534 824 542 811 c 0
EndSplineSet
Validated: 524289
EndChar

StartChar: colon
Encoding: 58 58 52
Width: 142
VWidth: 0
Flags: W
HStem: 143.505 72.2157<35.2711 91.7792> 338.505 72.2157<53.2711 109.779>
VStem: 25.2588 73.6013<151.975 205.049> 43.2588 73.6013<346.975 400.049>
LayerCount: 2
Back
SplineSet
78.3427734375 784 m 25
 78.3427734375 -12 l 1049
EndSplineSet
Fore
SplineSet
27 179 m 0xe0
 34 197 49 211 69 215 c 0
 71.2521455629 215.489596861 73.3796444806 215.720312229 75.3815578824 215.720312229 c 0
 90.8884533146 215.720312229 98.8600808516 201.877138596 98.8600808516 187.281580584 c 0
 98.8600808516 184.518411813 98.5743741578 181.72827725 98 179 c 0
 94 160 76 148 56 144 c 0
 54.2371274794 143.664214758 52.516536857 143.504604092 50.8476932246 143.504604092 c 0
 36.0071539525 143.504604092 25.2587799517 156.126656596 25.2587799517 169.722396326 c 0
 25.2587799517 172.810193272 25.8131944159 175.948214212 27 179 c 0xe0
45 374 m 0
 52 392 67 406 87 410 c 0
 89.2521455629 410.489596861 91.3796444806 410.720312229 93.3815578824 410.720312229 c 0
 108.888453315 410.720312229 116.860080852 396.877138596 116.860080852 382.281580584 c 0
 116.860080852 379.518411813 116.574374158 376.72827725 116 374 c 0
 112 355 94 343 74 339 c 0
 72.2371274794 338.664214758 70.516536857 338.504604092 68.8476932246 338.504604092 c 0
 54.0071539525 338.504604092 43.2587799517 351.126656596 43.2587799517 364.722396326 c 0xd0
 43.2587799517 367.810193272 43.8131944159 370.948214212 45 374 c 0
EndSplineSet
Validated: 524289
EndChar

StartChar: semicolon
Encoding: 59 59 53
Width: 168
VWidth: 0
Flags: W
HStem: 338.505 72.2157<79.2711 135.779>
VStem: 69.2588 73.6013<346.975 400.049> 70 51<137.663 199>
LayerCount: 2
Back
SplineSet
52.662109375 179.440429688 m 4
 59.740234375 197.478515625 75.0556640625 210.852539062 94.681640625 215 c 4
 117.771484375 219.879882812 127.008789062 198.490234375 123.461914062 179.440429688 c 4
 119.916015625 160.390625 101.137695312 147.69140625 81.4423828125 143.879882812 c 4
 60.771484375 139.879882812 45.771484375 161.879882812 52.662109375 179.440429688 c 4
70.662109375 374.440429688 m 4
 77.740234375 392.478515625 93.0556640625 405.852539062 112.681640625 410 c 4
 135.771484375 414.879882812 145.008789062 393.490234375 141.461914062 374.440429688 c 4
 137.916015625 355.390625 119.137695312 342.69140625 99.4423828125 338.879882812 c 4
 78.771484375 334.879882812 63.771484375 356.879882812 70.662109375 374.440429688 c 4
EndSplineSet
Fore
SplineSet
70 199 m 1xa0
 121 199 l 1
 110 167 94 115 76 87 c 0
 70.3431457505 78.5147186258 44.186291501 70.0294372515 31.8241161391 70.0294372515 c 0
 27.8627800632 70.0294372515 25.3179067888 70.9007214274 25.3179067888 72.9224841231 c 0
 25.3179067888 73.5141323655 25.5358447884 74.2043053516 26 75 c 0
 45 108 66 158 70 199 c 1xa0
71 374 m 0
 78 392 93 406 113 410 c 0
 115.252145563 410.489596861 117.379644481 410.720312229 119.381557882 410.720312229 c 0
 134.888453315 410.720312229 142.860080852 396.877138596 142.860080852 382.281580584 c 0
 142.860080852 379.518411813 142.574374158 376.72827725 142 374 c 0
 138 355 120 343 100 339 c 0
 98.2371274794 338.664214758 96.516536857 338.504604092 94.8476932246 338.504604092 c 0
 80.0071539525 338.504604092 69.2587799517 351.126656596 69.2587799517 364.722396326 c 0xc0
 69.2587799517 367.810193272 69.8131944159 370.948214212 71 374 c 0
EndSplineSet
Validated: 524289
EndChar

StartChar: period
Encoding: 46 46 54
Width: 124
VWidth: 0
Flags: W
HStem: -0.495396 72.2157<35.2711 91.7792>
VStem: 25.2588 73.6013<7.97519 61.0487>
LayerCount: 2
Fore
SplineSet
27 35 m 0
 34 53 49 67 69 71 c 0
 71.2521455629 71.4895968615 73.3796444806 71.7203122293 75.3815578824 71.7203122293 c 0
 90.8884533146 71.7203122293 98.8600808516 57.8771385965 98.8600808516 43.2815805836 c 0
 98.8600808516 40.5184118128 98.5743741578 37.7282772495 98 35 c 0
 94 16 76 4 56 0 c 0
 54.2371274794 -0.335785242027 52.516536857 -0.495395907861 50.8476932246 -0.495395907861 c 0
 36.0071539525 -0.495395907861 25.2587799517 12.1266565957 25.2587799517 25.7223963263 c 0
 25.2587799517 28.8101932717 25.8131944159 31.9482142122 27 35 c 0
EndSplineSet
Validated: 524289
EndChar

